<?xml version="1.0" standalone="no"?>
<!DOCTYPE svg PUBLIC "-//W3C//DTD SVG 1.1//EN" "http://www.w3.org/Graphics/SVG/1.1/DTD/svg11.dtd" >
<svg xmlns="http://www.w3.org/2000/svg" xmlns:xlink="http://www.w3.org/1999/xlink" version="1.1">
<metadata></metadata>
<defs>
<font id="bmw_type_web_light_arabicRg" horiz-adv-x="1024" vert-adv-y="2048" >
<font-face units-per-em="2048" ascent="1638" descent="-410" />
<missing-glyph horiz-adv-x="518" />
<glyph unicode="fi" horiz-adv-x="1010" vert-adv-y="1433" d="M205 0v973h-168v108h168v187q0 297 270 297q52 0 92 -6q6 -1 23 -3q12 -2 26 -4l-12 -112q-66 8 -105 8q-85 0 -124 -47.5t-39 -151.5v-168h256v-108h-256v-973h-131zM735 0v1081h131v-1081h-131zM735 1335v209h131v-209h-131z" />
<glyph unicode="fl" horiz-adv-x="1010" vert-adv-y="1433" d="M205 0v973h-168v108h168v187q0 297 270 297q52 0 92 -6q6 -1 23 -3q12 -2 26 -4l-12 -112q-66 8 -105 8q-85 0 -124 -47.5t-39 -151.5v-168h256v-108h-256v-973h-131zM735 0v1544h131v-1544h-131z" />
<glyph unicode="&#x651;&#x64c;" horiz-adv-x="0" vert-adv-y="1433" arabic-form="isolated" d="M686 1365q2 -39 19 -103q15 -57 15 -98q0 -62 -34 -98t-94 -36q-73 0 -101 71q-24 -74 -93 -74q-77 0 -111.5 79t-33.5 255l41 3q13 -128 34.5 -174t68.5 -46q65 0 65 68q0 46 -18 149l44 3q20 -83 27 -128q8 -50 24 -68.5t50 -18.5q68 0 68 59q0 17 -8 67q-7 40 -9 92z M610 1665l49 -18l-40 -79l-41 14q-47 -83 -100.5 -118t-174.5 -61l-37 18q5 43 5 72q0 150 -69 150q-26 0 -65 -16l-10 93q55 21 86 21q52 0 81.5 -53t29.5 -146q0 -14 -1 -33q74 11 111 28t90 63q-83 25 -118 55.5t-35 77.5q0 87 54 167.5t112 80.5q43 0 68.5 -47 t25.5 -125q0 -62 -21 -144zM557 1686q4 27 4 50q0 131 -57 131q-26 0 -45.5 -26t-19.5 -62q0 -26 21.5 -43t96.5 -50z" />
<glyph unicode="&#x651;&#x64d;" horiz-adv-x="0" vert-adv-y="1433" arabic-form="isolated" d="M661 1239l-51 -126l-352 -215l-9 22l51 126l352 214zM686 1472l-51 -126l-352 -215l-9 22l51 125l352 215zM653 1842q3 -40 19 -103q15 -56 15 -98q0 -63 -34 -98.5t-94 -35.5q-72 0 -101 71q-24 -74 -92 -74q-78 0 -112.5 79t-33.5 255l42 3q12 -127 33.5 -173.5 t68.5 -46.5q65 0 65 68q0 40 -18 149l44 3q21 -84 28 -128q8 -50 23.5 -68.5t49.5 -18.5q68 0 68 59q0 16 -8 67q-7 41 -9 92z" />
<glyph unicode="&#x651;&#x64e;" horiz-adv-x="0" vert-adv-y="1433" arabic-form="isolated" d="M669 1756l-50 -124l-353 -211l-9 20l51 124l352 212zM687 1365q3 -40 19 -103q15 -56 15 -98q0 -62 -34 -98t-94 -36q-72 0 -101 71q-24 -74 -92 -74q-78 0 -112.5 79t-33.5 255l42 3q12 -128 33.5 -174t68.5 -46q65 0 65 68q0 41 -18 149l44 3q20 -83 28 -128 q8 -50 23.5 -68.5t49.5 -18.5q68 0 68 59q0 16 -8 67q-7 41 -9 92z" />
<glyph unicode="&#x651;&#x64f;" horiz-adv-x="0" vert-adv-y="1433" arabic-form="isolated" d="M687 1365q3 -40 19 -103q15 -56 15 -98q0 -62 -34 -98t-94 -36q-72 0 -101 71q-24 -74 -92 -74q-78 0 -112.5 79t-33.5 255l42 3q12 -128 33.5 -174t68.5 -46q65 0 65 68q0 41 -18 149l44 3q20 -83 28 -128q8 -50 23.5 -68.5t49.5 -18.5q68 0 68 59q0 16 -8 67 q-7 41 -9 92zM616 1697l54 -15l-36 -82l-53 14q-38 -71 -100 -116t-179 -89l-6 19l45 107q127 50 189 93q-85 27 -118.5 57.5t-33.5 82.5q0 89 52.5 164.5t114.5 75.5q42 0 67 -47.5t25 -127.5q0 -64 -21 -136zM565 1714q2 16 2 28q0 86 -14.5 123.5t-48.5 37.5 q-28 0 -48.5 -25.5t-20.5 -59.5q0 -58 130 -104z" />
<glyph unicode="&#x651;&#x650;" horiz-adv-x="0" vert-adv-y="1433" arabic-form="isolated" d="M666 1388l-51 -124l-352 -211l-9 20l51 124l352 212zM643 1763q3 -39 19 -103q15 -56 15 -98q0 -62 -34 -98t-94 -36q-73 0 -101 72q-24 -75 -92 -75q-78 0 -112.5 79.5t-33.5 255.5l42 2q12 -127 33.5 -173.5t68.5 -46.5q65 0 65 69q0 40 -18 149l44 2q20 -83 28 -128 q8 -50 23.5 -68.5t49.5 -18.5q68 0 68 59q0 16 -8 67q-7 42 -9 93z" />
<glyph unicode="&#xfedf;&#xfee0;&#x6c1;" horiz-adv-x="2304" vert-adv-y="1433" arabic-form="isolated" d="M554 986l132 138h34q9 -169 12 -233q24 -534 62 -630q26 -64 72 -91t131 -27h118q155 0 221 13q-75 790 -156 912l119 199h40q11 -98 32.5 -148t67.5 -93l-63 -109q5 -54 27 -275q34 -359 53 -417q15 -49 51.5 -65.5t125.5 -16.5h125q152 0 220 13q-72 924 -164 1058 l111 203h46q13 -102 33 -150t68 -92l-63 -109q24 -201 49 -511.5t25 -401.5q0 -57 -20 -85t-74 -44q-79 -24 -313 -24h-85q-126 0 -181 59q-46 -35 -122.5 -47t-253.5 -12h-73q-111 0 -172 25.5t-93 86.5q-48 91 -73 416q-9 117 -13 161q-110 -150 -334 -267 q147 -66 309 -167l-83 -145q-181 119 -367 196l23 116q8 38 16.5 50t42.5 29q238 125 375 327q-10 96 -38 158zM1450 1695q2 -39 19 -103q15 -57 15 -98q0 -62 -34 -98t-93 -36q-74 0 -102 71q-25 -74 -93 -74q-77 0 -111.5 79t-33.5 255l41 4q13 -128 34 -174.5t68 -46.5 q65 0 65 68q0 42 -14 132l-3 17l44 4q20 -83 27 -129q8 -50 24 -68.5t50 -18.5q68 0 68 59q0 16 -8 67q-7 41 -9 92zM1434 2081l-50 -124l-353 -212l-9 21l51 124l352 212z" />
<glyph unicode="&#xfedf;&#xfe82;" horiz-adv-x="1248" vert-adv-y="1433" arabic-form="isolated" d="M268 1566l125 218q136 -61 256 -61q77 0 156 61l33 -25q-78 -98 -124 -129t-112 -31q-90 0 -209 42l-71 -105zM300 0v25l51 144q157 43 282 146t174 230q-208 374 -527 633l32 -63l-32 -33q-86 110 -181 193v44q0 80 -12 193l35 20q433 -375 713 -873q18 107 18 215 q0 142 -26.5 283.5t-63.5 193.5l123 204h40q14 -101 35 -149.5t69 -91.5l-66 -119q1 -55 1 -81q0 -218 -16 -345t-55 -224q7 -14 41 -84q64 -128 64 -205q0 -60 -27.5 -126t-64.5 -96q-27 -22 -59 -26.5t-178 -7.5h-370zM494 143h117q165 0 217.5 5.5t114.5 28.5 q-19 99 -87 262l-6 15q-76 -110 -146.5 -171.5t-209.5 -139.5z" />
<glyph unicode="&#xfee0;&#xfe82;" horiz-adv-x="1347" vert-adv-y="1433" arabic-form="final" d="M1022 187q-31 -110 -98 -158.5t-188 -48.5q-197 0 -351 95q-54 33 -160 133l16 34q222 -111 446 -111q205 0 314 136q-42 198 -219 447t-429 465l32 -64l-32 -33q-84 109 -181 193q2 42 2 64q0 58 -14 173l35 20q199 -178 298.5 -285.5t219.5 -272.5q225 -310 294 -522 q-25 709 -130 903l94 200h39q15 -97 42 -147t87 -94l-82 -95l4 -60l7 -118l9 -134q25 -365 27 -442q4 -193 40 -257q40 -65 179 -65h75l-38 -143h-74q-235 -6 -264 187zM359 1566l124 218q137 -61 256 -61q77 0 157 61l32 -25q-78 -98 -123.5 -129t-112.5 -31q-90 0 -209 42 l-71 -105z" />
<glyph unicode="&#xfedf;&#xfe84;" horiz-adv-x="1248" vert-adv-y="1433" arabic-form="isolated" d="M749 1658l-39 -72q-181 -55 -319 -139l-12 14l38 86l32 18q-84 43 -84 107q0 77 65 139.5t145 62.5q46 0 77 -19.5t31 -48.5q0 -25 -34 -76h-22q-17 53 -90 53q-61 0 -109 -40q5 -82 157 -111q80 32 157 56zM300 0v25l51 144q157 43 282 146t174 230q-208 374 -527 633 l32 -63l-32 -33q-86 110 -181 193v44q0 80 -12 193l35 20q433 -375 713 -873q18 107 18 215q0 142 -26.5 283.5t-63.5 193.5l123 204h40q14 -101 35 -149.5t69 -91.5l-66 -119q1 -55 1 -81q0 -218 -16 -345t-55 -224q7 -14 41 -84q64 -128 64 -205q0 -60 -27.5 -126 t-64.5 -96q-27 -22 -59 -26.5t-178 -7.5h-370zM494 143h117q165 0 217.5 5.5t114.5 28.5q-19 99 -87 262l-6 15q-76 -110 -146.5 -171.5t-209.5 -139.5z" />
<glyph unicode="&#xfee0;&#xfe84;" horiz-adv-x="1347" vert-adv-y="1433" arabic-form="final" d="M1022 187q-31 -110 -98 -158.5t-188 -48.5q-197 0 -351 95q-54 33 -160 133l16 34q222 -111 446 -111q205 0 314 136q-42 198 -219 447t-429 465l32 -64l-32 -33q-84 109 -181 193q2 42 2 64q0 58 -14 173l35 20q199 -178 298.5 -285.5t219.5 -272.5q225 -310 294 -522 q-25 709 -130 903l94 200h39q15 -97 42 -147t87 -94l-82 -95l4 -60l7 -118l9 -134q25 -365 27 -442q4 -193 40 -257q40 -65 179 -65h75l-38 -143h-74q-235 -6 -264 187zM851 1658l-39 -72q-181 -55 -318 -139l-12 14l38 86l32 18q-85 43 -85 107q0 77 65 139.5t146 62.5 q46 0 77 -19.5t31 -48.5q0 -26 -34 -76h-23q-17 53 -89 53q-62 0 -109 -40q4 -82 157 -111q80 32 157 56z" />
<glyph unicode="&#xfedf;&#xfe88;" horiz-adv-x="1248" vert-adv-y="1433" arabic-form="isolated" d="M796 -360l-38 -73q-211 -63 -366 -154l-12 15l38 85l32 19q-84 43 -84 106q0 78 65 140.5t145 62.5q46 0 77 -19.5t31 -48.5q0 -27 -34 -77h-22q-17 54 -90 54q-61 0 -109 -41q5 -82 157 -110q101 38 204 70zM300 0v25l51 144q157 43 282 146t174 230q-208 374 -527 633 l32 -63l-32 -33q-86 110 -181 193v44q0 80 -12 193l35 20q433 -375 713 -873q18 107 18 215q0 142 -26.5 283.5t-63.5 193.5l123 204h40q14 -101 35 -149.5t69 -91.5l-66 -119q1 -55 1 -81q0 -218 -16 -345t-55 -224q7 -14 41 -84q64 -128 64 -205q0 -60 -27.5 -126 t-64.5 -96q-27 -22 -59 -26.5t-178 -7.5h-370zM494 143h117q165 0 217.5 5.5t114.5 28.5q-19 99 -87 262l-6 15q-76 -110 -146.5 -171.5t-209.5 -139.5z" />
<glyph unicode="&#xfee0;&#xfe88;" horiz-adv-x="1347" vert-adv-y="1433" arabic-form="final" d="M1022 187q-31 -110 -98 -158.5t-188 -48.5q-197 0 -351 95q-54 33 -160 133l16 34q222 -111 446 -111q205 0 314 136q-42 198 -219 447t-429 465l32 -64l-32 -33q-84 109 -181 193q2 42 2 64q0 58 -14 173l35 20q199 -178 298.5 -285.5t219.5 -272.5q225 -310 294 -522 q-25 709 -130 903l94 200h39q15 -97 42 -147t87 -94l-82 -95l4 -60l7 -118l9 -134q25 -365 27 -442q4 -193 40 -257q40 -65 179 -65h75l-38 -143h-74q-235 -6 -264 187zM871 -360l-39 -73q-210 -63 -365 -154l-12 15l38 85l32 19q-84 42 -84 106q0 78 65 140.5t145 62.5 q46 0 77 -19.5t31 -48.5q0 -27 -34 -77h-22q-17 54 -90 54q-61 0 -109 -41q5 -82 157 -110q101 38 204 70z" />
<glyph unicode="&#xfedf;&#xfe8e;" horiz-adv-x="1248" vert-adv-y="1433" arabic-form="isolated" d="M300 0v25l51 144q157 43 282 146t174 230q-208 374 -527 633l32 -63l-32 -33q-86 110 -181 193v44q0 80 -12 193l35 20q433 -375 713 -873q18 107 18 215q0 142 -26.5 283.5t-63.5 193.5l123 204h40q14 -101 35 -149.5t69 -91.5l-66 -119q1 -55 1 -81q0 -218 -16 -345 t-55 -224q7 -14 41 -84q64 -128 64 -205q0 -60 -27.5 -126t-64.5 -96q-27 -22 -59 -26.5t-178 -7.5h-370zM494 143h117q165 0 217.5 5.5t114.5 28.5q-19 99 -87 262l-6 15q-76 -110 -146.5 -171.5t-209.5 -139.5z" />
<glyph unicode="&#xfee0;&#xfe8e;" horiz-adv-x="1347" vert-adv-y="1433" arabic-form="final" d="M1022 187q-31 -110 -98 -158.5t-188 -48.5q-197 0 -351 95q-54 33 -160 133l16 34q222 -111 446 -111q205 0 314 136q-42 198 -219 447t-429 465l32 -64l-32 -33q-84 109 -181 193q2 42 2 64q0 58 -14 173l35 20q199 -178 298.5 -285.5t219.5 -272.5q225 -310 294 -522 q-25 709 -130 903l94 200h39q15 -97 42 -147t87 -94l-82 -95l4 -60l7 -118l9 -134q25 -365 27 -442q4 -193 40 -257q40 -65 179 -65h75l-38 -143h-74q-235 -6 -264 187z" />
<glyph unicode="&#x671;" vert-adv-y="1433" arabic-form="isolated" d="M513 1374l134 -134l-134 -134l-135 134z" />
<glyph unicode="&#x671;" vert-adv-y="1433" arabic-form="final" d="M513 1374l134 -134l-134 -134l-135 134z" />
<glyph unicode="&#x67b;" vert-adv-y="1433" arabic-form="isolated" d="M513 1374l134 -134l-134 -134l-135 134z" />
<glyph unicode="&#x67b;" vert-adv-y="1433" arabic-form="final" d="M513 1374l134 -134l-134 -134l-135 134z" />
<glyph unicode="&#x67b;" vert-adv-y="1433" arabic-form="initial" d="M513 1374l134 -134l-134 -134l-135 134z" />
<glyph unicode="&#x67b;" vert-adv-y="1433" arabic-form="medial" d="M513 1374l134 -134l-134 -134l-135 134z" />
<glyph unicode="&#x67e;" horiz-adv-x="1948" vert-adv-y="1433" arabic-form="isolated" d="M974 -265l124 123l126 -126l-126 -125l-124 123l-123 -123l-126 125l126 126zM974 -628l-127 127l127 126l128 -126zM324 628l27 -12q-65 -127 -65 -246q0 -142 132 -204q133 -62 447 -62q357 0 598 46q129 25 190 70q-13 175 -165 373l62 157l44 18q160 -239 160 -440 q0 -110 -71 -194t-190 -114q-107 -26 -300 -43.5t-384 -17.5q-340 0 -490 78q-125 65 -125 224q0 170 130 367z" />
<glyph unicode="&#x67e;" horiz-adv-x="2011" vert-adv-y="1433" arabic-form="final" d="M980 -265l124 123l125 -126l-125 -125l-124 123l-123 -123l-126 125l126 126zM980 -628l-127 127l127 126l128 -126zM2018 0h-73q-95 0 -146.5 32t-87.5 113q-68 -92 -197 -126q-98 -25 -298.5 -42.5t-403.5 -17.5q-353 0 -489 76q-129 72 -129 225q0 170 130 368l27 -13 q-65 -126 -65 -245q0 -164 181 -223q133 -44 432 -44q274 0 478 22.5t276 61.5q-6 197 -165 406l62 157l44 17q114 -167 167 -428q25 -115 73.5 -155.5t159.5 -40.5h61z" />
<glyph unicode="&#x67e;" horiz-adv-x="689" vert-adv-y="1433" arabic-form="initial" d="M-45 0l37 143h33q271 0 370 49q-12 195 -166 401l62 157l44 17q160 -249 160 -465q0 -104 -55 -175.5t-159 -100.5q-89 -26 -283 -26h-43zM252 -265l124 123l125 -126l-125 -125l-124 123l-123 -123l-126 125l126 126zM252 -628l-127 127l127 126l127 -126z" />
<glyph unicode="&#x67e;" horiz-adv-x="749" vert-adv-y="1433" arabic-form="medial" d="M252 -265l124 123l125 -126l-125 -125l-124 123l-123 -123l-126 125l126 126zM252 -628l-127 127l127 126l127 -126zM-45 0l37 143h23q276 0 380 49q-1 87 -46 196t-120 205l62 157l44 17q113 -165 152 -360q32 -155 66 -201q45 -63 181 -63h62l-37 -143h-73 q-98 0 -152.5 34t-80.5 110q-34 -80 -123 -111q-94 -33 -342 -33h-33z" />
<glyph unicode="&#x680;" vert-adv-y="1433" arabic-form="isolated" d="M513 1374l134 -134l-134 -134l-135 134z" />
<glyph unicode="&#x680;" vert-adv-y="1433" arabic-form="final" d="M513 1374l134 -134l-134 -134l-135 134z" />
<glyph unicode="&#x680;" vert-adv-y="1433" arabic-form="initial" d="M513 1374l134 -134l-134 -134l-135 134z" />
<glyph unicode="&#x680;" vert-adv-y="1433" arabic-form="medial" d="M513 1374l134 -134l-134 -134l-135 134z" />
<glyph unicode="&#x67a;" vert-adv-y="1433" arabic-form="isolated" d="M513 1374l134 -134l-134 -134l-135 134z" />
<glyph unicode="&#x67a;" vert-adv-y="1433" arabic-form="final" d="M513 1374l134 -134l-134 -134l-135 134z" />
<glyph unicode="&#x67a;" vert-adv-y="1433" arabic-form="initial" d="M513 1374l134 -134l-134 -134l-135 134z" />
<glyph unicode="&#x67a;" vert-adv-y="1433" arabic-form="medial" d="M513 1374l134 -134l-134 -134l-135 134z" />
<glyph unicode="&#x67f;" vert-adv-y="1433" arabic-form="isolated" d="M513 1374l134 -134l-134 -134l-135 134z" />
<glyph unicode="&#x67f;" vert-adv-y="1433" arabic-form="final" d="M513 1374l134 -134l-134 -134l-135 134z" />
<glyph unicode="&#x67f;" vert-adv-y="1433" arabic-form="initial" d="M513 1374l134 -134l-134 -134l-135 134z" />
<glyph unicode="&#x67f;" vert-adv-y="1433" arabic-form="medial" d="M513 1374l134 -134l-134 -134l-135 134z" />
<glyph unicode="&#x679;" vert-adv-y="1433" arabic-form="isolated" d="M513 1374l134 -134l-134 -134l-135 134z" />
<glyph unicode="&#x679;" vert-adv-y="1433" arabic-form="final" d="M513 1374l134 -134l-134 -134l-135 134z" />
<glyph unicode="&#x679;" vert-adv-y="1433" arabic-form="initial" d="M513 1374l134 -134l-134 -134l-135 134z" />
<glyph unicode="&#x679;" vert-adv-y="1433" arabic-form="medial" d="M513 1374l134 -134l-134 -134l-135 134z" />
<glyph unicode="&#x6a4;" horiz-adv-x="2309" vert-adv-y="1433" arabic-form="isolated" d="M1737 1178l-124 -123l-126 125l126 126l124 -124l123 124l126 -126l-126 -125zM1737 1540l127 -126l-127 -126l-128 126zM343 654l24 -12q-81 -140 -81 -271q0 -168 200 -227q126 -38 462 -38q233 0 529.5 14.5t394.5 30.5q136 23 156 119q-150 1 -261 33 q-213 60 -213 215q0 99 73 227q99 175 212 175q112 0 196.5 -141.5t84.5 -328.5q0 -339 -215 -427q-147 -61 -914 -61q-275 0 -410 12.5t-219 45.5q-168 66 -168 244q0 180 149 390zM2026 429q-26 150 -97.5 245.5t-158.5 95.5q-54 0 -89.5 -33t-35.5 -83q0 -193 381 -225z " />
<glyph unicode="&#x6a4;" horiz-adv-x="2361" vert-adv-y="1433" arabic-form="final" d="M1873 74q-102 -47 -184 -63q-244 -49 -701 -49q-427 0 -573 58q-168 66 -168 243q0 180 149 390l24 -11q-81 -140 -81 -272q0 -168 200 -228q126 -37 446 -37q479 0 727 38q-173 119 -173 290q0 146 124 295q114 136 223 136q108 0 181 -153q54 -114 54 -236 q0 -179 -105 -298q134 -34 328 -34h62l-37 -143h-63q-234 0 -433 74zM1937 207q82 63 82 166q0 109 -57 228q-55 113 -140 113q-79 0 -135 -56.5t-56 -135.5q0 -176 306 -315zM1811 1191l-123 -123l-126 125l126 126l123 -124l124 124l126 -126l-126 -125zM1811 1554 l128 -127l-128 -126l-127 126z" />
<glyph unicode="&#x6a4;" horiz-adv-x="950" vert-adv-y="1433" arabic-form="initial" d="M435 1178l-123 -123l-126 125l126 126l123 -124l124 124l126 -126l-126 -125zM435 1540l128 -126l-128 -126l-127 126zM-45 0l37 143h140q291 0 404 26.5t130 99.5q-149 2 -261 34q-212 60 -212 215q0 128 96 264.5t187 136.5q113 0 197.5 -141t84.5 -328 q0 -288 -172 -387q-111 -63 -489 -63h-142zM664 428q-26 150 -97.5 245.5t-157.5 95.5q-55 0 -90 -33t-35 -83q0 -192 380 -225z" />
<glyph unicode="&#x6a4;" horiz-adv-x="1037" vert-adv-y="1433" arabic-form="medial" d="M487 1191l-124 -123l-126 125l126 126l124 -124l123 124l126 -126l-126 -125zM487 1554l127 -127l-127 -126l-127 126zM-45 0l37 143h396q-174 121 -174 291q0 145 124 294q114 136 224 136q107 0 180 -153q54 -113 54 -237q0 -179 -104 -297q134 -34 327 -34h63 l-38 -143h-63q-226 0 -427 71q-86 -45 -156.5 -58t-234.5 -13h-208zM612 207q82 63 82 166q0 109 -57 228q-55 113 -141 113q-78 0 -134 -56.5t-56 -135.5q0 -176 306 -315z" />
<glyph unicode="&#x6a6;" vert-adv-y="1433" arabic-form="isolated" d="M513 1374l134 -134l-134 -134l-135 134z" />
<glyph unicode="&#x6a6;" vert-adv-y="1433" arabic-form="final" d="M513 1374l134 -134l-134 -134l-135 134z" />
<glyph unicode="&#x6a6;" vert-adv-y="1433" arabic-form="initial" d="M513 1374l134 -134l-134 -134l-135 134z" />
<glyph unicode="&#x6a6;" vert-adv-y="1433" arabic-form="medial" d="M513 1374l134 -134l-134 -134l-135 134z" />
<glyph unicode="&#x684;" vert-adv-y="1433" arabic-form="isolated" d="M513 1374l134 -134l-134 -134l-135 134z" />
<glyph unicode="&#x684;" vert-adv-y="1433" arabic-form="final" d="M513 1374l134 -134l-134 -134l-135 134z" />
<glyph unicode="&#x684;" vert-adv-y="1433" arabic-form="initial" d="M513 1374l134 -134l-134 -134l-135 134z" />
<glyph unicode="&#x684;" vert-adv-y="1433" arabic-form="medial" d="M513 1374l134 -134l-134 -134l-135 134z" />
<glyph unicode="&#x683;" vert-adv-y="1433" arabic-form="isolated" d="M513 1374l134 -134l-134 -134l-135 134z" />
<glyph unicode="&#x683;" vert-adv-y="1433" arabic-form="final" d="M513 1374l134 -134l-134 -134l-135 134z" />
<glyph unicode="&#x683;" vert-adv-y="1433" arabic-form="initial" d="M513 1374l134 -134l-134 -134l-135 134z" />
<glyph unicode="&#x683;" vert-adv-y="1433" arabic-form="medial" d="M513 1374l134 -134l-134 -134l-135 134z" />
<glyph unicode="&#x686;" vert-adv-y="1433" arabic-form="isolated" d="M513 1374l134 -134l-134 -134l-135 134z" />
<glyph unicode="&#x686;" vert-adv-y="1433" arabic-form="final" d="M513 1374l134 -134l-134 -134l-135 134z" />
<glyph unicode="&#x686;" vert-adv-y="1433" arabic-form="initial" d="M513 1374l134 -134l-134 -134l-135 134z" />
<glyph unicode="&#x686;" vert-adv-y="1433" arabic-form="medial" d="M513 1374l134 -134l-134 -134l-135 134z" />
<glyph unicode="&#x687;" vert-adv-y="1433" arabic-form="isolated" d="M513 1374l134 -134l-134 -134l-135 134z" />
<glyph unicode="&#x687;" vert-adv-y="1433" arabic-form="final" d="M513 1374l134 -134l-134 -134l-135 134z" />
<glyph unicode="&#x687;" vert-adv-y="1433" arabic-form="initial" d="M513 1374l134 -134l-134 -134l-135 134z" />
<glyph unicode="&#x687;" vert-adv-y="1433" arabic-form="medial" d="M513 1374l134 -134l-134 -134l-135 134z" />
<glyph unicode="&#x68d;" vert-adv-y="1433" arabic-form="isolated" d="M513 1374l134 -134l-134 -134l-135 134z" />
<glyph unicode="&#x68d;" vert-adv-y="1433" arabic-form="final" d="M513 1374l134 -134l-134 -134l-135 134z" />
<glyph unicode="&#x68c;" vert-adv-y="1433" arabic-form="isolated" d="M513 1374l134 -134l-134 -134l-135 134z" />
<glyph unicode="&#x68c;" vert-adv-y="1433" arabic-form="final" d="M513 1374l134 -134l-134 -134l-135 134z" />
<glyph unicode="&#x68e;" vert-adv-y="1433" arabic-form="isolated" d="M513 1374l134 -134l-134 -134l-135 134z" />
<glyph unicode="&#x68e;" vert-adv-y="1433" arabic-form="final" d="M513 1374l134 -134l-134 -134l-135 134z" />
<glyph unicode="&#x688;" vert-adv-y="1433" arabic-form="isolated" d="M513 1374l134 -134l-134 -134l-135 134z" />
<glyph unicode="&#x688;" vert-adv-y="1433" arabic-form="final" d="M513 1374l134 -134l-134 -134l-135 134z" />
<glyph unicode="&#x698;" vert-adv-y="1433" arabic-form="isolated" d="M513 1374l134 -134l-134 -134l-135 134z" />
<glyph unicode="&#x698;" vert-adv-y="1433" arabic-form="final" d="M513 1374l134 -134l-134 -134l-135 134z" />
<glyph unicode="&#x691;" vert-adv-y="1433" arabic-form="isolated" d="M513 1374l134 -134l-134 -134l-135 134z" />
<glyph unicode="&#x691;" vert-adv-y="1433" arabic-form="final" d="M513 1374l134 -134l-134 -134l-135 134z" />
<glyph unicode="&#x6a9;" vert-adv-y="1433" arabic-form="isolated" d="M513 1374l134 -134l-134 -134l-135 134z" />
<glyph unicode="&#x6a9;" vert-adv-y="1433" arabic-form="final" d="M513 1374l134 -134l-134 -134l-135 134z" />
<glyph unicode="&#x6a9;" vert-adv-y="1433" arabic-form="initial" d="M513 1374l134 -134l-134 -134l-135 134z" />
<glyph unicode="&#x6a9;" vert-adv-y="1433" arabic-form="medial" d="M513 1374l134 -134l-134 -134l-135 134z" />
<glyph unicode="&#x6af;" vert-adv-y="1433" arabic-form="isolated" d="M513 1374l134 -134l-134 -134l-135 134z" />
<glyph unicode="&#x6af;" vert-adv-y="1433" arabic-form="final" d="M513 1374l134 -134l-134 -134l-135 134z" />
<glyph unicode="&#x6af;" vert-adv-y="1433" arabic-form="initial" d="M513 1374l134 -134l-134 -134l-135 134z" />
<glyph unicode="&#x6af;" vert-adv-y="1433" arabic-form="medial" d="M513 1374l134 -134l-134 -134l-135 134z" />
<glyph unicode="&#x6b3;" vert-adv-y="1433" arabic-form="isolated" d="M513 1374l134 -134l-134 -134l-135 134z" />
<glyph unicode="&#x6b3;" vert-adv-y="1433" arabic-form="final" d="M513 1374l134 -134l-134 -134l-135 134z" />
<glyph unicode="&#x6b3;" vert-adv-y="1433" arabic-form="initial" d="M513 1374l134 -134l-134 -134l-135 134z" />
<glyph unicode="&#x6b3;" vert-adv-y="1433" arabic-form="medial" d="M513 1374l134 -134l-134 -134l-135 134z" />
<glyph unicode="&#x6b1;" vert-adv-y="1433" arabic-form="isolated" d="M513 1374l134 -134l-134 -134l-135 134z" />
<glyph unicode="&#x6b1;" vert-adv-y="1433" arabic-form="final" d="M513 1374l134 -134l-134 -134l-135 134z" />
<glyph unicode="&#x6b1;" vert-adv-y="1433" arabic-form="initial" d="M513 1374l134 -134l-134 -134l-135 134z" />
<glyph unicode="&#x6b1;" vert-adv-y="1433" arabic-form="medial" d="M513 1374l134 -134l-134 -134l-135 134z" />
<glyph unicode="&#x6ba;" vert-adv-y="1433" arabic-form="isolated" d="M513 1374l134 -134l-134 -134l-135 134z" />
<glyph unicode="&#x6ba;" vert-adv-y="1433" arabic-form="final" d="M513 1374l134 -134l-134 -134l-135 134z" />
<glyph unicode="&#x6bb;" vert-adv-y="1433" arabic-form="isolated" d="M513 1374l134 -134l-134 -134l-135 134z" />
<glyph unicode="&#x6bb;" vert-adv-y="1433" arabic-form="final" d="M513 1374l134 -134l-134 -134l-135 134z" />
<glyph unicode="&#x6bb;" vert-adv-y="1433" arabic-form="initial" d="M513 1374l134 -134l-134 -134l-135 134z" />
<glyph unicode="&#x6bb;" vert-adv-y="1433" arabic-form="medial" d="M513 1374l134 -134l-134 -134l-135 134z" />
<glyph unicode="&#x6c0;" vert-adv-y="1433" arabic-form="isolated" d="M513 1374l134 -134l-134 -134l-135 134z" />
<glyph unicode="&#x6c0;" vert-adv-y="1433" arabic-form="final" d="M513 1374l134 -134l-134 -134l-135 134z" />
<glyph unicode="&#x6c1;" vert-adv-y="1433" arabic-form="isolated" d="M513 1374l134 -134l-134 -134l-135 134z" />
<glyph unicode="&#x6c1;" vert-adv-y="1433" arabic-form="final" d="M513 1374l134 -134l-134 -134l-135 134z" />
<glyph unicode="&#x6c1;" vert-adv-y="1433" arabic-form="initial" d="M513 1374l134 -134l-134 -134l-135 134z" />
<glyph unicode="&#x6c1;" vert-adv-y="1433" arabic-form="medial" d="M513 1374l134 -134l-134 -134l-135 134z" />
<glyph unicode="&#x6be;" vert-adv-y="1433" arabic-form="isolated" d="M513 1374l134 -134l-134 -134l-135 134z" />
<glyph unicode="&#x6be;" vert-adv-y="1433" arabic-form="final" d="M513 1374l134 -134l-134 -134l-135 134z" />
<glyph unicode="&#x6be;" vert-adv-y="1433" arabic-form="initial" d="M513 1374l134 -134l-134 -134l-135 134z" />
<glyph unicode="&#x6be;" vert-adv-y="1433" arabic-form="medial" d="M513 1374l134 -134l-134 -134l-135 134z" />
<glyph unicode="&#x6d2;" vert-adv-y="1433" arabic-form="isolated" d="M513 1374l134 -134l-134 -134l-135 134z" />
<glyph unicode="&#x6d2;" vert-adv-y="1433" arabic-form="final" d="M513 1374l134 -134l-134 -134l-135 134z" />
<glyph unicode="&#x6d3;" vert-adv-y="1433" arabic-form="isolated" d="M513 1374l134 -134l-134 -134l-135 134z" />
<glyph unicode="&#x6d3;" vert-adv-y="1433" arabic-form="final" d="M513 1374l134 -134l-134 -134l-135 134z" />
<glyph unicode="&#x6ad;" vert-adv-y="1433" arabic-form="isolated" d="M513 1374l134 -134l-134 -134l-135 134z" />
<glyph unicode="&#x6ad;" vert-adv-y="1433" arabic-form="final" d="M513 1374l134 -134l-134 -134l-135 134z" />
<glyph unicode="&#x6ad;" vert-adv-y="1433" arabic-form="initial" d="M513 1374l134 -134l-134 -134l-135 134z" />
<glyph unicode="&#x6ad;" vert-adv-y="1433" arabic-form="medial" d="M513 1374l134 -134l-134 -134l-135 134z" />
<glyph unicode="&#x6c7;" vert-adv-y="1433" arabic-form="isolated" d="M513 1374l134 -134l-134 -134l-135 134z" />
<glyph unicode="&#x6c7;" vert-adv-y="1433" arabic-form="final" d="M513 1374l134 -134l-134 -134l-135 134z" />
<glyph unicode="&#x6c6;" vert-adv-y="1433" arabic-form="isolated" d="M513 1374l134 -134l-134 -134l-135 134z" />
<glyph unicode="&#x6c6;" vert-adv-y="1433" arabic-form="final" d="M513 1374l134 -134l-134 -134l-135 134z" />
<glyph unicode="&#x6c8;" vert-adv-y="1433" arabic-form="isolated" d="M513 1374l134 -134l-134 -134l-135 134z" />
<glyph unicode="&#x6c8;" vert-adv-y="1433" arabic-form="final" d="M513 1374l134 -134l-134 -134l-135 134z" />
<glyph unicode="&#x677;" vert-adv-y="1433" arabic-form="isolated" d="M513 1374l134 -134l-134 -134l-135 134z" />
<glyph unicode="&#x6cb;" vert-adv-y="1433" arabic-form="isolated" d="M513 1374l134 -134l-134 -134l-135 134z" />
<glyph unicode="&#x6cb;" vert-adv-y="1433" arabic-form="final" d="M513 1374l134 -134l-134 -134l-135 134z" />
<glyph unicode="&#x6c5;" vert-adv-y="1433" arabic-form="isolated" d="M513 1374l134 -134l-134 -134l-135 134z" />
<glyph unicode="&#x6c5;" vert-adv-y="1433" arabic-form="final" d="M513 1374l134 -134l-134 -134l-135 134z" />
<glyph unicode="&#x6c9;" vert-adv-y="1433" arabic-form="isolated" d="M513 1374l134 -134l-134 -134l-135 134z" />
<glyph unicode="&#x6c9;" vert-adv-y="1433" arabic-form="final" d="M513 1374l134 -134l-134 -134l-135 134z" />
<glyph unicode="&#x6d0;" vert-adv-y="1433" arabic-form="isolated" d="M513 1374l134 -134l-134 -134l-135 134z" />
<glyph unicode="&#x6d0;" vert-adv-y="1433" arabic-form="final" d="M513 1374l134 -134l-134 -134l-135 134z" />
<glyph unicode="&#x6d0;" vert-adv-y="1433" arabic-form="initial" d="M513 1374l134 -134l-134 -134l-135 134z" />
<glyph unicode="&#x6d0;" vert-adv-y="1433" arabic-form="medial" d="M513 1374l134 -134l-134 -134l-135 134z" />
<glyph unicode="&#x649;" horiz-adv-x="689" vert-adv-y="1433" arabic-form="initial" d="M-45 0l37 143h33q271 0 370 49q-12 195 -166 401l62 157l44 17q160 -249 160 -465q0 -104 -55 -175.5t-159 -100.5q-89 -26 -283 -26h-43z" />
<glyph unicode="&#x649;" horiz-adv-x="751" vert-adv-y="1433" arabic-form="medial" d="M-45 0l37 143h23q276 0 380 49q-1 87 -46 196t-120 205l62 157l44 17q113 -165 152 -360q32 -155 66 -201q45 -63 181 -63h62l-37 -143h-73q-98 0 -152.5 34t-80.5 110q-34 -80 -123 -111q-94 -33 -342 -33h-33z" />
<glyph unicode="&#xfbea;" vert-adv-y="1433" arabic-form="isolated" d="M513 1374l134 -134l-134 -134l-135 134z" />
<glyph unicode="&#xfbeb;" vert-adv-y="1433" arabic-form="final" d="M513 1374l134 -134l-134 -134l-135 134z" />
<glyph unicode="&#xfbec;" vert-adv-y="1433" arabic-form="isolated" d="M513 1374l134 -134l-134 -134l-135 134z" />
<glyph unicode="&#xfbed;" vert-adv-y="1433" arabic-form="final" d="M513 1374l134 -134l-134 -134l-135 134z" />
<glyph unicode="&#xfbee;" vert-adv-y="1433" arabic-form="isolated" d="M513 1374l134 -134l-134 -134l-135 134z" />
<glyph unicode="&#xfbef;" vert-adv-y="1433" arabic-form="final" d="M513 1374l134 -134l-134 -134l-135 134z" />
<glyph unicode="&#xfbf0;" vert-adv-y="1433" arabic-form="isolated" d="M513 1374l134 -134l-134 -134l-135 134z" />
<glyph unicode="&#xfbf1;" vert-adv-y="1433" arabic-form="final" d="M513 1374l134 -134l-134 -134l-135 134z" />
<glyph unicode="&#xfbf2;" vert-adv-y="1433" arabic-form="isolated" d="M513 1374l134 -134l-134 -134l-135 134z" />
<glyph unicode="&#xfbf3;" vert-adv-y="1433" arabic-form="final" d="M513 1374l134 -134l-134 -134l-135 134z" />
<glyph unicode="&#xfbf4;" vert-adv-y="1433" arabic-form="isolated" d="M513 1374l134 -134l-134 -134l-135 134z" />
<glyph unicode="&#xfbf5;" vert-adv-y="1433" arabic-form="final" d="M513 1374l134 -134l-134 -134l-135 134z" />
<glyph unicode="&#xfbf6;" vert-adv-y="1433" arabic-form="isolated" d="M513 1374l134 -134l-134 -134l-135 134z" />
<glyph unicode="&#xfbf7;" vert-adv-y="1433" arabic-form="final" d="M513 1374l134 -134l-134 -134l-135 134z" />
<glyph unicode="&#xfbf8;" vert-adv-y="1433" arabic-form="initial" d="M513 1374l134 -134l-134 -134l-135 134z" />
<glyph unicode="&#xfbf9;" vert-adv-y="1433" arabic-form="isolated" d="M513 1374l134 -134l-134 -134l-135 134z" />
<glyph unicode="&#xfbfa;" vert-adv-y="1433" arabic-form="final" d="M513 1374l134 -134l-134 -134l-135 134z" />
<glyph unicode="&#xfbfb;" vert-adv-y="1433" arabic-form="initial" d="M513 1374l134 -134l-134 -134l-135 134z" />
<glyph unicode="&#x6cc;" vert-adv-y="1433" arabic-form="isolated" d="M513 1374l134 -134l-134 -134l-135 134z" />
<glyph unicode="&#x6cc;" vert-adv-y="1433" arabic-form="final" d="M513 1374l134 -134l-134 -134l-135 134z" />
<glyph unicode="&#x6cc;" vert-adv-y="1433" arabic-form="initial" d="M513 1374l134 -134l-134 -134l-135 134z" />
<glyph unicode="&#x6cc;" vert-adv-y="1433" arabic-form="medial" d="M513 1374l134 -134l-134 -134l-135 134z" />
<glyph unicode="&#xfe70;" horiz-adv-x="0" vert-adv-y="1433" arabic-form="isolated" d="M645 1236l-51 -122l-352 -208l-9 20l51 122l352 208zM674 1472l-51 -122l-352 -208l-9 20l51 122l352 208z" />
<glyph unicode="&#xfe71;" horiz-adv-x="786" vert-adv-y="1433" arabic-form="medial" d="M586 992l-54 -126l-352 -209l-9 20l54 127l352 208zM615 1232l-54 -126l-352 -208l-9 20l54 126l352 209zM831 143l-37 -143h-839l37 143h839z" />
<glyph unicode="&#xfe72;" horiz-adv-x="0" vert-adv-y="1433" arabic-form="isolated" d="M607 1251l49 -17l-40 -80l-41 14q-47 -83 -100.5 -117.5t-174.5 -61.5l-37 18q5 44 5 72q0 151 -69 151q-26 0 -65 -16l-10 92q56 22 86 22q52 0 81.5 -53t29.5 -146q0 -15 -1 -33q74 11 111 27.5t90 63.5q-83 24 -118 54.5t-35 77.5q0 87 54 167.5t112 80.5 q43 0 68.5 -47t25.5 -125q0 -62 -21 -144zM554 1272q4 27 4 50q0 131 -57 131q-26 0 -45.5 -26t-19.5 -61q0 -27 21.5 -44t96.5 -50z" />
<glyph unicode="&#xfe74;" horiz-adv-x="0" vert-adv-y="1433" arabic-form="isolated" d="M645 -396l-51 -122l-352 -208l-9 20l51 121l352 209zM674 -160l-51 -122l-352 -209l-9 20l51 122l352 209z" />
<glyph unicode="&#xfe76;" horiz-adv-x="0" vert-adv-y="1433" arabic-form="isolated" d="M641 1393l-51 -122l-352 -208l-9 20l51 121l352 209z" />
<glyph unicode="&#xfe77;" horiz-adv-x="786" vert-adv-y="1433" arabic-form="medial" d="M600 1138l-53 -126l-352 -209l-9 20l53 127l352 208zM831 143l-37 -143h-839l37 143h839z" />
<glyph unicode="&#xfe78;" horiz-adv-x="0" vert-adv-y="1433" arabic-form="isolated" d="M653 1281l54 -15l-36 -83l-53 14q-38 -70 -99.5 -115.5t-179.5 -89.5l-5 19l45 107q127 50 189 93q-86 27 -119.5 58t-33.5 83q0 89 52.5 164.5t115.5 75.5q42 0 67 -48t25 -128q0 -61 -22 -135zM603 1297q2 17 2 30q0 85 -15 122.5t-49 37.5q-28 0 -48.5 -25.5 t-20.5 -60.5q0 -59 131 -104z" />
<glyph unicode="&#xfe79;" horiz-adv-x="786" vert-adv-y="1433" arabic-form="medial" d="M831 143l-37 -143h-839l37 143h839zM525 1035l55 -15l-36 -83l-54 14q-37 -70 -99 -115.5t-179 -89.5l-6 19l45 108q127 49 189 92q-85 27 -118.5 58t-33.5 83q0 89 52.5 164.5t114.5 75.5q42 0 67 -47.5t25 -127.5q0 -64 -22 -136zM475 1051q2 16 2 28q0 87 -14.5 124.5 t-48.5 37.5q-28 0 -48.5 -25.5t-20.5 -60.5q0 -58 130 -104z" />
<glyph unicode="&#xfe7a;" horiz-adv-x="0" vert-adv-y="1433" arabic-form="isolated" d="M653 -169l-51 -122l-352 -208l-9 20l51 122l352 208z" />
<glyph unicode="&#xfe7b;" horiz-adv-x="786" vert-adv-y="1433" arabic-form="medial" d="M599 -169l-51 -122l-352 -208l-9 20l51 122l352 208zM831 143l-37 -143h-839l37 143h839z" />
<glyph unicode="&#xfe7c;" horiz-adv-x="0" vert-adv-y="1433" arabic-form="isolated" d="M687 1365q3 -40 19 -103q15 -56 15 -98q0 -62 -34 -98t-94 -36q-72 0 -101 71q-24 -74 -92 -74q-78 0 -112.5 79t-33.5 255l42 3q12 -128 33.5 -174t68.5 -46q65 0 65 68q0 41 -18 149l44 3q20 -83 28 -128q8 -50 23.5 -68.5t49.5 -18.5q68 0 68 59q0 16 -8 67 q-7 41 -9 92z" />
<glyph unicode="&#xfe7d;" horiz-adv-x="786" vert-adv-y="1433" arabic-form="medial" d="M831 143l-37 -143h-839l37 143h839zM592 1119q3 -39 20 -103q15 -57 15 -98q0 -62 -34 -98t-94 -36q-73 0 -101 71q-25 -74 -93 -74q-77 0 -112 79t-34 255l42 4q12 -128 33.5 -174.5t68.5 -46.5q65 0 65 69q0 43 -17 148l44 4q20 -83 27 -129q8 -49 24 -68t50 -19 q68 0 68 59q0 17 -9 67q-6 41 -8 92z" />
<glyph unicode="&#xfe7e;" horiz-adv-x="0" vert-adv-y="1433" arabic-form="isolated" d="M467 1438q58 0 119 -56t61 -110q0 -78 -59 -168q-58 -87 -168 -87q-69 0 -112 35.5t-43 91.5q0 71 68 183q67 111 134 111zM340 1279q3 -155 125 -155q58 0 107 41q-8 64 -56.5 113.5t-103.5 49.5q-44 0 -72 -49z" />
<glyph unicode="&#xfe7f;" horiz-adv-x="786" vert-adv-y="1433" arabic-form="medial" d="M831 143l-37 -143h-839l37 143h839zM404 1192q58 0 119 -56t61 -110q0 -78 -59 -168q-58 -87 -168 -87q-69 0 -112 35.5t-43 92.5q0 70 68 182q67 111 134 111zM277 1033q5 -155 125 -155q58 0 107 41q-8 64 -56.5 113.5t-103.5 49.5q-44 0 -72 -49z" />
<glyph unicode="&#x621;" horiz-adv-x="614" vert-adv-y="1433" arabic-form="isolated" d="M663 459l-53 -109q-271 -84 -522 -238l-12 14l55 108l64 40q-138 63 -138 169q0 108 83 203q93 108 217 108q63 0 106 -27.5t43 -67.5q0 -42 -46 -115h-23q-34 84 -137 84q-89 0 -169 -71q-1 -138 242 -189q179 73 286 108z" />
<glyph unicode="&#x622;" horiz-adv-x="632" vert-adv-y="1433" arabic-form="isolated" d="M-23 1431l124 218q137 -61 256 -61q78 0 157 61l33 -25q-80 -99 -125 -129.5t-112 -30.5q-86 0 -209 42l-71 -105zM372 111l-52 -127h-31q6 73 6 165q0 246 -70 691q-27 171 -78 275l111 203h45q13 -100 33.5 -149t67.5 -93l-62 -109q35 -248 35 -691q0 -80 -5 -165z" />
<glyph unicode="&#x622;" horiz-adv-x="634" vert-adv-y="1433" arabic-form="final" d="M642 0h-71q-175 0 -219 48q-27 31 -37 88.5t-20 248.5l-9 146l-6 96q-20 302 -36.5 384.5t-69.5 134.5l88 163l44 10q55 -130 68 -241t20 -522q4 -276 40 -344.5t175 -68.5h70zM-23 1431l124 218q137 -61 256 -61q78 0 157 61l33 -25q-80 -99 -125 -129.5t-112 -30.5 q-86 0 -209 42l-71 -105z" />
<glyph unicode="&#x623;" horiz-adv-x="632" vert-adv-y="1433" arabic-form="isolated" d="M371 111l-52 -127h-31q6 71 6 162q0 249 -70 694q-27 172 -78 275l111 203h46q13 -102 33 -150t67 -92l-62 -109q35 -247 35 -689q0 -81 -5 -167zM444 1555l-39 -73q-210 -63 -366 -154l-12 15l38 85l32 19q-84 43 -84 106q0 78 65 140.5t146 62.5q46 0 77 -19.5 t31 -48.5q0 -27 -35 -77h-22q-17 54 -90 54q-61 0 -109 -41q5 -82 158 -110q100 38 203 70z" />
<glyph unicode="&#x623;" horiz-adv-x="634" vert-adv-y="1433" arabic-form="final" d="M641 0h-71q-175 0 -219 48q-27 31 -36.5 88.5t-20.5 248.5l-9 146l-6 96q-20 302 -36.5 384.5t-69.5 134.5l89 163l43 10q55 -130 68 -241t20 -522q5 -276 40.5 -344.5t175.5 -68.5h69zM444 1555l-39 -73q-210 -63 -366 -154l-12 15l38 85l32 19q-84 43 -84 106 q0 78 65 140.5t146 62.5q46 0 77 -19.5t31 -48.5q0 -27 -35 -77h-22q-17 54 -90 54q-61 0 -109 -41q5 -82 158 -110q100 38 203 70z" />
<glyph unicode="&#x624;" horiz-adv-x="1155" vert-adv-y="1433" arabic-form="isolated" d="M829 -37q-152 6 -275 40q-104 29 -148.5 72t-44.5 116q0 122 103 272q92 134 192 134q105 0 192 -140q83 -135 83 -311q0 -127 -50 -265t-133 -243q-194 -241 -482 -241q-238 0 -335 189q-30 58 -54 170l30 20q69 -90 124 -139q112 -101 278 -101q122 0 235.5 57 t191.5 157q80 103 93 213zM835 115q-23 144 -93.5 238.5t-156.5 94.5q-54 0 -92 -39.5t-38 -95.5q0 -99 152 -151q101 -35 228 -47zM828 1028l-39 -72q-210 -63 -365 -154l-12 14l38 86l32 19q-84 43 -84 106q0 77 65 139.5t145 62.5q46 0 77 -19.5t31 -48.5q0 -26 -34 -76 h-22q-17 53 -90 53q-62 0 -109 -40q4 -82 157 -111q101 39 204 71z" />
<glyph unicode="&#x624;" horiz-adv-x="1108" vert-adv-y="1433" arabic-form="final" d="M933 143h220l-37 -143h-197q-47 -208 -169 -360q-195 -243 -480 -243q-241 0 -339 189q-30 58 -54 170l30 20q84 -128 174 -183t218 -55q192 0 344 119q88 69 142 160t62 183q-255 3 -372.5 52t-117.5 153q0 128 102 268t194 140q110 0 193.5 -140t86.5 -330zM837 146 q-25 139 -95 228t-156 89q-54 0 -90.5 -40t-36.5 -100q0 -82 90 -124.5t288 -52.5zM828 1028l-39 -72q-210 -63 -365 -154l-12 14l38 86l32 19q-84 42 -84 106q0 77 65 139.5t145 62.5q46 0 77 -19.5t31 -48.5q0 -27 -34 -76h-22q-17 53 -90 53q-62 0 -109 -40 q5 -82 157 -111q101 39 204 71z" />
<glyph unicode="&#x625;" horiz-adv-x="632" vert-adv-y="1433" arabic-form="isolated" d="M125 1354l111 202h46q13 -102 33 -150t68 -92l-63 -109q20 -146 38 -438.5t18 -482.5q0 -82 -4 -173l-52 -127h-31q5 72 5 165q0 288 -75 822q-23 166 -41 239.5t-53 143.5zM582 -360l-39 -73q-210 -63 -365 -154l-13 15l38 85l32 19q-84 43 -84 107q0 77 65 139.5 t146 62.5q46 0 77 -19.5t31 -48.5q0 -26 -34 -77h-23q-17 54 -89 54q-62 0 -110 -41q5 -82 158 -110q101 38 204 70z" />
<glyph unicode="&#x625;" horiz-adv-x="634" vert-adv-y="1433" arabic-form="final" d="M294 1566q57 -136 67 -225.5t20 -538.5q11 -448 27 -527q21 -99 87 -119q40 -13 114 -13h69l-37 -143h-70q-110 0 -160 15t-71 53q-23 43 -27.5 84.5t-28.5 453.5q-31 517 -47.5 622.5t-74.5 163.5l88 163zM588 -360l-39 -73q-210 -63 -366 -154l-12 15l38 85l32 19 q-84 43 -84 106q0 78 65 140.5t146 62.5q46 0 77 -19.5t31 -48.5q0 -27 -35 -77h-22q-17 54 -90 54q-61 0 -109 -41q5 -82 158 -110q100 38 203 70z" />
<glyph unicode="&#x626;" horiz-adv-x="1757" vert-adv-y="1433" arabic-form="isolated" d="M1360 1028l-39 -72q-210 -63 -366 -154l-12 14l38 86l32 19q-84 42 -84 106q0 77 65 139.5t145 62.5q47 0 78 -19.5t31 -47.5q0 -26 -34 -77h-23q-17 53 -89 53q-62 0 -110 -40q5 -82 158 -111q101 39 204 71zM1514 403l-38 13q6 34 6 47q0 29 -47 29q-68 0 -163.5 -33.5 t-172.5 -84.5q-66 -43 -110 -98t-44 -94q0 -25 37.5 -41t134.5 -32q283 -48 357.5 -76t74.5 -87q0 -134 -115 -256q-127 -136 -351 -210q-190 -63 -402 -63q-228 0 -362 78q-81 47 -118 113q-56 100 -56 252q0 140 44.5 271.5t147.5 296.5q73 116 163 217l27 -20 q-150 -223 -213 -380t-63 -304q0 -214 165 -310q118 -68 325 -68q330 0 562 128q101 56 158 155q-21 29 -83.5 47t-273.5 54q-194 34 -214 46q-42 25 -42 79q0 80 50 177t132 177q101 99 235 157.5t259 58.5q72 0 94 -32z" />
<glyph unicode="&#x626;" horiz-adv-x="1431" vert-adv-y="1433" arabic-form="final" d="M1476 143l-38 -143h-406q-53 0 -53 -51q0 -22 20.5 -31t110.5 -24q128 -23 174 -49q65 -38 65 -122q0 -127 -101 -207q-69 -55 -209 -87.5t-308 -32.5q-283 0 -433 102q-153 104 -153 339q0 287 215 623q62 97 140 184l26 -20q-19 -33 -92 -152q-184 -303 -184 -529 q0 -200 123.5 -302.5t366.5 -102.5q240 0 390 42t170 114q-70 29 -198 47q-111 15 -140 21.5t-49 21.5q-24 17 -24 62q0 128 94 229q62 68 231 68h262zM1269 1028l-39 -72q-210 -63 -365 -154l-12 14l38 86l32 19q-85 42 -85 106q0 77 65 139.5t145 62.5q47 0 78 -19.5 t31 -48.5q0 -26 -34 -76h-23q-17 53 -89 53q-62 0 -109 -40q4 -82 157 -111q101 39 204 71z" />
<glyph unicode="&#x626;" horiz-adv-x="689" vert-adv-y="1433" arabic-form="initial" d="M-45 0l37 143h33q271 0 370 49q-12 195 -166 401l62 157l44 17q160 -249 160 -465q0 -104 -55 -175.5t-159 -100.5q-89 -26 -283 -26h-43zM487 1028l-38 -72q-211 -63 -366 -154l-12 14l38 86l32 19q-84 42 -84 106q0 77 65 139.5t145 62.5q46 0 77 -19.5t31 -48.5 q0 -25 -34 -76h-22q-17 53 -90 53q-61 0 -109 -40q5 -82 157 -111q101 39 204 71z" />
<glyph unicode="&#x626;" horiz-adv-x="751" vert-adv-y="1433" arabic-form="medial" d="M-45 0l37 143h23q276 0 380 49q-1 87 -46 196t-120 205l62 157l44 17q113 -165 152 -360q32 -155 66 -201q45 -63 181 -63h62l-37 -143h-73q-98 0 -152.5 34t-80.5 110q-34 -80 -123 -111q-94 -33 -342 -33h-33zM487 1028l-38 -72q-211 -63 -366 -154l-12 14l38 86l32 19 q-84 42 -84 106q0 77 65 139.5t145 62.5q46 0 77 -19.5t31 -48.5q0 -25 -34 -76h-22q-17 53 -90 53q-61 0 -109 -40q5 -82 157 -111q101 39 204 71z" />
<glyph unicode="&#x627;" horiz-adv-x="632" vert-adv-y="1433" arabic-form="isolated" d="M125 1354l111 202h46q13 -102 33 -150t68 -92l-63 -109q20 -146 38 -438.5t18 -482.5q0 -82 -4 -173l-52 -127h-31q5 72 5 165q0 288 -75 822q-23 166 -41 239.5t-53 143.5z" />
<glyph unicode="&#x627;" horiz-adv-x="634" vert-adv-y="1433" arabic-form="final" d="M294 1566q57 -136 67 -225.5t20 -538.5q11 -448 28 -527q21 -99 86 -119q41 -13 114 -13h70l-37 -143h-71q-109 0 -159.5 15t-70.5 53q-24 43 -28 84.5t-29 453.5q-31 517 -47.5 622.5t-74.5 163.5l88 163z" />
<glyph unicode="&#x628;" horiz-adv-x="1948" vert-adv-y="1433" arabic-form="isolated" d="M974 -196l135 -135l-135 -134l-135 134zM324 628l27 -12q-65 -127 -65 -246q0 -142 132 -204q133 -62 447 -62q357 0 598 46q129 25 190 70q-13 175 -165 373l62 157l44 18q160 -239 160 -440q0 -110 -71 -194t-190 -114q-107 -26 -300 -43.5t-384 -17.5q-340 0 -490 78 q-125 65 -125 224q0 170 130 367z" />
<glyph unicode="&#x628;" horiz-adv-x="2011" vert-adv-y="1433" arabic-form="final" d="M2018 0h-73q-95 0 -146.5 32t-87.5 113q-68 -92 -197 -126q-98 -25 -298.5 -42.5t-403.5 -17.5q-353 0 -489 76q-129 72 -129 225q0 170 130 368l27 -13q-65 -126 -65 -245q0 -164 181 -223q133 -44 432 -44q274 0 478 22.5t276 61.5q-6 197 -165 406l62 157l44 17 q114 -167 167 -428q25 -115 73.5 -155.5t159.5 -40.5h61zM974 -196l135 -135l-135 -134l-135 134z" />
<glyph unicode="&#x628;" horiz-adv-x="689" vert-adv-y="1433" arabic-form="initial" d="M-45 0l37 143h33q271 0 370 49q-12 195 -166 401l62 157l44 17q160 -249 160 -465q0 -104 -55 -175.5t-159 -100.5q-89 -26 -283 -26h-43zM252 -196l135 -135l-135 -134l-135 134z" />
<glyph unicode="&#x628;" horiz-adv-x="751" vert-adv-y="1433" arabic-form="medial" d="M-45 0l37 143h23q276 0 380 49q-1 87 -46 196t-120 205l62 157l44 17q113 -165 152 -360q32 -155 66 -201q45 -63 181 -63h62l-37 -143h-73q-98 0 -152.5 34t-80.5 110q-34 -80 -123 -111q-94 -33 -342 -33h-33zM252 -196l135 -135l-135 -134l-135 134z" />
<glyph unicode="&#x629;" horiz-adv-x="1124" vert-adv-y="1433" arabic-form="isolated" d="M539 1096l121 120l128 -128l-128 -128l-121 120l-121 -120l-129 128l129 128zM402 657l-86 51l68 113l32 11q294 -174 409 -290.5t115 -240.5q0 -129 -97 -240q-46 -53 -105 -74t-161 -21q-180 0 -273 58q-120 74 -120 218q0 90 51 186.5t167 228.5zM457 626 q-159 -182 -159 -303q0 -116 104 -168q95 -47 231 -47q153 0 218 68q0 75 -25 128t-86 109q-133 122 -283 213z" />
<glyph unicode="&#x629;" horiz-adv-x="997" vert-adv-y="1433" arabic-form="final" d="M540 1358l121 120l129 -128l-129 -128l-121 120l-120 -120l-129 128l129 128zM591 828q-10 96 -38 158l132 138h34q9 -169 12 -233q24 -534 62 -630q26 -64 72 -91t131 -27h46l-44 -143h-38q-111 0 -172 25.5t-93 86.5q-48 91 -73 416q-9 117 -13 161 q-110 -150 -334 -267q147 -66 309 -167l-83 -145q-181 119 -367 196l23 116q8 38 16.5 50t42.5 29q238 125 375 327z" />
<glyph unicode="&#x62a;" horiz-adv-x="1948" vert-adv-y="1433" arabic-form="isolated" d="M957 998l121 120l129 -128l-129 -129l-121 121l-121 -121l-129 129l129 128zM324 628l27 -12q-65 -127 -65 -246q0 -142 132 -204q133 -62 447 -62q357 0 598 46q129 25 190 70q-13 175 -165 373l62 157l44 18q160 -239 160 -440q0 -110 -71 -194t-190 -114 q-107 -26 -300 -43.5t-384 -17.5q-340 0 -490 78q-125 65 -125 224q0 170 130 367z" />
<glyph unicode="&#x62a;" horiz-adv-x="2011" vert-adv-y="1433" arabic-form="final" d="M952 998l121 120l128 -128l-128 -129l-121 121l-121 -121l-129 129l129 128zM2018 0h-73q-95 0 -146.5 32t-87.5 113q-68 -92 -197 -126q-98 -25 -298.5 -42.5t-403.5 -17.5q-353 0 -489 76q-129 72 -129 225q0 170 130 368l27 -13q-65 -126 -65 -245q0 -164 181 -223 q133 -44 432 -44q274 0 478 22.5t276 61.5q-6 197 -165 406l62 157l44 17q114 -167 167 -428q25 -115 73.5 -155.5t159.5 -40.5h61z" />
<glyph unicode="&#x62a;" horiz-adv-x="690" vert-adv-y="1433" arabic-form="initial" d="M-45 0l37 143h33q271 0 370 49q-12 195 -166 401l62 157l44 17q160 -249 160 -465q0 -104 -55 -175.5t-159 -100.5q-89 -26 -283 -26h-43zM231 998l121 120l129 -128l-129 -129l-121 121l-121 -121l-129 129l129 128z" />
<glyph unicode="&#x62a;" horiz-adv-x="751" vert-adv-y="1433" arabic-form="medial" d="M231 998l121 120l129 -128l-129 -129l-121 121l-121 -121l-129 129l129 128zM-45 0l37 143h23q276 0 380 49q-1 87 -46 196t-120 205l62 157l44 17q113 -165 152 -360q32 -155 66 -201q45 -63 181 -63h62l-37 -143h-73q-98 0 -152.5 34t-80.5 110q-34 -80 -123 -111 q-94 -33 -342 -33h-33z" />
<glyph unicode="&#x62b;" horiz-adv-x="1948" vert-adv-y="1433" arabic-form="isolated" d="M957 940l-124 -124l-125 126l125 125l124 -123l124 123l126 -125l-126 -126zM957 1302l127 -126l-127 -127l-127 127zM324 628l27 -12q-65 -127 -65 -246q0 -142 132 -204q133 -62 447 -62q357 0 598 46q129 25 190 70q-13 175 -165 373l62 157l44 18q160 -239 160 -440 q0 -110 -71 -194t-190 -114q-107 -26 -300 -43.5t-384 -17.5q-340 0 -490 78q-125 65 -125 224q0 170 130 367z" />
<glyph unicode="&#x62b;" horiz-adv-x="2011" vert-adv-y="1433" arabic-form="final" d="M952 940l-124 -124l-126 126l126 125l124 -123l123 123l126 -125l-126 -126zM952 1302l127 -126l-127 -127l-128 127zM2018 0h-73q-95 0 -146.5 32t-87.5 113q-68 -92 -197 -126q-98 -25 -298.5 -42.5t-403.5 -17.5q-353 0 -489 76q-129 72 -129 225q0 170 130 368 l27 -13q-65 -126 -65 -245q0 -164 181 -223q133 -44 432 -44q274 0 478 22.5t276 61.5q-6 197 -165 406l62 157l44 17q114 -167 167 -428q25 -115 73.5 -155.5t159.5 -40.5h61z" />
<glyph unicode="&#x62b;" horiz-adv-x="689" vert-adv-y="1433" arabic-form="initial" d="M-45 0l37 143h33q271 0 370 49q-12 195 -164 401l60 157l44 17q160 -249 160 -465q0 -104 -55 -175.5t-159 -100.5q-89 -26 -283 -26h-43zM231 940l-124 -124l-126 126l126 125l124 -123l123 123l126 -125l-126 -126zM231 1302l127 -126l-127 -127l-128 127z" />
<glyph unicode="&#x62b;" horiz-adv-x="747" vert-adv-y="1433" arabic-form="medial" d="M231 940l-124 -124l-126 126l126 125l124 -123l123 123l126 -125l-126 -126zM231 1302l127 -126l-127 -127l-128 127zM-45 0l37 143h23q276 0 380 49q-1 87 -46 196t-118 205l60 157l44 17q113 -165 152 -360q32 -155 66 -201q45 -63 181 -63h62l-37 -143h-73 q-98 0 -152.5 34t-80.5 110q-34 -80 -123 -111q-94 -33 -342 -33h-33z" />
<glyph unicode="&#x62c;" horiz-adv-x="1497" vert-adv-y="1433" arabic-form="isolated" d="M889 -83l135 -134l-135 -134l-135 134zM1361 529q-44 -113 -85 -172q-406 -13 -637 -130q-229 -115 -309 -300q-43 -100 -43 -205q0 -231 162 -374q162 -144 455 -144q294 0 588 163l14 -21q-88 -113 -169 -164q-198 -123 -486 -123q-243 0 -399 89q-258 147 -258 501 q0 332 251 546q90 76 196 123.5t320 107.5q-71 37 -159 85q-132 74 -170 89.5t-88 15.5q-149 0 -262 -154l-33 22q133 269 329 269q59 0 111.5 -20t167.5 -87q144 -84 202.5 -107t128.5 -23q75 0 173 13z" />
<glyph unicode="&#x62c;" horiz-adv-x="1560" vert-adv-y="1433" arabic-form="final" d="M1137 350q-6 -29 -6 -52q0 -82 63 -118.5t204 -36.5h207l-37 -143h-226q-157 0 -229.5 49.5t-72.5 155.5q0 61 24 138q-298 -35 -491 -153q-286 -174 -286 -468q0 -231 162 -374q162 -144 455 -144q294 0 588 163l14 -21q-88 -113 -169 -164q-198 -123 -486 -123 q-243 0 -399 89q-258 147 -258 501q0 332 251 546q90 76 196 123.5t320 106.5q-66 35 -159 86q-132 73 -170 88.5t-89 15.5q-148 0 -261 -153l-33 21q133 269 329 269q60 0 111 -20t168 -88q143 -83 202.5 -106t129.5 -23q72 0 172 14q-44 -113 -85 -172q-85 -3 -139 -7z M855 -145l135 -135l-135 -134l-135 134z" />
<glyph unicode="&#x62c;" horiz-adv-x="1513" vert-adv-y="1433" arabic-form="initial" d="M602 -196l135 -135l-135 -134l-135 134zM-45 0l37 143h210q293 0 468.5 13t383.5 51q-73 62 -265 239q-96 88 -166 127t-133 39q-72 0 -122.5 -33t-139.5 -138l-33 22q83 150 162 215t178 65q98 0 166.5 -42t261.5 -220q173 -161 265 -224t224 -111l-67 -138 q-92 49 -137 64t-98 15q-36 0 -113 -16q-343 -71 -893 -71h-189z" />
<glyph unicode="&#x62c;" horiz-adv-x="1367" vert-adv-y="1433" arabic-form="medial" d="M542 -196l134 -135l-134 -134l-135 134zM-45 0l37 143h1057q-64 60 -165 173q-158 175 -231.5 229.5t-153.5 54.5q-77 0 -136.5 -32.5t-149.5 -123.5l-29 16q61 131 154.5 202t203.5 71q106 0 189.5 -60t280.5 -276q153 -167 215 -210.5t149 -43.5h36l-37 -143h-54 q-124 0 -191 79q-39 -40 -76 -53q-72 -26 -199 -26h-900z" />
<glyph unicode="&#x62d;" horiz-adv-x="1497" vert-adv-y="1433" arabic-form="isolated" d="M1361 529q-44 -113 -85 -172q-406 -13 -637 -130q-229 -115 -309 -300q-43 -100 -43 -205q0 -231 162 -374q162 -144 455 -144q294 0 588 163l14 -21q-88 -113 -169 -164q-198 -123 -486 -123q-243 0 -399 89q-258 147 -258 501q0 332 251 546q90 76 196 123.5t320 107.5 q-71 37 -159 85q-132 74 -170 89.5t-88 15.5q-149 0 -262 -154l-33 22q133 269 329 269q59 0 111.5 -20t167.5 -87q144 -84 202.5 -107t128.5 -23q75 0 173 13z" />
<glyph unicode="&#x62d;" horiz-adv-x="1560" vert-adv-y="1433" arabic-form="final" d="M1137 350q-6 -29 -6 -52q0 -82 63 -118.5t204 -36.5h207l-37 -143h-226q-157 0 -229.5 49.5t-72.5 155.5q0 61 24 138q-298 -35 -491 -153q-286 -174 -286 -468q0 -231 162 -374q162 -144 455 -144q294 0 588 163l14 -21q-88 -113 -169 -164q-198 -123 -486 -123 q-243 0 -399 89q-258 147 -258 501q0 332 251 546q90 76 196 123.5t320 106.5q-66 35 -159 86q-132 73 -170 88.5t-89 15.5q-148 0 -261 -153l-33 21q133 269 329 269q60 0 111 -20t168 -88q143 -83 202.5 -106t129.5 -23q72 0 172 14q-44 -113 -85 -172q-85 -3 -139 -7z " />
<glyph unicode="&#x62d;" horiz-adv-x="1513" vert-adv-y="1433" arabic-form="initial" d="M-45 0l37 143h210q293 0 468.5 13t383.5 51q-73 62 -265 239q-96 88 -166 127t-133 39q-72 0 -122.5 -33t-139.5 -138l-33 22q83 150 162 215t178 65q98 0 166.5 -42t261.5 -220q173 -161 265 -224t224 -111l-67 -138q-92 49 -137 64t-98 15q-36 0 -113 -16 q-343 -71 -893 -71h-189z" />
<glyph unicode="&#x62d;" horiz-adv-x="1367" vert-adv-y="1433" arabic-form="medial" d="M-45 0l37 143h1057q-64 60 -165 173q-158 175 -231.5 229.5t-153.5 54.5q-77 0 -136.5 -32.5t-149.5 -123.5l-29 16q61 131 154.5 202t203.5 71q106 0 189.5 -60t280.5 -276q153 -167 215 -210.5t149 -43.5h36l-37 -143h-54q-124 0 -191 79q-39 -40 -76 -53 q-72 -26 -199 -26h-900z" />
<glyph unicode="&#x62e;" horiz-adv-x="1497" vert-adv-y="1433" arabic-form="isolated" d="M793 1222l134 -135l-134 -134l-135 134zM1361 529q-44 -113 -85 -172q-406 -13 -637 -130q-229 -115 -309 -300q-43 -100 -43 -205q0 -231 162 -374q162 -144 455 -144q294 0 588 163l14 -21q-88 -113 -169 -164q-198 -123 -486 -123q-243 0 -399 89q-258 147 -258 501 q0 332 251 546q90 76 196 123.5t320 107.5q-71 37 -159 85q-132 74 -170 89.5t-88 15.5q-149 0 -262 -154l-33 22q133 269 329 269q59 0 111.5 -20t167.5 -87q144 -84 202.5 -107t128.5 -23q75 0 173 13z" />
<glyph unicode="&#x62e;" horiz-adv-x="1560" vert-adv-y="1433" arabic-form="final" d="M779 1222l134 -135l-134 -134l-135 134zM1137 350q-6 -29 -6 -52q0 -82 63 -118.5t204 -36.5h207l-37 -143h-226q-157 0 -229.5 49.5t-72.5 155.5q0 61 24 138q-298 -35 -491 -153q-286 -174 -286 -468q0 -231 162 -374q162 -144 455 -144q294 0 588 163l14 -21 q-88 -113 -169 -164q-198 -123 -486 -123q-243 0 -399 89q-258 147 -258 501q0 332 251 546q90 76 196 123.5t320 106.5q-66 35 -159 86q-132 73 -170 88.5t-89 15.5q-148 0 -261 -153l-33 21q133 269 329 269q60 0 111 -20t168 -88q143 -83 202.5 -106t129.5 -23 q72 0 172 14q-44 -113 -85 -172q-85 -3 -139 -7z" />
<glyph unicode="&#x62e;" horiz-adv-x="1513" vert-adv-y="1433" arabic-form="initial" d="M538 1222l135 -135l-135 -134l-134 134zM-45 0l37 143h210q293 0 468.5 13t383.5 51q-73 62 -265 239q-96 88 -166 127t-133 39q-72 0 -122.5 -33t-139.5 -138l-33 22q83 150 162 215t178 65q98 0 166.5 -42t261.5 -220q173 -161 265 -224t224 -111l-67 -138 q-92 49 -137 64t-98 15q-36 0 -113 -16q-343 -71 -893 -71h-189z" />
<glyph unicode="&#x62e;" horiz-adv-x="1367" vert-adv-y="1433" arabic-form="medial" d="M476 1222l134 -135l-134 -134l-135 134zM-45 0l37 143h1057q-64 60 -165 173q-158 175 -231.5 229.5t-153.5 54.5q-77 0 -136.5 -32.5t-149.5 -123.5l-29 16q61 131 154.5 202t203.5 71q106 0 189.5 -60t280.5 -276q153 -167 215 -210.5t149 -43.5h36l-37 -143h-54 q-124 0 -191 79q-39 -40 -76 -53q-72 -26 -199 -26h-900z" />
<glyph unicode="&#x62f;" horiz-adv-x="1238" vert-adv-y="1433" arabic-form="isolated" d="M973 159q-3 256 -193 590l73 157l44 18q83 -173 130 -349t47 -316q0 -149 -111 -235q-98 -77 -482 -77q-291 0 -291 168q0 100 78 243l25 -8q-15 -57 -15 -101q0 -90 46 -124t169 -34q337 0 480 68z" />
<glyph unicode="&#x62f;" horiz-adv-x="1326" vert-adv-y="1433" arabic-form="final" d="M268 358l25 -9q-15 -56 -15 -100q0 -90 46 -124t168 -34q336 0 481 67q-3 257 -193 591l73 157l44 18q118 -240 172 -552q26 -137 73 -183t160 -46h69l-36 -143h-64q-91 0 -141.5 24.5t-89.5 87.5q-39 -70 -97 -102q-116 -63 -462 -63q-291 0 -291 168q0 99 78 243z" />
<glyph unicode="&#x630;" horiz-adv-x="1238" vert-adv-y="1433" arabic-form="isolated" d="M707 1343l135 -134l-135 -134l-135 134zM973 159q-3 256 -193 590l73 157l44 18q83 -173 130 -349t47 -316q0 -149 -111 -235q-98 -77 -482 -77q-291 0 -291 168q0 100 78 243l25 -8q-15 -57 -15 -101q0 -90 46 -124t169 -34q337 0 480 68z" />
<glyph unicode="&#x630;" horiz-adv-x="1326" vert-adv-y="1433" arabic-form="final" d="M668 1343l135 -134l-135 -134l-134 134zM268 358l25 -9q-15 -56 -15 -100q0 -90 46 -124t168 -34q336 0 481 67q-3 257 -193 591l73 157l44 18q118 -240 172 -552q26 -137 73 -183t160 -46h69l-36 -143h-64q-91 0 -141.5 24.5t-89.5 87.5q-39 -70 -97 -102 q-116 -63 -462 -63q-291 0 -291 168q0 99 78 243z" />
<glyph unicode="&#x631;" horiz-adv-x="1116" vert-adv-y="1433" arabic-form="isolated" d="M693 712l44 18q65 -98 116 -215q91 -209 91 -309q0 -118 -75.5 -268t-194.5 -268q-109 -108 -211 -155t-228 -47q-157 0 -249.5 83t-137.5 265l34 20q86 -118 180 -170.5t220 -52.5q182 0 361 155q188 163 188 323q0 91 -55 218.5t-145 245.5z" />
<glyph unicode="&#x631;" horiz-adv-x="1142" vert-adv-y="1433" arabic-form="final" d="M915 52q-73 -202 -206 -346q-118 -127 -228.5 -182.5t-245.5 -55.5q-157 0 -249.5 83t-137.5 265l34 20q86 -118 180 -170.5t220 -52.5q182 0 361 155q188 163 188 323q0 91 -55 218.5t-145 245.5l62 157l44 18q129 -195 193 -439q22 -84 65 -111q58 -37 171 -37h21 l-37 -143h-47q-98 0 -188 52z" />
<glyph unicode="&#x632;" horiz-adv-x="1116" vert-adv-y="1433" arabic-form="isolated" d="M474 1118l127 -127l-127 -126l-127 126zM693 712l44 18q65 -98 116 -215q91 -209 91 -309q0 -118 -75.5 -268t-194.5 -268q-109 -108 -211 -155t-228 -47q-157 0 -249.5 83t-137.5 265l34 20q86 -118 180 -170.5t220 -52.5q182 0 361 155q188 163 188 323q0 91 -55 218.5 t-145 245.5z" />
<glyph unicode="&#x632;" horiz-adv-x="1142" vert-adv-y="1433" arabic-form="final" d="M595 1118l127 -127l-127 -126l-128 126zM915 52q-73 -202 -206 -346q-118 -127 -228.5 -182.5t-245.5 -55.5q-157 0 -249.5 83t-137.5 265l34 20q86 -118 180 -170.5t220 -52.5q182 0 361 155q188 163 188 323q0 91 -55 218.5t-145 245.5l62 157l44 18q129 -195 193 -439 q22 -84 65 -111q58 -37 171 -37h21l-37 -143h-47q-98 0 -188 52z" />
<glyph unicode="&#x633;" horiz-adv-x="2571" vert-adv-y="1433" arabic-form="isolated" d="M1714 58q-85 -58 -278 -58h-28q-2 -94 -44.5 -190.5t-114.5 -167.5q-98 -99 -276.5 -159t-370.5 -60q-120 0 -226 35.5t-162 94.5q-88 93 -88 259q0 302 285 598l22 -15q-194 -262 -194 -493q0 -161 93 -239q52 -43 142 -69t188 -26q191 0 364 62t266 165q6 32 6 58 q0 289 -168 589l59 155l46 20q124 -240 159 -474h36q222 0 316 44q11 43 11 82q0 89 -49 187l65 129l48 10q35 -96 35 -168q0 -118 -48 -235q119 -55 283 -55q120 0 188 21q-7 172 -132 437l67 160l49 9q68 -191 91 -287t23 -192q0 -95 -50 -182q-33 -57 -74 -79 q-59 -32 -171 -32q-228 0 -368 66z" />
<glyph unicode="&#x633;" horiz-adv-x="2621" vert-adv-y="1433" arabic-form="final" d="M1713 58q-84 -58 -277 -58h-28q-2 -94 -44.5 -190.5t-114.5 -167.5q-98 -99 -276.5 -159t-370.5 -60q-120 0 -226 35.5t-162 94.5q-88 93 -88 259q0 302 285 598l22 -15q-194 -262 -194 -493q0 -161 93 -239q52 -43 142 -69t188 -26q191 0 364 62t266 165q6 32 6 58 q0 289 -168 589l59 155l46 20q124 -240 159 -474h46q212 0 305 44q12 44 12 81q0 87 -42 184l62 134l44 9q34 -97 34 -168q0 -118 -48 -235q120 -55 283 -55q121 0 189 21q-7 172 -132 437l66 160l50 9q58 -157 79 -237.5t34 -201.5q12 -103 58 -137q60 -45 220 -45h12 l-37 -143h-58q-188 0 -236 119q-39 -74 -94 -100.5t-170 -26.5q-217 0 -358 66z" />
<glyph unicode="&#x633;" horiz-adv-x="1629" vert-adv-y="1433" arabic-form="initial" d="M-45 0l37 143h132q92 0 165 27q7 40 7 74q0 65 -25 212l73 159l43 15q29 -94 29 -178q0 -161 -58 -299q60 -10 145 -10q207 0 301 44q12 43 12 81q0 86 -42 184l62 134l43 9q35 -97 35 -167q0 -120 -48 -236q119 -55 282 -55q121 0 189 21q-6 172 -131 437l66 160l49 9 q68 -189 91 -286t23 -194q0 -62 -25 -127.5t-64 -105.5q-57 -59 -215 -59q-219 0 -359 66q-85 -58 -268 -58q-146 0 -226 53q-75 -53 -196 -53h-127z" />
<glyph unicode="&#x633;" horiz-adv-x="1679" vert-adv-y="1433" arabic-form="medial" d="M1321 764q59 -157 79.5 -237.5t34.5 -201.5q11 -103 57 -137q61 -45 220 -45h12l-37 -143h-57q-189 0 -236 119q-39 -74 -94 -100.5t-170 -26.5q-218 0 -358 66q-85 -58 -268 -58q-146 0 -226 53q-75 -53 -196 -53h-127l37 143h132q92 0 165 27q7 40 7 74q0 65 -25 212 l73 159l43 15q29 -94 29 -178q0 -161 -58 -299q60 -10 145 -10q207 0 301 44q12 43 12 81q0 86 -42 184l62 134l43 9q35 -97 35 -167q0 -120 -48 -236q119 -55 282 -55q121 0 189 21q-6 172 -131 437l66 160z" />
<glyph unicode="&#x634;" horiz-adv-x="2571" vert-adv-y="1433" arabic-form="isolated" d="M1778 952l-124 -123l-125 125l125 126l124 -124l124 124l126 -126l-126 -125zM1778 1314l128 -126l-128 -126l-127 126zM1714 58q-85 -58 -278 -58h-28q-2 -94 -44.5 -190.5t-114.5 -167.5q-98 -99 -276.5 -159t-370.5 -60q-120 0 -226 35.5t-162 94.5q-88 93 -88 259 q0 302 285 598l22 -15q-194 -262 -194 -493q0 -161 93 -239q52 -43 142 -69t188 -26q191 0 364 62t266 165q6 32 6 58q0 289 -168 589l59 155l46 20q124 -240 159 -474h36q222 0 316 44q11 43 11 82q0 89 -49 187l65 129l48 10q35 -96 35 -168q0 -118 -48 -235 q119 -55 283 -55q120 0 188 21q-7 172 -132 437l67 160l49 9q68 -191 91 -287t23 -192q0 -95 -50 -182q-33 -57 -74 -79q-59 -32 -171 -32q-228 0 -368 66z" />
<glyph unicode="&#x634;" horiz-adv-x="2621" vert-adv-y="1433" arabic-form="final" d="M1814 982l130 129l129 -129l-129 -130l-130 130l-129 -130l-129 130l129 129zM1814 1346l131 -130l-131 -131l-131 131zM1713 58q-84 -58 -277 -58h-28q-2 -94 -44.5 -190.5t-114.5 -167.5q-98 -99 -276.5 -159t-370.5 -60q-120 0 -226 35.5t-162 94.5q-88 93 -88 259 q0 302 285 598l22 -15q-194 -262 -194 -493q0 -161 93 -239q52 -43 142 -69t188 -26q191 0 364 62t266 165q6 32 6 58q0 289 -168 589l59 155l46 20q124 -240 159 -474h46q212 0 305 44q12 44 12 81q0 87 -42 184l62 134l44 9q34 -97 34 -168q0 -118 -48 -235 q120 -55 283 -55q121 0 189 21q-7 172 -132 437l66 160l50 9q58 -157 79 -237.5t34 -201.5q12 -103 58 -137q60 -45 220 -45h12l-37 -143h-58q-188 0 -236 119q-39 -74 -94 -100.5t-170 -26.5q-217 0 -358 66z" />
<glyph unicode="&#x634;" horiz-adv-x="1629" vert-adv-y="1433" arabic-form="initial" d="M837 952l-124 -123l-126 125l126 126l124 -124l123 124l126 -126l-126 -125zM837 1314l127 -126l-127 -126l-128 126zM-45 0l37 143h132q92 0 165 27q7 40 7 74q0 65 -25 212l73 159l43 15q29 -94 29 -178q0 -161 -58 -299q60 -10 145 -10q207 0 301 44q12 43 12 81 q0 86 -42 184l63 134l42 9q35 -97 35 -167q0 -120 -48 -236q119 -55 282 -55q121 0 189 21q-6 172 -131 437l66 160l49 9q68 -189 91 -286t23 -194q0 -62 -25 -127.5t-64 -105.5q-57 -59 -215 -59q-219 0 -359 66q-85 -58 -268 -58q-146 0 -226 53q-75 -53 -196 -53h-127z " />
<glyph unicode="&#x634;" horiz-adv-x="1679" vert-adv-y="1433" arabic-form="medial" d="M754 982l129 129l129 -129l-129 -130l-129 130l-129 -130l-130 130l130 129zM754 1346l131 -130l-131 -131l-131 131zM1321 764q59 -157 79.5 -237.5t34.5 -201.5q11 -103 57 -137q61 -45 220 -45h12l-37 -143h-57q-189 0 -236 119q-39 -74 -94 -100.5t-170 -26.5 q-218 0 -358 66q-85 -58 -268 -58q-146 0 -226 53q-75 -53 -196 -53h-127l37 143h132q92 0 165 27q7 40 7 74q0 65 -25 212l73 159l43 15q29 -94 29 -178q0 -161 -58 -299q60 -10 145 -10q207 0 301 44q12 43 12 81q0 86 -42 184l62 134l43 9q35 -97 35 -167 q0 -120 -48 -236q119 -55 282 -55q121 0 189 21q-6 172 -131 437l66 160z" />
<glyph unicode="&#x635;" horiz-adv-x="3036" vert-adv-y="1433" arabic-form="isolated" d="M1408 0q0 -109 -57.5 -221.5t-150.5 -184.5q-102 -81 -251.5 -126t-311.5 -45q-511 0 -511 389q0 302 285 598l22 -15q-194 -262 -194 -494q0 -185 115 -264q100 -69 306 -69q192 0 365.5 62t266.5 165q6 33 6 56q0 277 -168 557l59 157l46 19q71 -129 103.5 -220 t55.5 -221h226l402 298q135 99 216.5 138t155.5 39q157 0 314 -120q155 -119 155 -260q0 -67 -32.5 -128t-83.5 -89q-68 -38 -229 -38q-69 0 -225 4q-116 3 -510 9l-193 4h-182zM1729 139q295 -11 562 -11h58q164 2 209 1q149 -4 211 25q-15 79 -108 165q-165 151 -352 151 q-77 0 -165.5 -48t-323.5 -217l-70 -51z" />
<glyph unicode="&#x635;" horiz-adv-x="3031" vert-adv-y="1433" arabic-form="final" d="M1394 143h224l51 39q340 261 425 318q178 118 301 118q99 0 211 -56.5t186 -144.5q35 -41 50 -77t32 -123q9 -42 41 -58t110 -16h51l-37 -143h-52q-132 -2 -171 89q-36 -54 -89.5 -71.5t-183.5 -17.5h-1135q0 -83 -37 -175t-97 -162q-96 -111 -268 -175.5t-369 -64.5 q-511 0 -511 389q0 302 285 598l22 -15q-194 -262 -194 -494q0 -185 115 -264q100 -69 306 -69q192 0 365.5 62t266.5 165q6 33 6 55q0 278 -168 558l59 157l46 19q71 -129 104 -221t55 -220zM1727 143h784q204 0 256 11q-16 91 -132 186q-158 130 -323 130 q-81 0 -168.5 -46.5t-325.5 -215.5l-70 -50z" />
<glyph unicode="&#x635;" horiz-adv-x="1920" vert-adv-y="1433" arabic-form="initial" d="M-45 0l37 143h432q-40 199 -148 330l33 91l53 35q116 -123 148 -451l396 293q136 100 217.5 138.5t157.5 38.5q154 0 311 -120q155 -119 155 -260q0 -67 -32.5 -128t-83.5 -89q-69 -38 -228 -38q-65 0 -226 4q-108 3 -510 8q-218 5 -414 5h-298zM613 139q295 -11 562 -11 h58q164 2 209 1q149 -4 211 25q-15 79 -108 165q-165 151 -352 151q-77 0 -165.5 -48t-324.5 -217l-69 -51z" />
<glyph unicode="&#x635;" horiz-adv-x="1917" vert-adv-y="1433" arabic-form="medial" d="M1702 89q-37 -54 -90.5 -71.5t-183.5 -17.5h-1473l37 143h432q-40 199 -148 330l33 91l53 35q116 -123 148 -451l44 34q341 261 426 318q178 118 300 118q100 0 212 -56.5t186 -144.5q35 -41 50 -77t32 -123q9 -42 41 -58t110 -16h51l-37 -143h-53q-132 -2 -170 89z M613 143h783q205 0 257 11q-17 91 -133 186q-158 130 -322 130q-81 0 -168.5 -46.5t-326.5 -215.5l-69 -50z" />
<glyph unicode="&#x636;" horiz-adv-x="3036" vert-adv-y="1433" arabic-form="isolated" d="M2187 1125l134 -134l-134 -134l-135 134zM1408 0q0 -109 -57.5 -221.5t-150.5 -184.5q-102 -81 -251.5 -126t-311.5 -45q-511 0 -511 389q0 302 285 598l22 -15q-194 -262 -194 -494q0 -185 115 -264q100 -69 306 -69q192 0 365.5 62t266.5 165q6 33 6 56q0 277 -168 557 l59 157l46 19q71 -129 103.5 -220t55.5 -221h226l402 298q135 99 216.5 138t155.5 39q157 0 314 -120q155 -119 155 -260q0 -67 -32.5 -128t-83.5 -89q-68 -38 -229 -38q-69 0 -225 4q-116 3 -510 9l-193 4h-182zM1729 139q295 -11 562 -11h58q164 2 209 1q149 -4 211 25 q-15 79 -108 165q-165 151 -352 151q-77 0 -165.5 -48t-323.5 -217l-70 -51z" />
<glyph unicode="&#x636;" horiz-adv-x="3031" vert-adv-y="1433" arabic-form="final" d="M1394 143h224l51 39q340 261 425 318q178 118 301 118q99 0 211 -56.5t186 -144.5q35 -41 50 -77t32 -123q9 -42 41 -58t110 -16h51l-37 -143h-52q-132 -2 -171 89q-36 -54 -89.5 -71.5t-183.5 -17.5h-1135q0 -83 -37 -175t-97 -162q-96 -111 -268 -175.5t-369 -64.5 q-511 0 -511 389q0 302 285 598l22 -15q-194 -262 -194 -494q0 -185 115 -264q100 -69 306 -69q192 0 365.5 62t266.5 165q6 33 6 55q0 278 -168 558l59 157l46 19q71 -129 104 -221t55 -220zM1727 143h784q204 0 256 11q-16 91 -132 186q-158 130 -323 130 q-81 0 -168.5 -46.5t-325.5 -215.5l-70 -50zM2209 1125l135 -134l-135 -134l-135 134z" />
<glyph unicode="&#x636;" horiz-adv-x="1920" vert-adv-y="1433" arabic-form="initial" d="M1095 1125l135 -134l-135 -134l-135 134zM-45 0l37 143h432q-40 199 -148 330l33 91l53 35q116 -123 148 -451l396 293q136 100 217.5 138.5t157.5 38.5q154 0 311 -120q155 -119 155 -260q0 -67 -32.5 -128t-83.5 -89q-69 -38 -228 -38q-65 0 -226 4q-108 3 -510 8 q-218 5 -414 5h-298zM613 139q295 -11 562 -11h58q164 2 209 1q149 -4 211 25q-15 79 -108 165q-165 151 -352 151q-77 0 -165.5 -48t-324.5 -217l-69 -51z" />
<glyph unicode="&#x636;" horiz-adv-x="1917" vert-adv-y="1433" arabic-form="medial" d="M1702 89q-37 -54 -90.5 -71.5t-183.5 -17.5h-1473l37 143h432q-40 199 -148 330l33 91l53 35q116 -123 148 -451l44 34q341 261 426 318q178 118 300 118q100 0 212 -56.5t186 -144.5q35 -41 50 -77t32 -123q9 -42 41 -58t110 -16h51l-37 -143h-53q-132 -2 -170 89z M613 143h783q205 0 257 11q-17 91 -133 186q-158 130 -322 130q-81 0 -168.5 -46.5t-326.5 -215.5l-69 -50zM1095 1125l135 -134l-135 -134l-135 134z" />
<glyph unicode="&#x637;" horiz-adv-x="1817" vert-adv-y="1433" arabic-form="isolated" d="M590 291q301 221 396 274t190 53q153 0 307 -116q161 -121 161 -266q0 -110 -81 -194q-36 -38 -97.5 -50t-217.5 -12q-533 0 -858 17q-85 5 -129.5 19.5t-97.5 54.5q-42 32 -89 82l26 31q82 -41 215 -41h85l86 66q23 250 23 412q0 495 -109 738l113 196h40 q10 -99 31.5 -151.5t69.5 -95.5l-64 -111q27 -199 27 -446q0 -244 -27 -460zM509 139q295 -11 560 -11h60q165 2 209 1q149 -4 211 25q-14 78 -106 162q-166 154 -348 154q-87 0 -184 -54.5t-402 -276.5z" />
<glyph unicode="&#x637;" horiz-adv-x="1816" vert-adv-y="1433" arabic-form="final" d="M402 143l84 66q23 195 23 412q0 492 -110 738l114 196h40q13 -105 33.5 -155t67.5 -93l-64 -110q27 -204 27 -449q0 -253 -27 -461q105 83 284 206q182 125 303 125q100 0 213 -56.5t187 -144.5q35 -41 49.5 -77t32.5 -123q9 -42 41 -58t109 -16h52l-37 -143h-53 q-132 -2 -170 89q-37 -54 -90.5 -71.5t-183.5 -17.5h-880q-135 0 -209.5 30.5t-163.5 122.5l26 31q82 -41 215 -41h87zM512 143h783q205 0 256 11q-16 91 -132 186q-158 130 -322 130q-81 0 -168.5 -46.5t-326.5 -215.5l-70 -50z" />
<glyph unicode="&#x637;" horiz-adv-x="1635" vert-adv-y="1433" arabic-form="initial" d="M409 291l42 30q235 169 306 215q129 82 239 82q115 0 236 -70q230 -133 230 -310q0 -66 -33 -127.5t-83 -89.5q-69 -38 -231 -38q-62 0 -193 3q-137 4 -575 10l-186 4h-206l37 143h228l85 66q23 194 23 413q0 490 -110 737l114 196h39q13 -105 33.5 -155t67.5 -93 l-63 -110q27 -199 27 -448q0 -239 -27 -458zM328 139q276 -11 565 -11h55h224q142 0 196 26q-15 86 -125 180q-162 136 -329 136q-109 0 -265 -103q-75 -50 -276 -195z" />
<glyph unicode="&#x637;" horiz-adv-x="1634" vert-adv-y="1433" arabic-form="medial" d="M221 143l84 66q23 194 23 413q0 490 -110 737l114 196h39q13 -105 33.5 -155t67.5 -93l-64 -110q28 -208 28 -449q0 -250 -28 -461q105 83 285 206q181 125 302 125q101 0 214 -56.5t186 -144.5q35 -41 50 -77t32 -123q9 -42 41 -58t110 -16h52l-37 -143h-53 q-132 -2 -171 89q-36 -54 -89.5 -71.5t-183.5 -17.5h-1191l37 143h229zM330 143h784q204 0 256 11q-16 91 -132 186q-158 130 -322 130q-82 0 -169.5 -46.5t-325.5 -215.5l-70 -50z" />
<glyph unicode="&#x638;" horiz-adv-x="1817" vert-adv-y="1433" arabic-form="isolated" d="M1133 1125l135 -134l-135 -134l-134 134zM590 291q301 221 396 274t190 53q153 0 307 -116q161 -121 161 -266q0 -110 -81 -194q-36 -38 -97.5 -50t-217.5 -12q-533 0 -858 17q-85 5 -129.5 19.5t-97.5 54.5q-42 32 -89 82l26 31q82 -41 215 -41h85l86 66q23 250 23 412 q0 495 -109 738l113 196h40q10 -99 31.5 -151.5t69.5 -95.5l-64 -111q27 -199 27 -446q0 -244 -27 -460zM509 139q295 -11 560 -11h60q165 2 209 1q149 -4 211 25q-14 78 -106 162q-166 154 -348 154q-87 0 -184 -54.5t-402 -276.5z" />
<glyph unicode="&#x638;" horiz-adv-x="1816" vert-adv-y="1433" arabic-form="final" d="M402 143l84 66q23 195 23 412q0 492 -110 738l114 196h40q13 -105 33.5 -155t67.5 -93l-64 -110q27 -204 27 -449q0 -253 -27 -461q105 83 284 206q182 125 303 125q100 0 213 -56.5t187 -144.5q35 -41 49.5 -77t32.5 -123q9 -42 41 -58t109 -16h52l-37 -143h-53 q-132 -2 -170 89q-37 -54 -90.5 -71.5t-183.5 -17.5h-880q-135 0 -209.5 30.5t-163.5 122.5l26 31q82 -41 215 -41h87zM512 143h783q205 0 256 11q-16 91 -132 186q-158 130 -322 130q-81 0 -168.5 -46.5t-326.5 -215.5l-70 -50zM1133 1125l135 -134l-135 -134l-134 134z " />
<glyph unicode="&#x638;" horiz-adv-x="1635" vert-adv-y="1433" arabic-form="initial" d="M984 1125l134 -134l-134 -134l-135 134zM409 291l42 30q235 169 306 215q129 82 239 82q115 0 236 -70q230 -133 230 -310q0 -66 -33 -127.5t-83 -89.5q-69 -38 -231 -38q-62 0 -193 3q-137 4 -575 10l-186 4h-206l37 143h228l85 66q23 194 23 413q0 490 -110 737 l114 196h39q13 -105 33.5 -155t67.5 -93l-63 -110q27 -199 27 -448q0 -239 -27 -458zM328 139q276 -11 565 -11h55h224q142 0 196 26q-15 86 -125 180q-162 136 -329 136q-109 0 -265 -103q-75 -50 -276 -195z" />
<glyph unicode="&#x638;" horiz-adv-x="1634" vert-adv-y="1433" arabic-form="medial" d="M1680 143l-38 -143h-62q-129 0 -165 99q-46 -57 -107.5 -78t-184.5 -21h-1168l37 143h226l87 66q23 260 23 401q0 500 -110 749l114 196h39q13 -102 33.5 -153t67.5 -95l-63 -110q27 -203 27 -440q0 -246 -27 -466l42 30q242 175 311 218q126 79 246 79q152 0 282 -99 t172 -246q21 -76 37 -96q28 -34 129 -34h52zM339 143h1026q-9 58 -61 124q-161 202 -382 202q-94 0 -187.5 -52.5t-395.5 -273.5zM984 1125l134 -134l-134 -134l-135 134z" />
<glyph unicode="&#x639;" horiz-adv-x="1306" vert-adv-y="1433" arabic-form="isolated" d="M1099 461q-55 -19 -309 -126q-346 -147 -472 -357q-89 -150 -89 -307q0 -230 168 -353q157 -114 423 -114q175 0 349.5 52t315.5 146l14 -21q-80 -113 -193 -185q-223 -141 -536 -141q-297 0 -456 117q-177 130 -177 395q0 402 342 700q-108 46 -173.5 123t-65.5 158 q0 144 112 290q130 168 306 168q108 0 183.5 -51.5t75.5 -124.5q0 -38 -17 -105l-27 -1q-37 55 -116 91.5t-159 36.5q-89 0 -155 -37q-111 -64 -111 -169q0 -83 86 -157.5t218 -105.5q118 63 186 93t294 117l34 13l8 -22z" />
<glyph unicode="&#x639;" horiz-adv-x="1137" vert-adv-y="1433" arabic-form="final" d="M690 308q-11 52 -58 109q-58 68 -198 68q-15 0 -49 -1l-24 56q42 75 83 121q92 103 222 103q127 0 207 -87q62 -68 62 -163q0 -139 -139 -237q21 -71 70.5 -102.5t139.5 -31.5h176l-37 -143h-184q-133 0 -186.5 47.5t-74.5 182.5q-207 -97 -318 -242t-111 -319 q0 -217 142 -341q143 -124 395 -124q258 0 488 85l15 -19q-174 -211 -568 -211q-235 0 -382 99q-196 133 -196 433q0 470 525 717z" />
<glyph unicode="&#x639;" horiz-adv-x="1169" vert-adv-y="1433" arabic-form="initial" d="M292 143q-72 94 -72 210q0 125 70 249q106 187 285 187q114 0 199.5 -66t85.5 -155q0 -55 -29 -150l-28 -3q-41 88 -67 118q-99 113 -243 113q-94 0 -143 -57q-46 -52 -46 -125q0 -111 139 -204q84 -55 212 -91q174 8 430 63l4 -22l-65 -129q-430 -81 -915 -81h-154 l37 143h300z" />
<glyph unicode="&#x639;" horiz-adv-x="995" vert-adv-y="1433" arabic-form="medial" d="M659 260q21 -64 72 -90.5t152 -26.5h157l-37 -143h-167q-127 0 -190.5 39t-77.5 125q-199 -164 -587 -164h-26l37 143h22q205 0 330 37t204 121q-34 184 -257 184q-15 0 -48 -1l-25 56q126 224 303 224q104 0 169.5 -63.5t65.5 -165.5q0 -146 -97 -275z" />
<glyph unicode="&#x63a;" horiz-adv-x="1306" vert-adv-y="1433" arabic-form="isolated" d="M604 1447l134 -135l-134 -134l-135 134zM1099 461q-55 -19 -309 -126q-346 -147 -472 -357q-89 -150 -89 -307q0 -230 168 -353q157 -114 423 -114q175 0 349.5 52t315.5 146l14 -21q-80 -113 -193 -185q-223 -141 -536 -141q-297 0 -456 117q-177 130 -177 395 q0 402 342 700q-108 46 -173.5 123t-65.5 158q0 144 112 290q130 168 306 168q108 0 183.5 -51.5t75.5 -124.5q0 -38 -17 -105l-27 -1q-37 55 -116 91.5t-159 36.5q-89 0 -155 -37q-111 -64 -111 -169q0 -83 86 -157.5t218 -105.5q118 63 186 93t294 117l34 13l8 -22z" />
<glyph unicode="&#x63a;" horiz-adv-x="1137" vert-adv-y="1433" arabic-form="final" d="M690 308q-11 52 -58 109q-58 68 -198 68q-15 0 -49 -1l-24 56q42 75 83 121q92 103 222 103q127 0 207 -87q62 -68 62 -163q0 -139 -139 -237q21 -71 70.5 -102.5t139.5 -31.5h176l-37 -143h-184q-133 0 -186.5 47.5t-74.5 182.5q-207 -97 -318 -242t-111 -319 q0 -217 142 -341q143 -124 395 -124q258 0 488 85l15 -19q-174 -211 -568 -211q-235 0 -382 99q-196 133 -196 433q0 470 525 717zM621 1222l135 -135l-135 -134l-134 134z" />
<glyph unicode="&#x63a;" horiz-adv-x="1169" vert-adv-y="1433" arabic-form="initial" d="M538 1223l135 -135l-135 -134l-134 134zM292 143q-72 94 -72 210q0 125 70 249q106 187 285 187q114 0 199.5 -66t85.5 -155q0 -55 -29 -150l-28 -3q-41 88 -67 118q-99 113 -243 113q-94 0 -143 -57q-46 -52 -46 -125q0 -111 139 -204q84 -55 212 -91q174 8 430 63 l4 -22l-65 -129q-430 -81 -915 -81h-154l37 143h300z" />
<glyph unicode="&#x63a;" horiz-adv-x="995" vert-adv-y="1433" arabic-form="medial" d="M478 1222l135 -135l-135 -134l-134 134zM659 260q21 -64 72 -90.5t152 -26.5h157l-37 -143h-167q-127 0 -190.5 39t-77.5 125q-199 -164 -587 -164h-26l37 143h22q205 0 330 37t204 121q-34 184 -257 184q-15 0 -48 -1l-25 56q126 224 303 224q104 0 169.5 -63.5 t65.5 -165.5q0 -146 -97 -275z" />
<glyph unicode="&#x641;" horiz-adv-x="2309" vert-adv-y="1433" arabic-form="isolated" d="M1682 1337l135 -134l-135 -135l-134 135zM343 654l24 -12q-81 -140 -81 -271q0 -168 200 -227q126 -38 462 -38q233 0 529.5 14.5t394.5 30.5q136 23 156 119q-150 1 -261 33q-213 60 -213 215q0 99 73 227q99 175 212 175q112 0 196.5 -141.5t84.5 -328.5 q0 -339 -215 -427q-147 -61 -914 -61q-275 0 -410 12.5t-219 45.5q-168 66 -168 244q0 180 149 390zM2026 429q-26 150 -97.5 245.5t-158.5 95.5q-54 0 -89.5 -33t-35.5 -83q0 -193 381 -225z" />
<glyph unicode="&#x641;" horiz-adv-x="2361" vert-adv-y="1433" arabic-form="final" d="M1873 74q-102 -47 -184 -63q-244 -49 -701 -49q-427 0 -573 58q-168 66 -168 243q0 180 149 390l24 -11q-81 -140 -81 -272q0 -168 200 -228q126 -37 446 -37q479 0 727 38q-173 119 -173 290q0 146 124 295q114 136 223 136q108 0 181 -153q54 -114 54 -236 q0 -179 -105 -298q134 -34 328 -34h62l-37 -143h-63q-234 0 -433 74zM1937 207q82 63 82 166q0 109 -57 228q-55 113 -140 113q-79 0 -135 -56.5t-56 -135.5q0 -176 306 -315zM1811 1290l135 -134l-135 -134l-134 134z" />
<glyph unicode="&#x641;" horiz-adv-x="946" vert-adv-y="1433" arabic-form="initial" d="M-45 0l37 143h140q291 0 404 26.5t130 99.5q-149 2 -261 34q-212 60 -212 215q0 128 96 264.5t187 136.5q113 0 197.5 -141t84.5 -328q0 -288 -172 -387q-111 -63 -489 -63h-142zM664 428q-26 150 -97.5 245.5t-157.5 95.5q-55 0 -90 -33t-35 -83q0 -192 380 -225z M320 1337l135 -134l-135 -135l-134 135z" />
<glyph unicode="&#x641;" horiz-adv-x="1037" vert-adv-y="1433" arabic-form="medial" d="M-45 0l37 143h396q-174 121 -174 291q0 145 124 294q114 136 224 136q107 0 180 -153q54 -113 54 -237q0 -179 -104 -297q134 -34 327 -34h63l-38 -143h-63q-226 0 -427 71q-86 -45 -156.5 -58t-234.5 -13h-208zM612 207q82 63 82 166q0 109 -57 228q-55 113 -141 113 q-78 0 -134 -56.5t-56 -135.5q0 -176 306 -315zM487 1290l134 -134l-134 -134l-135 134z" />
<glyph unicode="&#x642;" horiz-adv-x="1620" vert-adv-y="1433" arabic-form="isolated" d="M1334 2q-100 -11 -169 -11q-358 0 -358 182q0 111 86 258q95 163 195 163q144 0 242 -204q44 -92 72 -218.5t28 -234.5q0 -240 -249 -424q-248 -184 -591 -184q-239 0 -354 108q-114 107 -114 339q0 289 140 539l29 -14q-82 -227 -82 -405q0 -422 438 -422 q201 0 388.5 78t302.5 210l9 15q2 23 2 44q0 84 -15 181zM1293 140q-45 132 -96 198q-85 109 -178 109q-54 0 -88 -41.5t-34 -106.5q0 -160 339 -160zM1039 993l121 121l127 -127l-127 -127l-121 121l-121 -121l-126 127l126 127z" />
<glyph unicode="&#x642;" horiz-adv-x="1617" vert-adv-y="1433" arabic-form="final" d="M1427 0q3 -35 3 -59q0 -244 -249 -428q-248 -184 -591 -184q-239 0 -354 108q-114 107 -114 339q0 289 140 539l29 -14q-82 -226 -82 -405q0 -422 438 -422q201 0 388.5 78t302.5 210l9 15q2 23 2 43q0 85 -15 180h-134q-211 0 -302 40t-91 133q0 111 86 258 q95 163 194 163q108 0 192.5 -118.5t128.5 -332.5h254l-37 -143h-198zM1293 143q-45 130 -96 196q-85 108 -178 108q-54 0 -88 -41t-34 -105q0 -158 331 -158h65zM1039 993l121 121l127 -127l-127 -127l-121 121l-121 -121l-126 127l126 127z" />
<glyph unicode="&#x642;" horiz-adv-x="946" vert-adv-y="1433" arabic-form="initial" d="M370 1208l121 121l127 -126l-127 -127l-121 121l-120 -121l-127 127l127 126zM-45 0l37 143h140q291 0 404 26.5t130 99.5q-149 2 -261 34q-212 60 -212 215q0 128 96 264.5t187 136.5q113 0 197.5 -141t84.5 -328q0 -288 -172 -387q-111 -63 -489 -63h-142zM664 428 q-26 150 -97.5 245.5t-157.5 95.5q-55 0 -90 -33t-35 -83q0 -192 380 -225z" />
<glyph unicode="&#x642;" horiz-adv-x="1037" vert-adv-y="1433" arabic-form="medial" d="M487 1170l121 120l127 -126l-127 -127l-121 121l-121 -121l-127 127l127 126zM-45 0l37 143h396q-174 121 -174 291q0 145 124 294q114 136 224 136q107 0 180 -153q54 -113 54 -237q0 -179 -104 -297q134 -34 327 -34h63l-38 -143h-63q-226 0 -427 71 q-86 -45 -156.5 -58t-234.5 -13h-208zM612 207q82 63 82 166q0 109 -57 228q-55 113 -141 113q-78 0 -134 -56.5t-56 -135.5q0 -176 306 -315z" />
<glyph unicode="&#x643;" horiz-adv-x="1953" vert-adv-y="1433" arabic-form="isolated" d="M1623 162q-2 176 -67 710q-26 209 -47 304t-61 180l115 199h40q11 -96 33 -148t68 -93l-62 -108q15 -103 28 -283q20 -278 30 -390q13 -147 13 -198q0 -111 -47 -195t-130 -122q-50 -21 -237 -37.5t-390 -16.5q-402 0 -556 60q-96 38 -138.5 96t-42.5 152q0 173 152 433 l27 -15q-91 -192 -91 -304q0 -154 155 -215.5t543 -61.5q449 0 665 53zM735 402l-4 23l57 116q233 36 309 123q-35 -3 -64 -3q-83 0 -114 13.5t-31 49.5q0 69 70.5 190t136.5 164l7 -21l-94 -195q-47 -16 -47 -39q0 -30 111 -30q19 0 29 1q36 2 43 2q27 0 27 -24 q0 -54 -49 -143t-101 -130q-75 -59 -286 -97z" />
<glyph unicode="&#x643;" horiz-adv-x="1939" vert-adv-y="1433" arabic-form="final" d="M1642 1206q15 -104 28 -283q40 -557 58 -645q17 -87 51 -111t139 -24h66l-37 -143h-138q-130 0 -161 112q-61 -81 -134 -101q-69 -20 -246.5 -33.5t-358.5 -13.5q-402 0 -556 60q-96 38 -138.5 96t-42.5 152q0 173 152 432l27 -14q-91 -193 -91 -305q0 -154 155 -215.5 t544 -61.5q448 0 664 54q-2 176 -67 710q-26 209 -47 304t-61 180l115 199h40q11 -97 33 -148.5t68 -92.5zM735 402l-4 23l57 116q233 36 309 123q-35 -3 -64 -3q-83 0 -114 13.5t-31 49.5q0 69 70.5 190t136.5 164l7 -21l-94 -195q-47 -16 -47 -39q0 -30 111 -30q19 0 29 1 q36 2 43 2q27 0 27 -24q0 -54 -49 -143t-101 -130q-75 -59 -286 -97z" />
<glyph unicode="&#x643;" horiz-adv-x="1155" vert-adv-y="1433" arabic-form="initial" d="M-45 0l37 143h672q150 0 227 10v18q0 215 -285 431q-200 152 -569 331q4 102 78 224q324 128 446.5 182t445.5 212l7 -26l-60 -122l-808 -362q260 -122 476 -270q198 -135 290 -287q72 -119 72 -219q0 -76 -29 -137.5t-78 -89.5q-45 -26 -89.5 -32t-192.5 -6h-640z" />
<glyph unicode="&#x643;" horiz-adv-x="1210" vert-adv-y="1433" arabic-form="medial" d="M-45 0l37 143h672q150 0 227 10v18q0 182 -203 363.5t-651 398.5q4 102 78 224q324 128 446.5 182t445.5 212l7 -26l-60 -122l-808 -362q408 -190 603.5 -369.5t244.5 -407.5q16 -75 59 -95q57 -26 144 -26h58l-37 -143h-61q-87 0 -136 23.5t-76 79.5q-26 -66 -88 -84.5 t-262 -18.5h-640z" />
<glyph unicode="&#x644;" horiz-adv-x="1644" vert-adv-y="1433" arabic-form="isolated" d="M353 504l19 -16q-103 -190 -103 -382q0 -214 141 -323q114 -88 329 -88q323 0 581 284q-4 321 -51 718q-38 316 -63.5 444.5t-67.5 213.5l117 200h40q12 -98 33 -148.5t68 -92.5l-63 -109q29 -265 51.5 -609.5t22.5 -519.5q0 -174 -162 -319q-111 -99 -259.5 -153 t-308.5 -54q-241 0 -371 111.5t-130 317.5q0 297 177 525z" />
<glyph unicode="&#x644;" horiz-adv-x="1630" vert-adv-y="1433" arabic-form="final" d="M353 504l19 -16q-103 -190 -103 -382q0 -214 141 -323q114 -88 329 -88q323 0 581 284v31q-4 272 -51 687q-38 316 -63.5 444.5t-67.5 213.5l117 200h40q12 -98 33 -148.5t68 -92.5l-63 -109q23 -215 57 -631q26 -350 49 -386q24 -45 147 -45h89l-37 -143h-86 q-85 0 -148 23q-22 -143 -159 -265q-111 -99 -259.5 -153.5t-308.5 -54.5q-241 0 -371 111.5t-130 317.5q0 297 177 525z" />
<glyph unicode="&#x644;" horiz-adv-x="608" vert-adv-y="1433" arabic-form="initial" d="M-45 0l37 143h110q155 0 217 12q-3 186 -61 648q-33 266 -54.5 368t-62.5 184l116 200h41q12 -98 33 -148.5t67 -92.5l-62 -109q25 -239 49 -588.5t24 -488.5q0 -91 -51 -110q-47 -18 -231 -18h-172z" />
<glyph unicode="&#x644;" horiz-adv-x="647" vert-adv-y="1433" arabic-form="medial" d="M-45 0l37 143h110q154 0 217 12q-23 373 -78 782q-25 181 -44.5 264.5t-55.5 153.5l116 200h41q11 -97 32.5 -148t67.5 -93l-62 -109q25 -233 50 -598q17 -238 26 -308.5t25 -99.5q18 -32 53 -44t112 -12h90l-37 -143h-95q-73 0 -109 11.5t-72 47.5q-43 -34 -121 -46.5 t-255 -12.5h-48z" />
<glyph unicode="&#x645;" horiz-adv-x="1105" vert-adv-y="1433" arabic-form="isolated" d="M333 -818l-59 -123h-23q-10 119 -123 625q-30 137 -30 193q0 50 23.5 112.5t56.5 101.5q61 72 203 72q12 0 32 -1l345 -9q-109 167 -160.5 221.5t-100.5 54.5q-97 0 -217 -207l-40 17q73 163 153 252t154 89q130 0 310 -299q56 -91 81.5 -114.5t83.5 -35.5l-39 -131 q-524 16 -695 16q-61 0 -82.5 -12t-21.5 -46q0 -35 35 -177q15 -59 44 -205q18 -91 41 -204q26 -124 29 -190z" />
<glyph unicode="&#x645;" horiz-adv-x="1065" vert-adv-y="1433" arabic-form="final" d="M333 -818l-59 -123h-23q-11 134 -79 430q-74 322 -74 389q0 100 66 196q62 89 206 89q6 0 43 -1l345 -9q-108 167 -160 221.5t-101 54.5q-98 0 -217 -207l-40 17q153 341 305 341q67 0 130 -60.5t182 -238.5q57 -84 100.5 -111t121.5 -27h31l-42 -143q-582 16 -800 16 q-84 0 -84 -57q0 -36 35 -178q15 -58 44 -205q16 -84 39 -195q27 -127 31 -199z" />
<glyph unicode="&#x645;" horiz-adv-x="1029" vert-adv-y="1433" arabic-form="initial" d="M-8 143h28q120 0 147 21q21 16 34.5 46.5t69.5 188.5q59 166 96 217.5t97 51.5q140 0 283 -183q112 -144 112 -284q0 -65 -42 -140t-78 -75q-17 0 -69 21q-136 58 -430 85q-34 -58 -79 -75t-164 -17h-42zM295 229q89 -2 222.5 -26.5t243.5 -59.5q-41 142 -119 238 q-108 133 -187 133q-41 0 -67 -45t-84 -216z" />
<glyph unicode="&#x645;" horiz-adv-x="1074" vert-adv-y="1433" arabic-form="medial" d="M819 67q-29 -50 -44.5 -65.5t-35.5 -15.5q-17 0 -68 21q-166 65 -431 85q-34 -58 -79 -75t-164 -17h-42l37 143h28q120 0 147 21q21 16 34.5 46t69.5 189q60 167 96.5 218t96.5 51q140 0 283 -183q55 -70 109 -210q33 -86 68 -109t130 -23h65l-37 -143h-53 q-148 0 -210 67zM295 229q89 -2 222.5 -26.5t243.5 -59.5q-41 142 -119 238q-108 133 -187 133q-41 0 -67 -45t-84 -216z" />
<glyph unicode="&#x646;" horiz-adv-x="1603" vert-adv-y="1433" arabic-form="isolated" d="M821 1124l134 -134l-134 -134l-135 134zM1191 591l44 17q170 -328 170 -600q0 -197 -136 -347q-96 -107 -276 -172.5t-377 -65.5q-240 0 -373 105q-117 93 -117 287q0 299 285 596l22 -15q-194 -263 -194 -496q0 -332 423 -332q191 0 364 62t264 163q7 38 7 63 q0 282 -167 580z" />
<glyph unicode="&#x646;" horiz-adv-x="1595" vert-adv-y="1433" arabic-form="final" d="M1235 608q71 -132 118 -272q40 -122 78 -153q49 -40 192 -40h18l-38 -143h-46q-90 0 -153 47q1 -28 1 -45q0 -190 -136 -341q-95 -107 -275.5 -172.5t-377.5 -65.5q-240 0 -373 105q-117 93 -117 287q0 299 285 596l22 -15q-194 -263 -194 -496q0 -332 423 -332 q191 0 364 62t264 163q7 38 7 63q0 282 -167 580l61 155zM821 1124l134 -134l-134 -134l-135 134z" />
<glyph unicode="&#x646;" horiz-adv-x="689" vert-adv-y="1433" arabic-form="initial" d="M-45 0l37 143h33q271 0 370 49q-12 195 -166 401l62 157l44 17q160 -249 160 -465q0 -104 -55 -175.5t-159 -100.5q-89 -26 -283 -26h-43zM231 1125l135 -134l-135 -134l-135 134z" />
<glyph unicode="&#x646;" horiz-adv-x="751" vert-adv-y="1433" arabic-form="medial" d="M231 1125l135 -134l-135 -134l-135 134zM-45 0l37 143h23q276 0 380 49q-1 87 -46 196t-120 205l62 157l44 17q113 -165 152 -360q32 -155 66 -201q45 -63 181 -63h62l-37 -143h-73q-98 0 -152.5 34t-80.5 110q-34 -80 -123 -111q-94 -33 -342 -33h-33z" />
<glyph unicode="&#x647;" horiz-adv-x="1124" vert-adv-y="1433" arabic-form="isolated" d="M402 657l-86 51l68 113l32 11q294 -174 409 -290.5t115 -240.5q0 -129 -97 -240q-46 -53 -105 -74t-161 -21q-180 0 -273 58q-120 74 -120 218q0 90 51 186.5t167 228.5zM457 626q-159 -182 -159 -303q0 -116 104 -168q95 -47 231 -47q153 0 218 68q0 75 -25 128t-86 109 q-133 122 -283 213z" />
<glyph unicode="&#x647;" horiz-adv-x="998" vert-adv-y="1433" arabic-form="final" d="M592 828q-10 96 -38 158l132 138h34q9 -169 12 -233q24 -534 62 -630q26 -64 72 -91t131 -27h46l-44 -143h-38q-111 0 -172 25.5t-93 86.5q-48 91 -73 416q-9 117 -13 161q-110 -150 -334 -267q147 -66 309 -167l-83 -145q-181 119 -367 196l23 116q8 38 16.5 50t42.5 29 q238 125 375 327z" />
<glyph unicode="&#x647;" horiz-adv-x="1261" vert-adv-y="1433" arabic-form="initial" d="M319 143q-86 71 -117 123t-31 124q0 119 75 199.5t211 109.5l-121 108l43 120l32 12q687 -536 687 -729q0 -87 -95 -229q-70 -105 -145 -105q-49 0 -110 24t-205 100h-588l37 143h327zM654 100q129 -81 241 -81q87 0 87 90q0 77 -67 166q-29 37 -137 142q1 -25 1 -36 q0 -161 -125 -281zM552 182q104 93 104 222q0 89 -50.5 143t-134.5 54q-73 0 -122 -40t-49 -99q0 -90 107 -177q17 -13 145 -103z" />
<glyph unicode="&#x647;" horiz-adv-x="932" vert-adv-y="1433" arabic-form="medial" d="M209 143q-4 54 -4 102q0 189 45.5 347.5t129.5 264.5l32 3q114 -62 180 -183q98 -179 98 -405q0 -34 -14.5 -65.5t-76.5 -129.5q-36 -58 -46 -67.5t-37 -9.5h-136q42 -106 187 -262q17 196 111.5 300.5t256.5 104.5h42l-37 -143h-11q-150 0 -213 -45.5t-63 -153.5 q0 -114 115 -254l-122 -122q-345 319 -409 575h-282l37 143h217zM390 666q-66 -132 -66 -332q0 -122 17 -191h243q5 28 5 46q0 141 -54 270t-145 207z" />
<glyph unicode="&#x648;" horiz-adv-x="1155" vert-adv-y="1433" arabic-form="isolated" d="M829 -37q-152 6 -275 40q-104 29 -148.5 72t-44.5 116q0 122 103 272q92 134 192 134q105 0 192 -140q83 -135 83 -311q0 -127 -50 -265t-133 -243q-194 -241 -482 -241q-238 0 -335 189q-30 58 -54 170l30 20q69 -90 124 -139q112 -101 278 -101q122 0 235.5 57 t191.5 157q80 103 93 213zM835 115q-23 144 -93.5 238.5t-156.5 94.5q-54 0 -92 -39.5t-38 -95.5q0 -99 152 -151q101 -35 228 -47z" />
<glyph unicode="&#x648;" horiz-adv-x="1108" vert-adv-y="1433" arabic-form="final" d="M933 143h220l-37 -143h-197q-47 -208 -169 -360q-195 -243 -480 -243q-241 0 -339 189q-30 58 -54 170l30 20q84 -128 174 -183t218 -55q192 0 344 119q88 69 142 160t62 183q-255 3 -372.5 52t-117.5 153q0 128 102 268t194 140q110 0 193.5 -140t86.5 -330zM837 146 q-25 139 -95 228t-156 89q-54 0 -90.5 -40t-36.5 -100q0 -82 90 -124.5t288 -52.5z" />
<glyph unicode="&#x649;" horiz-adv-x="1757" vert-adv-y="1433" arabic-form="isolated" d="M1514 403l-38 13q6 34 6 47q0 29 -47 29q-68 0 -163.5 -33.5t-172.5 -84.5q-66 -43 -110 -98t-44 -94q0 -25 37.5 -41t134.5 -32q283 -48 357.5 -76t74.5 -87q0 -134 -115 -256q-127 -136 -351 -210q-190 -63 -402 -63q-228 0 -362 78q-81 47 -118 113q-56 100 -56 252 q0 140 44.5 271.5t147.5 296.5q73 116 163 217l27 -20q-150 -223 -213 -380t-63 -304q0 -214 165 -310q118 -68 325 -68q330 0 562 128q101 56 158 155q-21 29 -83.5 47t-273.5 54q-194 34 -214 46q-42 25 -42 79q0 80 50 177t132 177q101 99 235 157.5t259 58.5 q72 0 94 -32z" />
<glyph unicode="&#x649;" horiz-adv-x="1431" vert-adv-y="1433" arabic-form="final" d="M1476 143l-38 -143h-406q-53 0 -53 -51q0 -22 20.5 -31t110.5 -24q128 -23 174 -49q65 -38 65 -122q0 -127 -101 -207q-69 -55 -209 -87.5t-308 -32.5q-283 0 -433 102q-153 104 -153 339q0 287 215 623q62 97 140 184l26 -20q-19 -33 -92 -152q-184 -303 -184 -529 q0 -200 123.5 -302.5t366.5 -102.5q240 0 390 42t170 114q-70 29 -198 47q-111 15 -140 21.5t-49 21.5q-24 17 -24 62q0 128 94 229q62 68 231 68h262z" />
<glyph unicode="&#x64a;" horiz-adv-x="1757" vert-adv-y="1433" arabic-form="isolated" d="M725 -791l121 121l129 -128l-129 -129l-121 121l-121 -121l-128 129l128 128zM1514 403l-38 13q6 34 6 47q0 29 -47 29q-68 0 -163.5 -33.5t-172.5 -84.5q-66 -43 -110 -98t-44 -94q0 -25 37.5 -41t134.5 -32q283 -48 357.5 -76t74.5 -87q0 -134 -115 -256 q-127 -136 -351 -210q-190 -63 -402 -63q-228 0 -362 78q-81 47 -118 113q-56 100 -56 252q0 140 44.5 271.5t147.5 296.5q73 116 163 217l27 -20q-150 -223 -213 -380t-63 -304q0 -214 165 -310q118 -68 325 -68q330 0 562 128q101 56 158 155q-21 29 -83.5 47t-273.5 54 q-194 34 -214 46q-42 25 -42 79q0 80 50 177t132 177q101 99 235 157.5t259 58.5q72 0 94 -32z" />
<glyph unicode="&#x64a;" horiz-adv-x="1431" vert-adv-y="1433" arabic-form="final" d="M709 -791l121 121l129 -128l-129 -129l-121 121l-121 -121l-129 129l129 128zM1476 143l-38 -143h-406q-53 0 -53 -51q0 -22 20.5 -31t110.5 -24q128 -23 174 -49q65 -38 65 -122q0 -127 -101 -207q-69 -55 -209 -87.5t-308 -32.5q-283 0 -433 102q-153 104 -153 339 q0 287 215 623q62 97 140 184l26 -20q-19 -33 -92 -152q-184 -303 -184 -529q0 -200 123.5 -302.5t366.5 -102.5q240 0 390 42t170 114q-70 29 -198 47q-111 15 -140 21.5t-49 21.5q-24 17 -24 62q0 128 94 229q62 68 231 68h262z" />
<glyph unicode="&#x64a;" horiz-adv-x="689" vert-adv-y="1433" arabic-form="initial" d="M-45 0l37 143h33q271 0 370 49q-12 195 -166 401l62 157l44 17q160 -249 160 -465q0 -104 -55 -175.5t-159 -100.5q-89 -26 -283 -26h-43zM252 -323l121 121l129 -129l-129 -128l-121 121l-121 -121l-129 128l129 129z" />
<glyph unicode="&#x64a;" horiz-adv-x="751" vert-adv-y="1433" arabic-form="medial" d="M252 -323l121 121l129 -129l-129 -128l-121 121l-121 -121l-129 128l129 129zM-45 0l37 143h23q276 0 380 49q-1 87 -46 196t-120 205l62 157l44 17q113 -165 152 -360q32 -155 66 -201q45 -63 181 -63h62l-37 -143h-73q-98 0 -152.5 34t-80.5 110q-34 -80 -123 -111 q-94 -33 -342 -33h-33z" />
<glyph horiz-adv-x="0" vert-adv-y="0" />
<glyph horiz-adv-x="518" vert-adv-y="1433" />
<glyph unicode=" " horiz-adv-x="518" vert-adv-y="1433" />
<glyph unicode="!" horiz-adv-x="555" vert-adv-y="1433" d="M188 0v250h179v-250h-179zM219 512l-26 748v284h169v-284l-26 -748h-117z" />
<glyph unicode="&#x22;" horiz-adv-x="829" vert-adv-y="1433" d="M186 952l-36 428v164h169v-164l-34 -428h-99zM547 952l-37 428v164h170v-164l-35 -428h-98z" />
<glyph unicode="#" horiz-adv-x="1446" vert-adv-y="1433" d="M272 0l90 389h-219v117h246l105 450h-218v117h244l90 387h115l-90 -387h336l90 387h115l-91 -387h215v-117h-241l-105 -450h213v-117h-239l-90 -389h-115l90 389h-336l-90 -389h-115zM504 506h336l104 450h-336z" />
<glyph unicode="$" horiz-adv-x="1339" vert-adv-y="1433" d="M610 -190v155q-239 13 -371 135q-109 102 -159 308l135 32q42 -159 110 -235q99 -109 285 -123v647l-94 19q-401 82 -401 411q0 208 161 324q124 88 334 98v121h115v-125q217 -19 333 -127q94 -88 142 -254l-127 -45q-57 163 -143 233q-76 62 -205 80v-620l121 -25 q196 -41 288 -145q93 -104 93 -275q0 -212 -151 -325q-127 -94 -351 -109v-155h-115zM725 82q354 29 354 302q0 135 -80 211q-68 65 -217 99l-57 13v-625zM610 866v602q-160 -8 -251 -76q-105 -78 -105 -222q0 -117 74 -191q71 -71 227 -102z" />
<glyph unicode="%" horiz-adv-x="1956" vert-adv-y="1433" d="M563 -37l703 1534h123l-703 -1534h-123zM1529 883q345 0 345 -459q0 -461 -340 -461q-150 0 -231 80q-113 113 -113 379q0 461 339 461zM1530 782q-221 0 -221 -358q0 -361 219 -361q227 0 227 366q0 353 -225 353zM421 1497q345 0 345 -459q0 -460 -340 -460 q-150 0 -231 79q-113 112 -113 378q0 462 339 462zM422 1397q-221 0 -221 -359q0 -360 219 -360q227 0 227 363q0 356 -225 356z" />
<glyph unicode="&#x26;" horiz-adv-x="1401" vert-adv-y="1433" d="M457 895q-73 82 -107 133q-65 98 -65 206q0 164 123 254q101 73 268 73q117 0 210 -49q161 -84 161 -266q0 -161 -151 -270q-86 -61 -237 -120l418 -489q107 139 205 325l107 -55q-100 -203 -234 -365l236 -272h-183l-147 174q-90 -81 -179 -131q-141 -80 -303 -80 q-189 0 -324 102q-167 127 -167 342q0 177 103 301q89 107 266 187zM987 262l-457 545q-155 -71 -230 -161q-81 -98 -81 -235q0 -144 104 -240q103 -95 257 -95q118 0 217 47q93 44 190 139zM584 940q156 58 238 120q100 78 100 186q0 104 -90 166q-70 48 -166 48 q-111 0 -181 -62q-67 -60 -67 -159q0 -65 35 -127q31 -54 98 -133z" />
<glyph unicode="'" horiz-adv-x="465" vert-adv-y="1433" d="M184 952l-37 428v164h170v-164l-34 -428h-99z" />
<glyph unicode="(" horiz-adv-x="551" vert-adv-y="1433" d="M395 -387q-313 411 -313 965q0 553 313 964l103 -55q-267 -415 -267 -912q0 -229 70 -476q64 -223 197 -431z" />
<glyph unicode=")" horiz-adv-x="551" vert-adv-y="1433" d="M156 -387l-103 55q266 422 266 918q0 481 -266 901l103 55q313 -412 313 -962q0 -555 -313 -967z" />
<glyph unicode="*" horiz-adv-x="985" vert-adv-y="1433" d="M430 741l8 310l-266 -160l-57 100l266 152l-266 151l57 101l266 -160l-8 309h125l-8 -309l266 160l57 -101l-266 -151l266 -152l-57 -100l-266 160l8 -310h-125z" />
<glyph unicode="+" horiz-adv-x="1194" vert-adv-y="1433" d="M537 178v498h-486v110h486v498h118v-498h486v-110h-486v-498h-118z" />
<glyph unicode="," horiz-adv-x="465" vert-adv-y="1433" d="M154 -369l-66 64q133 142 133 280v25h-78v250h179v-240q0 -207 -168 -379z" />
<glyph unicode="-" horiz-adv-x="782" vert-adv-y="1433" d="M123 469v143h536v-143h-536z" />
<glyph unicode="." horiz-adv-x="465" vert-adv-y="1433" d="M143 0v250h179v-250h-179z" />
<glyph unicode="/" horiz-adv-x="481" vert-adv-y="1433" d="M0 0l362 1544h119l-362 -1544h-119z" />
<glyph unicode="0" horiz-adv-x="1194" vert-adv-y="1433" d="M596 1544q516 0 516 -790q0 -791 -514 -791q-516 0 -516 791q0 790 514 790zM596 1425q-369 0 -369 -671q0 -672 367 -672q183 0 279 163q94 159 94 518q0 662 -371 662z" />
<glyph unicode="1" horiz-adv-x="1194" vert-adv-y="1433" d="M641 0v1354q-180 -138 -352 -238l-57 98q229 140 401 293h139v-1507h-131z" />
<glyph unicode="2" horiz-adv-x="1194" vert-adv-y="1433" d="M105 0v63q0 216 214 407q77 68 228 168q196 129 263 199q117 124 117 283q0 142 -87 223q-90 84 -242 84q-170 0 -264 -113q-58 -70 -96 -208l-129 29q109 409 497 409q234 0 361 -135q105 -112 105 -295q0 -205 -157 -358q-73 -71 -212 -164q-199 -133 -266 -189 q-163 -136 -180 -278h831v-125h-983z" />
<glyph unicode="3" horiz-adv-x="1194" vert-adv-y="1433" d="M91 387l135 21q17 -149 84 -227q88 -101 268 -101q164 0 260 69q113 81 113 240q0 205 -165 280q-93 42 -253 44v123q161 7 268 78q121 80 121 239q0 137 -85 209q-81 70 -239 70q-201 0 -287 -142q-37 -60 -56 -153l-131 20q70 387 485 387q233 0 354 -115 q103 -98 103 -268q0 -180 -122 -282q-69 -58 -181 -99q169 -23 257 -131q76 -92 76 -249q0 -190 -116 -306q-131 -131 -395 -131q-237 0 -361 116q-109 101 -133 308z" />
<glyph unicode="4" horiz-adv-x="1194" vert-adv-y="1433" d="M784 0v338h-700v117l702 1052h131v-1052h172v-117h-170v-338h-135zM225 455h557v854z" />
<glyph unicode="5" horiz-adv-x="1194" vert-adv-y="1433" d="M130 289l131 35q30 -106 86 -160q88 -86 240 -86q200 0 289 141q63 100 63 278q0 162 -78 270q-84 116 -261 116q-111 0 -195 -45q-58 -32 -115 -103l-121 17l123 755h744v-123h-646l-77 -487q73 53 132 74q83 30 189 30q174 0 294 -101q157 -131 157 -401 q0 -248 -129 -391q-131 -145 -366 -145q-372 0 -460 326z" />
<glyph unicode="6" horiz-adv-x="1194" vert-adv-y="1433" d="M1062 1284l-120 -55q-89 201 -309 201q-227 0 -325 -234q-66 -156 -81 -455q56 108 160 169t242 61q181 0 302 -96q160 -129 160 -405q0 -212 -115 -348q-136 -159 -385 -159q-277 0 -401 202q-109 177 -109 535q0 417 150 637q140 207 407 207q316 0 424 -260zM610 852 q-175 0 -274 -120q-87 -107 -87 -276q0 -162 84 -266q93 -116 254 -116q151 0 246 89q113 107 113 309q0 181 -87 279q-89 101 -249 101z" />
<glyph unicode="7" horiz-adv-x="1194" vert-adv-y="1433" d="M340 0q96 448 243 770q129 284 368 612h-809v125h948v-141q-240 -334 -360 -597q-144 -313 -238 -769h-152z" />
<glyph unicode="8" horiz-adv-x="1194" vert-adv-y="1433" d="M332 782q-100 52 -150 120q-71 96 -71 235q0 202 146 313q126 94 347 94q166 0 286 -67q191 -107 191 -346q0 -235 -221 -349q275 -109 275 -387q0 -190 -132 -306q-144 -126 -405 -126q-241 0 -383 105q-158 117 -158 332q0 276 275 382zM591 723q-194 0 -297 -94 q-93 -84 -93 -230q0 -147 92 -231q103 -94 299 -94q185 0 288 78q111 85 111 248q0 161 -115 248q-99 75 -285 75zM596 1438q-174 0 -265 -89q-81 -79 -81 -215q0 -137 80 -216q92 -89 265 -89q159 0 250 74q97 79 97 232q0 136 -81 214q-91 89 -265 89z" />
<glyph unicode="9" horiz-adv-x="1194" vert-adv-y="1433" d="M141 201l116 59q81 -178 311 -178q229 0 326 231q67 160 76 453q-54 -104 -149 -163q-109 -66 -251 -66q-242 0 -366 159q-98 126 -98 337q0 232 133 372q131 139 368 139q309 0 428 -259q81 -175 81 -476q0 -419 -147 -638q-139 -208 -401 -208q-319 0 -427 238z M602 1434q-163 0 -258 -109q-93 -107 -93 -290q0 -179 86 -279q87 -101 243 -101q170 0 271 112q95 106 95 292q0 183 -111 289q-89 86 -233 86z" />
<glyph unicode=":" horiz-adv-x="465" vert-adv-y="1433" d="M143 0v250h179v-250h-179zM143 831v250h179v-250h-179z" />
<glyph unicode=";" horiz-adv-x="465" vert-adv-y="1433" d="M154 -369l-66 64q133 142 133 280v25h-78v250h179v-240q0 -207 -168 -379zM143 831v250h179v-250h-179z" />
<glyph unicode="&#x3c;" horiz-adv-x="1194" vert-adv-y="1433" d="M1141 178l-1090 496v114l1090 496v-123l-944 -430l944 -430v-123z" />
<glyph unicode="=" horiz-adv-x="1194" vert-adv-y="1433" d="M51 434v115h1090v-115h-1090zM51 913v115h1090v-115h-1090z" />
<glyph unicode="&#x3e;" horiz-adv-x="1194" vert-adv-y="1433" d="M51 178v123l944 430l-944 430v123l1090 -496v-114z" />
<glyph unicode="?" horiz-adv-x="1049" vert-adv-y="1433" d="M379 0v250h178v-250h-178zM401 506v153q0 87 50 138q26 27 77 60l29 19q133 88 172 130q78 86 78 200q0 262 -296 262q-163 0 -247 -100q-46 -54 -76 -158l-127 21q86 350 471 350q148 0 253 -62q161 -95 161 -304q0 -181 -158 -322q-58 -53 -143 -106q-65 -41 -83 -67 q-27 -38 -27 -102v-112h-134z" />
<glyph unicode="@" horiz-adv-x="1882" vert-adv-y="1433" d="M1100 475q-53 -64 -112 -96q-83 -47 -205 -47q-154 0 -238 92q-80 86 -80 239q0 135 59 267q64 143 177 227q119 88 266 88q120 0 189 -56q43 -36 75 -93l24 118h129l-131 -587q-20 -89 -20 -112q0 -73 102 -73q123 0 209 86q119 119 119 336q0 307 -279 497 q-184 126 -445 126q-302 0 -507 -195q-213 -202 -213 -527q0 -388 284 -585q176 -123 482 -123q203 0 363 66l41 -105q-163 -71 -406 -71q-259 0 -425 73q-217 95 -339 294q-121 197 -121 456q0 300 190 530q244 297 662 297q326 0 556 -183q148 -118 225 -288 q53 -118 53 -265q0 -258 -148 -402q-130 -127 -324 -127q-118 0 -168 49q-34 33 -44 94zM966 1137q-173 0 -279 -182q-81 -139 -81 -302q0 -211 203 -211q188 0 288 173q39 68 65 168q16 61 16 110q0 126 -63 190q-52 54 -149 54z" />
<glyph unicode="A" horiz-adv-x="1358" vert-adv-y="1433" d="M0 0l588 1544h184l586 -1544h-156l-153 412h-756l-156 -412h-137zM340 535h661l-327 878z" />
<glyph unicode="B" horiz-adv-x="1386" vert-adv-y="1433" d="M154 0v1544h591q474 0 474 -369q0 -150 -76 -240q-44 -52 -121 -95q125 -40 190 -109q93 -100 93 -284q0 -447 -562 -447h-589zM297 125h426q202 0 305 68q121 81 121 257q0 181 -126 258q-90 56 -265 56h-461v-639zM297 889h405q363 0 363 266q0 150 -92 210 q-81 54 -250 54h-426v-530z" />
<glyph unicode="C" horiz-adv-x="1464" vert-adv-y="1433" d="M1368 1128l-143 -38q-42 153 -120 238q-117 128 -329 128q-266 0 -403 -211q-119 -182 -119 -491q0 -297 126 -473q138 -191 389 -191q246 0 375 171q76 101 103 261l148 -22q-113 -537 -631 -537q-270 0 -442 162q-224 211 -224 633q0 388 182 607q180 216 494 216 q257 0 411 -128q137 -115 183 -325z" />
<glyph unicode="D" horiz-adv-x="1462" vert-adv-y="1433" d="M154 0v1544h464q746 0 746 -760q0 -394 -190 -589q-189 -195 -556 -195h-464zM297 129h332q304 0 452 187q129 162 129 462q0 637 -581 637h-332v-1286z" />
<glyph unicode="E" horiz-adv-x="1305" vert-adv-y="1433" d="M154 0v1544h1036v-129h-893v-563h848v-129h-848v-594h926v-129h-1069z" />
<glyph unicode="F" horiz-adv-x="1247" vert-adv-y="1433" d="M154 0v1544h1040v-129h-897v-549h809v-129h-809v-737h-143z" />
<glyph unicode="G" horiz-adv-x="1481" vert-adv-y="1433" d="M1362 1159l-143 -39q-53 170 -161 255q-104 81 -287 81q-261 0 -398 -211q-119 -182 -119 -492q0 -302 124 -474q135 -189 384 -189q194 0 322 94q139 103 139 273v170h-250v127h393v-754h-92l-41 164q-187 -201 -473 -201q-270 0 -441 162q-221 210 -221 632 q0 389 182 608q180 216 495 216q253 0 408 -125q129 -105 179 -297z" />
<glyph unicode="H" horiz-adv-x="1487" vert-adv-y="1433" d="M154 0v1544h143v-659h893v659h143v-1544h-143v756h-893v-756h-143z" />
<glyph unicode="I" horiz-adv-x="451" vert-adv-y="1433" d="M154 0v1544h143v-1544h-143z" />
<glyph unicode="J" horiz-adv-x="1143" vert-adv-y="1433" d="M61 430l140 19q14 -156 78 -244q85 -117 245 -117q332 0 332 373v1083h143v-1073q0 -261 -134 -392q-119 -116 -330 -116q-228 0 -355 149q-98 116 -119 318z" />
<glyph unicode="K" horiz-adv-x="1360" vert-adv-y="1433" d="M154 0v1544h143v-770l795 770h174l-607 -598l701 -946h-184l-619 844l-260 -250v-594h-143z" />
<glyph unicode="L" horiz-adv-x="1190" vert-adv-y="1433" d="M154 0v1544h143v-1415h852v-129h-995z" />
<glyph unicode="M" horiz-adv-x="1817" vert-adv-y="1433" d="M154 0v1544h249l496 -1390l531 1390h233v-1544h-139v1421l-541 -1421h-182l-508 1436v-1436h-139z" />
<glyph unicode="N" horiz-adv-x="1473" vert-adv-y="1433" d="M154 0v1544h190l832 -1360v1360h143v-1544h-189l-833 1362v-1362h-143z" />
<glyph unicode="O" horiz-adv-x="1608" vert-adv-y="1433" d="M803 1581q329 0 515 -211q191 -216 191 -598q0 -381 -191 -597q-187 -212 -510 -212q-298 0 -482 173q-228 216 -228 636q0 383 190 598q188 211 515 211zM803 1454q-260 0 -410 -200q-139 -184 -139 -482q0 -297 139 -483q150 -199 406 -199q239 0 386 164 q169 188 169 518q0 299 -140 482q-151 200 -411 200z" />
<glyph unicode="P" horiz-adv-x="1305" vert-adv-y="1433" d="M154 0v1544h622q223 0 347 -123q120 -119 120 -333q0 -213 -134 -336q-137 -125 -374 -125h-438v-627h-143zM297 750h451q171 0 264 104q80 89 80 239q0 177 -118 264q-84 62 -220 62h-457v-669z" />
<glyph unicode="Q" horiz-adv-x="1608" vert-adv-y="1433" d="M1272 -236l-162 259q-145 -60 -306 -60q-328 0 -516 212q-190 216 -190 597q0 382 190 598q187 211 515 211q329 0 515 -211q191 -216 191 -598q0 -466 -284 -682l159 -254zM1036 141l-184 295l113 72l182 -293q207 194 207 556q0 299 -140 483q-150 200 -411 200 q-260 0 -410 -200q-139 -185 -139 -482t139 -483q150 -199 407 -199q125 0 236 51z" />
<glyph unicode="R" horiz-adv-x="1382" vert-adv-y="1433" d="M154 0v1544h626q242 0 367 -117q121 -113 121 -321q0 -159 -89 -281q-72 -100 -202 -147l336 -678h-168l-309 651q-16 -2 -27 -2h-15h-16h-481v-649h-143zM297 774h467q184 0 274 95q78 84 78 236q0 177 -117 256q-87 58 -235 58h-467v-645z" />
<glyph unicode="S" horiz-adv-x="1339" vert-adv-y="1433" d="M61 410l142 34q43 -153 105 -222q115 -130 352 -130q427 0 427 296q0 130 -78 203q-72 68 -223 97l-262 51q-418 82 -418 420q0 188 131 300q142 122 404 122q269 0 412 -117q112 -92 164 -272l-134 -43q-50 142 -126 209q-109 98 -316 98q-194 0 -295 -81 q-92 -73 -92 -208q0 -119 73 -188q73 -68 226 -98l299 -58q203 -39 297 -145q96 -107 96 -280q0 -197 -134 -308q-151 -127 -445 -127q-278 0 -428 128q-121 103 -177 319z" />
<glyph unicode="T" horiz-adv-x="1368" vert-adv-y="1433" d="M612 0v1415h-561v129h1266v-129h-561v-1415h-144z" />
<glyph unicode="U" horiz-adv-x="1440" vert-adv-y="1433" d="M143 1544h144v-952q0 -271 119 -393q105 -109 316 -109q209 0 314 109q117 122 117 393v952h143v-964q0 -617 -572 -617q-581 0 -581 617v964z" />
<glyph unicode="V" horiz-adv-x="1276" vert-adv-y="1433" d="M547 0l-547 1544h152l491 -1415l490 1415h143l-553 -1544h-176z" />
<glyph unicode="W" horiz-adv-x="1907" vert-adv-y="1433" d="M387 0l-387 1544h152l344 -1440l366 1440h172l359 -1429l364 1429h150l-408 -1544h-196l-355 1356l-366 -1356h-195z" />
<glyph unicode="X" horiz-adv-x="1221" vert-adv-y="1433" d="M0 0l532 797l-495 747h164l411 -631l418 631h148l-492 -735l535 -809h-162l-455 692l-457 -692h-147z" />
<glyph unicode="Y" horiz-adv-x="1223" vert-adv-y="1433" d="M539 0v592l-539 952h158l458 -815l455 815h152l-541 -952v-592h-143z" />
<glyph unicode="Z" horiz-adv-x="1253" vert-adv-y="1433" d="M76 0v131l932 1284h-902v129h1061v-131l-931 -1284h948v-129h-1108z" />
<glyph unicode="[" horiz-adv-x="604" vert-adv-y="1433" d="M154 -393v1937h383v-106h-242v-1725h242v-106h-383z" />
<glyph unicode="\" horiz-adv-x="481" vert-adv-y="1433" d="M362 0l-362 1544h119l362 -1544h-119z" />
<glyph unicode="]" horiz-adv-x="604" vert-adv-y="1433" d="M68 -393v106h241v1725h-241v106h383v-1937h-383z" />
<glyph unicode="^" horiz-adv-x="1188" vert-adv-y="1433" d="M123 797l414 747h114l414 -747h-131l-340 626l-340 -626h-131z" />
<glyph unicode="_" vert-adv-y="1433" d="M0 -266v123h1024v-123h-1024z" />
<glyph unicode="`" horiz-adv-x="811" vert-adv-y="1433" d="M438 1272l-194 272h153l164 -272h-123z" />
<glyph unicode="a" horiz-adv-x="1020" vert-adv-y="1433" d="M782 686v88q0 234 -262 234q-142 0 -215 -71q-50 -48 -82 -142l-117 30q89 293 422 293q203 0 301 -99q84 -85 84 -237v-598q0 -75 29 -184h-129q-1 2 -3 11q-1 3 -4 11q-15 39 -15 132q-91 -114 -184 -157q-71 -34 -205 -34q-140 0 -229 77q-99 86 -99 234 q0 177 115 269q84 68 247 92zM782 573l-350 -55q-223 -35 -223 -239q0 -104 63 -157q55 -46 152 -46q128 0 222 62q136 90 136 257v178z" />
<glyph unicode="b" horiz-adv-x="1159" vert-adv-y="1433" d="M264 152v-152h-131v1544h131v-639q130 213 377 213q210 0 327 -160q109 -148 109 -405q0 -264 -112 -418q-124 -172 -359 -172q-118 0 -203 50q-74 43 -139 139zM613 1004q-178 0 -273 -151q-80 -126 -80 -325q0 -192 78 -311q90 -139 256 -139q149 0 234 89 q110 116 110 369q0 468 -325 468z" />
<glyph unicode="c" horiz-adv-x="1047" vert-adv-y="1433" d="M981 793l-131 -39q-31 120 -85 176q-73 76 -210 76q-168 0 -256 -137q-78 -120 -78 -328q0 -212 75 -327q88 -136 262 -136q172 0 250 124q37 57 58 148l127 -37q-103 -350 -431 -350q-214 0 -339 136q-141 153 -141 442q0 259 116 411q125 166 362 166q341 0 421 -325z " />
<glyph unicode="d" horiz-adv-x="1159" vert-adv-y="1433" d="M895 926v618h131v-1544h-131v170q-129 -207 -375 -207q-191 0 -306 129q-132 147 -132 430q0 266 112 422q124 174 352 174q218 0 349 -192zM558 1004q-158 0 -245 -114q-92 -120 -92 -352q0 -460 326 -460q162 0 255 122q97 127 97 347q0 195 -78 315q-93 142 -263 142z " />
<glyph unicode="e" horiz-adv-x="1116" vert-adv-y="1433" d="M1040 518h-819q6 -183 72 -292q89 -148 272 -148q161 0 249 100q43 49 83 156l123 -45q-37 -114 -109 -190q-127 -136 -344 -136q-211 0 -339 134q-146 154 -146 440q0 254 124 411q133 170 371 170q230 0 355 -149q110 -133 110 -348v-21v-22v-14v-14q0 -18 -2 -32z M223 621h682q-1 154 -63 250q-89 139 -268 139q-187 0 -283 -157q-59 -97 -68 -232z" />
<glyph unicode="f" horiz-adv-x="592" vert-adv-y="1433" d="M205 0v973h-168v108h168v187q0 297 270 297q52 0 92 -6q6 -1 23 -3q12 -2 26 -4l-12 -112q-66 8 -104 8q-87 0 -125 -48q-39 -48 -39 -151v-168h256v-108h-256v-973h-131z" />
<glyph unicode="g" horiz-adv-x="1159" vert-adv-y="1433" d="M119 -166l114 45q32 -90 94 -133q79 -55 234 -55q139 0 212 45q52 33 81 81q41 69 41 214v162q-130 -211 -379 -211q-210 0 -325 148q-109 140 -109 394q0 266 112 421q124 173 354 173q224 0 347 -190v153h131v-1034q0 -270 -129 -379q-108 -92 -335 -92 q-224 0 -343 103q-70 59 -100 155zM555 1004q-156 0 -242 -112q-92 -120 -92 -352q0 -444 327 -444q161 0 254 115q97 121 97 341q0 223 -102 346q-88 106 -242 106z" />
<glyph unicode="h" horiz-adv-x="1130" vert-adv-y="1433" d="M133 0v1544h131v-647q62 103 129 152q93 69 243 69q171 0 268 -102q93 -98 93 -264v-752h-131v717q0 284 -261 284q-165 0 -261 -151q-80 -128 -80 -309v-541h-131z" />
<glyph unicode="i" horiz-adv-x="418" vert-adv-y="1433" d="M143 0v1081h131v-1081h-131zM143 1335v209h131v-209h-131z" />
<glyph unicode="j" horiz-adv-x="430" vert-adv-y="1433" d="M-117 -403l17 112q59 -14 117 -14q80 0 109 36q30 38 30 117v1233h131v-1269q0 -116 -60 -176q-59 -60 -168 -60h-15q-82 0 -161 21zM156 1337v207h131v-207h-131z" />
<glyph unicode="k" horiz-adv-x="1001" vert-adv-y="1433" d="M133 0v1544h131v-932l502 469h168l-404 -379l465 -702h-161l-400 612l-170 -161v-451h-131z" />
<glyph unicode="l" horiz-adv-x="418" vert-adv-y="1433" d="M143 0v1544h131v-1544h-131z" />
<glyph unicode="m" horiz-adv-x="1751" vert-adv-y="1433" d="M133 0v1081h131v-188q61 106 118 152q91 73 232 73q230 0 308 -225q57 104 122 153q94 72 237 72t232 -80q105 -95 105 -276v-762h-131v721q0 280 -233 280q-165 0 -254 -177q-60 -118 -60 -283v-541h-131v717q0 284 -232 284q-148 0 -237 -148q-76 -126 -76 -312v-541 h-131z" />
<glyph unicode="n" horiz-adv-x="1130" vert-adv-y="1433" d="M133 0v1081h131v-188q61 105 125 153q97 72 247 72q170 0 268 -102q93 -98 93 -264v-752h-131v717q0 284 -261 284q-165 0 -261 -151q-80 -128 -80 -309v-541h-131z" />
<glyph unicode="o" horiz-adv-x="1139" vert-adv-y="1433" d="M569 1118q238 0 368 -164q120 -154 120 -413q0 -260 -120 -413q-130 -165 -364 -165q-219 0 -346 135q-145 154 -145 443q0 261 119 413q130 164 368 164zM570 1006q-196 0 -286 -161q-63 -113 -63 -308q0 -204 79 -325q91 -136 266 -136q170 0 264 125q88 116 88 344 q0 204 -81 324q-92 137 -267 137z" />
<glyph unicode="p" horiz-adv-x="1159" vert-adv-y="1433" d="M133 -393v1474h131v-174q129 211 376 211q211 0 328 -158q109 -147 109 -403q0 -265 -112 -420q-124 -174 -355 -174q-219 0 -346 191v-547h-131zM609 1004q-176 0 -270 -149q-79 -127 -79 -325q0 -192 77 -312q90 -140 255 -140q147 0 234 90q112 116 112 370 q0 466 -329 466z" />
<glyph unicode="q" horiz-adv-x="1159" vert-adv-y="1433" d="M895 -393v565q-70 -113 -170 -165q-85 -44 -208 -44q-209 0 -326 158q-109 147 -109 403q0 266 112 421q125 173 353 173q219 0 348 -190v153h131v-1474h-131zM554 1004q-155 0 -241 -112q-92 -120 -92 -352q0 -462 326 -462q162 0 255 122q97 128 97 351q0 225 -105 350 q-87 103 -240 103z" />
<glyph unicode="r" horiz-adv-x="651" vert-adv-y="1433" d="M133 0v1081h131v-190q55 106 126 158q61 45 155 45q57 0 106 -13l-14 -114q-35 12 -90 12q-130 0 -200 -94q-83 -111 -83 -330v-555h-131z" />
<glyph unicode="s" horiz-adv-x="989" vert-adv-y="1433" d="M47 297l121 31q34 -119 82 -171q78 -83 237 -83q132 0 208 51q75 52 75 149q0 84 -48 131q-45 44 -142 64l-191 39q-301 62 -301 303q0 142 113 228q104 79 280 79q330 0 414 -293l-117 -32q-39 119 -119 172q-68 45 -188 45q-131 0 -198 -57q-56 -48 -56 -136 q0 -79 48 -124q49 -45 163 -68l207 -41q270 -54 270 -308q0 -153 -122 -238q-107 -75 -291 -75q-208 0 -321 103q-81 73 -124 231z" />
<glyph unicode="t" horiz-adv-x="639" vert-adv-y="1433" d="M205 973h-148v108h148v308h131v-308h235v-108h-235v-721q0 -87 33 -122q28 -30 102 -30q59 0 111 9l10 -117q-109 -12 -168 -12q-97 0 -148 41q-71 57 -71 196v756z" />
<glyph unicode="u" horiz-adv-x="1130" vert-adv-y="1433" d="M133 1081h131v-716q0 -129 58 -202q67 -85 200 -85q167 0 263 153q81 128 81 308v542h131v-1081h-131v190q-60 -106 -126 -154q-98 -73 -250 -73q-130 0 -220 64q-137 97 -137 303v751z" />
<glyph unicode="v" horiz-adv-x="954" vert-adv-y="1433" d="M377 0l-377 1081h137l342 -987l346 987h129l-381 -1081h-196z" />
<glyph unicode="w" horiz-adv-x="1497" vert-adv-y="1433" d="M307 0l-307 1081h139l269 -997l262 997h166l262 -997l270 997h129l-307 -1081h-193l-247 954l-248 -954h-195z" />
<glyph unicode="x" horiz-adv-x="866" vert-adv-y="1433" d="M0 0l360 557l-337 524h147l264 -415l266 415h138l-336 -516l364 -565h-147l-291 459l-295 -459h-133z" />
<glyph unicode="y" horiz-adv-x="989" vert-adv-y="1433" d="M63 -399l25 110q68 -18 119 -18q77 0 121 43q32 32 59 100l66 170l-453 1075h141l377 -901l340 901h131l-489 -1296q-39 -102 -100 -154q-63 -55 -164 -55h-12q-80 0 -161 25z" />
<glyph unicode="z" horiz-adv-x="922" vert-adv-y="1433" d="M61 0v106l631 867h-604v108h750v-106l-633 -866h655v-109h-799z" />
<glyph unicode="{" horiz-adv-x="895" vert-adv-y="1433" d="M147 522v107q89 15 127 37q78 45 78 157v492q0 142 80 196q51 33 156 33h160v-106h-125q-83 0 -113 -52q-21 -37 -21 -131v-462q0 -190 -165 -218q165 -25 165 -217v-462q0 -108 31 -145q31 -38 103 -38h125v-106h-160q-115 0 -170 44q-66 53 -66 185v492q0 126 -101 167 q-38 16 -104 27z" />
<glyph unicode="|" horiz-adv-x="481" vert-adv-y="1433" d="M215 0v1544h117v-1544h-117z" />
<glyph unicode="}" horiz-adv-x="895" vert-adv-y="1433" d="M150 -393v106h124q89 0 116 59q18 38 18 124v462q0 191 165 217q-165 27 -165 218v462q0 108 -31 145q-32 38 -103 38h-124v106h159q131 0 185 -58q51 -55 51 -171v-492q0 -116 84 -160q37 -20 121 -34v-107q-102 -18 -142 -46q-63 -44 -63 -148v-492q0 -143 -80 -195 q-51 -34 -156 -34h-159z" />
<glyph unicode="~" horiz-adv-x="1417" vert-adv-y="1433" d="M229 457l-106 24q33 197 103 294q75 104 208 104q137 0 268 -138l95 -100q75 -79 119 -98q24 -11 75 -11q102 0 151 121q27 67 46 189l106 -25q-28 -180 -87 -274q-78 -123 -218 -123q-155 0 -301 160l-61 67q-65 71 -97 92q-43 29 -100 29q-105 0 -156 -131 q-24 -63 -45 -180z" />
<glyph unicode="&#xa0;" horiz-adv-x="518" vert-adv-y="1433" />
<glyph unicode="&#xa1;" horiz-adv-x="555" vert-adv-y="1433" d="M193 -396v285l26 747h117l26 -747v-285h-169zM188 898v250h179v-250h-179z" />
<glyph unicode="&#xa2;" horiz-adv-x="1047" vert-adv-y="1433" d="M496 -37v193q-187 24 -293 156q-121 152 -121 419q0 278 133 432q105 122 281 144v190h118v-188q300 -34 367 -324l-131 -39q-33 126 -87 179t-149 69v-924q120 20 183 103q45 59 69 166l127 -37q-55 -178 -156 -260q-89 -73 -223 -88v-191h-118zM496 272v920 q-127 -23 -197 -132q-78 -122 -78 -328q0 -408 275 -460z" />
<glyph unicode="&#xa3;" horiz-adv-x="1196" vert-adv-y="1433" d="M74 0v127q135 66 224 156q140 141 140 305v28h-268v107h240q-28 56 -107 148q-55 65 -90 125q-51 87 -51 197q0 111 59 204q117 184 394 184q228 0 353 -109q78 -69 132 -204l-125 -54q-49 129 -134 189q-84 59 -228 59q-163 0 -246 -84q-66 -67 -66 -184 q0 -111 124 -250q115 -130 140 -221h357v-107h-340v-4q0 -117 -57 -231q-62 -122 -230 -256h840v-125h-1061z" />
<glyph unicode="&#xa4;" horiz-adv-x="1212" vert-adv-y="1433" d="M168 244l-92 92l112 113q-112 140 -112 325q0 181 112 326l-112 112l92 93l113 -113q145 113 325 113t326 -113l112 113l93 -93l-113 -112q113 -145 113 -326q0 -180 -113 -325l113 -113l-93 -92l-112 112q-141 -112 -326 -112q-180 0 -325 112zM602 1186 q-163 0 -281 -121q-118 -123 -118 -291t118 -291q118 -121 282 -121q152 0 265 100q142 125 142 312q0 122 -68 226q-64 98 -160 143q-90 43 -180 43z" />
<glyph unicode="&#xa5;" horiz-adv-x="1223" vert-adv-y="1433" d="M539 0v299h-310v107h310v186h-310v106h250l-479 846h158l458 -815l455 815h152l-480 -846h248v-106h-309v-186h309v-107h-309v-299h-143z" />
<glyph unicode="&#xa6;" horiz-adv-x="481" vert-adv-y="1433" d="M215 0v514h117v-514h-117zM215 1030v514h117v-514h-117z" />
<glyph unicode="&#xa7;" horiz-adv-x="1090" vert-adv-y="1433" d="M92 76l121 43q46 -99 105 -149q88 -74 234 -74q139 0 214 46q84 52 84 154q0 96 -80 152q-49 34 -143 59l-219 58q-182 48 -255 129q-59 66 -59 177q0 135 97 220q54 48 147 86q-127 41 -185 104q-61 66 -61 175q0 138 101 220q111 89 310 89q230 0 347 -115 q64 -63 100 -176l-121 -39q-42 107 -98 155q-79 66 -227 66q-133 0 -206 -47q-79 -51 -79 -150q0 -85 69 -132q44 -28 158 -58l236 -61q191 -49 259 -151q38 -56 38 -155q0 -132 -97 -216q-53 -47 -147 -85q132 -48 190 -116q60 -69 60 -188q0 -156 -133 -242 q-110 -72 -300 -72q-351 0 -460 293zM569 449q104 11 188 72q93 67 93 172q0 91 -70 143q-49 36 -147 61l-121 31q-101 -10 -177 -59q-112 -72 -112 -183q0 -157 217 -207z" />
<glyph unicode="&#xa8;" horiz-adv-x="811" vert-adv-y="1433" d="M170 1303v209h137v-209h-137zM502 1303v209h137v-209h-137z" />
<glyph unicode="&#xa9;" horiz-adv-x="1815" vert-adv-y="1433" d="M1227 950l-117 -30q-23 86 -62 130q-57 64 -164 64q-147 0 -216 -124q-47 -84 -47 -232q0 -144 65 -233q68 -93 193 -93q202 0 241 225l121 -16q-67 -313 -367 -313q-154 0 -253 90q-127 115 -127 346q0 212 103 332q103 121 285 121q283 0 345 -267zM908 1581 q227 0 422 -121q206 -127 306 -336q80 -169 80 -355q0 -243 -140 -451q-134 -199 -358 -295q-140 -60 -310 -60q-312 0 -543 208q-125 114 -195 267q-72 160 -72 334q0 220 110 408q108 184 291 290q190 111 409 111zM907 1466q-282 0 -481 -203q-201 -205 -201 -491 t201 -490q93 -96 216 -150q125 -54 261 -54q256 0 447 167q111 97 174 232q65 139 65 295q0 286 -200 491q-200 203 -482 203z" />
<glyph unicode="&#xaa;" horiz-adv-x="862" vert-adv-y="1433" d="M596 1294v35q0 76 -42 109q-46 35 -135 35q-110 0 -159 -57q-20 -24 -37 -66l-96 24q63 191 303 191q275 0 275 -217v-373q0 -83 20 -137h-107q-13 32 -16 84q-45 -53 -95 -76q-66 -31 -168 -31q-105 0 -168 49q-69 54 -69 155q0 106 63 164q65 60 200 79zM596 1202 l-223 -35q-160 -25 -160 -138q0 -122 149 -122q98 0 162 46q72 52 72 151v98z" />
<glyph unicode="&#xab;" horiz-adv-x="844" vert-adv-y="1433" d="M281 174l-244 361l244 360h145l-244 -360l244 -361h-145zM662 174l-244 361l244 360h145l-244 -360l244 -361h-145z" />
<glyph unicode="&#xac;" horiz-adv-x="1194" vert-adv-y="1433" d="M1026 434v479h-975v115h1090v-594h-115z" />
<glyph unicode="&#xad;" horiz-adv-x="782" vert-adv-y="1433" d="M123 469v143h536v-143h-536z" />
<glyph unicode="&#xae;" horiz-adv-x="1815" vert-adv-y="1433" d="M588 348v848h362q143 0 215 -66q72 -65 72 -177q0 -96 -60 -166q-38 -46 -98 -72l191 -367h-133l-170 344h-19h-243v-344h-117zM705 795h231q176 0 176 153q0 148 -176 148h-231v-301zM908 1581q227 0 422 -121q206 -127 306 -336q80 -169 80 -355q0 -243 -140 -451 q-134 -199 -358 -295q-140 -60 -310 -60q-312 0 -543 208q-125 114 -195 267q-72 160 -72 334q0 220 110 408q108 184 291 290q190 111 409 111zM907 1466q-282 0 -481 -203q-201 -205 -201 -491t201 -490q93 -96 216 -150q125 -54 261 -54q256 0 447 167q111 97 174 232 q65 139 65 295q0 286 -200 491q-200 203 -482 203z" />
<glyph unicode="&#xaf;" horiz-adv-x="811" vert-adv-y="1433" d="M104 1352v112h603v-112h-603z" />
<glyph unicode="&#xb0;" horiz-adv-x="877" vert-adv-y="1433" d="M438 1565q104 0 192 -58q81 -52 120 -136q34 -73 34 -153q0 -141 -101 -242q-99 -99 -243 -99q-131 0 -228 82q-120 102 -120 262q0 144 101 243q102 101 245 101zM436 1468q-96 0 -165 -71q-70 -72 -70 -176q0 -105 70 -177q69 -71 165 -71q94 0 168 69q72 67 72 182 q0 117 -88 190q-65 54 -152 54z" />
<glyph unicode="&#xb1;" horiz-adv-x="1194" vert-adv-y="1433" d="M51 0v115h486v497h-486v111h486v498h118v-498h486v-111h-486v-497h486v-115h-1090z" />
<glyph unicode="&#xb2;" horiz-adv-x="848" vert-adv-y="1433" d="M86 598v51q0 167 241 309q173 102 210 136q69 65 69 148t-62 125q-48 32 -130 32q-164 0 -213 -170l-111 18q67 250 335 250q173 0 250 -93q52 -63 52 -166q0 -122 -103 -212q-48 -42 -139 -94q-188 -108 -235 -171q-17 -21 -29 -56h516v-107h-651z" />
<glyph unicode="&#xb3;" horiz-adv-x="848" vert-adv-y="1433" d="M80 825l117 17q16 -166 211 -166q223 0 223 160q0 110 -110 146q-48 15 -140 19v99q103 4 161 39q72 43 72 120q0 144 -197 144q-117 0 -171 -73q-23 -32 -33 -75l-109 17q53 225 322 225q151 0 232 -66q73 -60 73 -162q0 -164 -172 -220q193 -37 193 -216 q0 -105 -77 -174q-91 -81 -247 -81q-175 0 -260 63q-77 58 -88 184z" />
<glyph unicode="&#xb4;" horiz-adv-x="811" vert-adv-y="1433" d="M246 1272l164 272h153l-194 -272h-123z" />
<glyph unicode="&#xb5;" horiz-adv-x="1130" vert-adv-y="1433" d="M133 -393v1474h131v-716q0 -129 58 -202q67 -85 200 -85q167 0 263 153q81 128 81 308v542h131v-1081h-131v190q-56 -99 -119 -151q-94 -76 -224 -76q-103 0 -172 40q-44 24 -87 78v-474h-131z" />
<glyph unicode="&#xb6;" horiz-adv-x="1401" vert-adv-y="1433" d="M659 -393v954h-100q-222 0 -359 133q-139 135 -139 361t122 357q122 132 335 132h809v-108h-129v-1829h-115v1829h-309v-1829h-115z" />
<glyph unicode="&#xb7;" horiz-adv-x="465" vert-adv-y="1433" d="M143 606v250h179v-250h-179z" />
<glyph unicode="&#xb8;" horiz-adv-x="811" vert-adv-y="1433" d="M236 -393l194 272h123l-164 -272h-153z" />
<glyph unicode="&#xb9;" horiz-adv-x="848" vert-adv-y="1433" d="M428 598v756q-87 -62 -207 -123l-43 84q128 65 252 162h105v-879h-107z" />
<glyph unicode="&#xba;" horiz-adv-x="938" vert-adv-y="1433" d="M473 1565q167 0 261 -107q85 -97 85 -268q0 -170 -85 -268q-94 -107 -263 -107q-157 0 -249 89q-103 99 -103 286q0 194 109 293q89 82 245 82zM465 1473q-118 0 -178 -83q-51 -69 -51 -200q0 -130 51 -201q59 -84 180 -84q235 0 235 290q0 142 -67 214q-61 64 -170 64z " />
<glyph unicode="&#xbb;" horiz-adv-x="844" vert-adv-y="1433" d="M37 174l244 361l-244 360h145l244 -360l-244 -361h-145zM418 174l244 361l-244 360h145l244 -360l-244 -361h-145z" />
<glyph unicode="&#xbc;" horiz-adv-x="1956" vert-adv-y="1433" d="M563 -37l703 1534h123l-703 -1534h-123zM1642 -16v176h-475v98l457 604h119v-610h92v-92h-92v-176h-101zM1276 252h364v481zM422 598v756q-99 -69 -207 -123l-43 84q128 65 252 162h104v-879h-106z" />
<glyph unicode="&#xbd;" horiz-adv-x="1956" vert-adv-y="1433" d="M553 -37l702 1534h123l-702 -1534h-123zM1210 -16v51q0 169 260 321q151 87 191 123q70 62 70 148q0 82 -62 124q-50 33 -132 33q-162 0 -212 -170l-111 19q67 250 336 250q172 0 249 -93q52 -62 52 -165q0 -123 -100 -212q-48 -42 -141 -96q-191 -111 -236 -170 q-17 -21 -28 -57h516v-106h-652zM422 598v756q-99 -69 -207 -123l-43 84q128 65 252 162h104v-879h-106z" />
<glyph unicode="&#xbe;" horiz-adv-x="1956" vert-adv-y="1433" d="M623 -37l702 1534h123l-703 -1534h-122zM1642 -16v176h-475v98l457 604h119v-610h92v-92h-92v-176h-101zM1276 252h364v481zM88 825l117 17q16 -166 212 -166q222 0 222 160q0 110 -110 146q-48 15 -140 19v99q103 4 161 39q73 43 73 120q0 144 -198 144 q-167 0 -204 -148l-108 17q21 90 73 143q81 82 248 82q151 0 232 -66q73 -60 73 -162q0 -164 -172 -220q193 -37 193 -216q0 -105 -76 -174q-90 -81 -248 -81q-180 0 -260 63q-77 62 -88 184z" />
<glyph unicode="&#xbf;" horiz-adv-x="1049" vert-adv-y="1433" d="M514 642h133v-153q0 -87 -49 -137q-27 -28 -137 -99l-9 -7q-90 -58 -132 -105q-78 -85 -78 -199q0 -262 295 -262q184 0 265 124q32 49 58 134l127 -21q-88 -350 -468 -350q-189 0 -302 94q-115 96 -115 269q0 184 155 322q54 49 143 107q68 43 86 69q28 39 28 102v112z M492 898v250h178v-250h-178z" />
<glyph unicode="&#xc0;" horiz-adv-x="1358" vert-adv-y="1433" d="M0 0l588 1544h184l586 -1544h-156l-153 412h-756l-156 -412h-137zM340 535h661l-327 878zM622 1659l-194 272h153l164 -272h-123z" />
<glyph unicode="&#xc1;" horiz-adv-x="1358" vert-adv-y="1433" d="M0 0l588 1544h184l586 -1544h-156l-153 412h-756l-156 -412h-137zM340 535h661l-327 878zM615 1659l164 272h153l-194 -272h-123z" />
<glyph unicode="&#xc2;" horiz-adv-x="1358" vert-adv-y="1433" d="M0 0l588 1544h184l586 -1544h-156l-153 412h-756l-156 -412h-137zM340 535h661l-327 878zM366 1659l238 272h143l238 -272h-133l-176 180l-177 -180h-133z" />
<glyph unicode="&#xc3;" horiz-adv-x="1358" vert-adv-y="1433" d="M0 0l588 1544h184l586 -1544h-156l-153 412h-756l-156 -412h-137zM340 535h661l-327 878zM403 1702l-100 24q48 181 193 181q71 0 163 -47l68 -35q64 -33 109 -33q66 0 96 100l100 -24q-24 -87 -76 -137q-47 -46 -115 -46q-67 0 -167 50l-64 32q-66 33 -103 33 q-67 0 -104 -98z" />
<glyph unicode="&#xc4;" horiz-adv-x="1358" vert-adv-y="1433" d="M0 0l588 1544h184l586 -1544h-156l-153 412h-756l-156 -412h-137zM340 535h661l-327 878zM446 1688v209h137v-209h-137zM778 1688v209h137v-209h-137z" />
<glyph unicode="&#xc5;" horiz-adv-x="1358" vert-adv-y="1433" d="M577 1516q-133 47 -133 201q0 111 70 168q60 49 169 49q129 0 190 -79q42 -54 42 -141q0 -108 -71 -165q-25 -21 -62 -33l576 -1516h-156l-153 412h-756l-156 -412h-137zM340 535h661l-327 878zM678 1856q-81 0 -122 -53q-26 -34 -26 -87q0 -69 49 -108q37 -30 99 -30 q69 0 113 40q38 36 38 101q0 64 -43 101q-42 36 -108 36z" />
<glyph unicode="&#xc6;" horiz-adv-x="2271" vert-adv-y="1433" d="M-20 0l1038 1544h1139v-129h-893v-563h847v-129h-847v-594h925v-129h-1069v412h-708l-277 -412h-155zM494 535h626v880h-35z" />
<glyph unicode="&#xc7;" horiz-adv-x="1464" vert-adv-y="1433" d="M1368 1128l-143 -38q-42 153 -120 238q-117 128 -329 128q-266 0 -403 -211q-119 -182 -119 -491q0 -297 126 -473q138 -191 389 -191q246 0 375 171q76 101 103 261l148 -22q-113 -537 -631 -537q-270 0 -442 162q-224 211 -224 633q0 388 182 607q180 216 494 216 q257 0 411 -128q137 -115 183 -325zM498 -393l194 272h123l-164 -272h-153z" />
<glyph unicode="&#xc8;" horiz-adv-x="1305" vert-adv-y="1433" d="M154 0v1544h1036v-129h-893v-563h848v-129h-848v-594h926v-129h-1069zM680 1659l-194 272h153l164 -272h-123z" />
<glyph unicode="&#xc9;" horiz-adv-x="1305" vert-adv-y="1433" d="M154 0v1544h1036v-129h-893v-563h848v-129h-848v-594h926v-129h-1069zM580 1659l164 272h153l-194 -272h-123z" />
<glyph unicode="&#xca;" horiz-adv-x="1305" vert-adv-y="1433" d="M154 0v1544h1036v-129h-893v-563h848v-129h-848v-594h926v-129h-1069zM368 1659l238 272h143l238 -272h-133l-176 180l-177 -180h-133z" />
<glyph unicode="&#xcb;" horiz-adv-x="1305" vert-adv-y="1433" d="M154 0v1544h1036v-129h-893v-563h848v-129h-848v-594h926v-129h-1069zM446 1688v209h137v-209h-137zM778 1688v209h137v-209h-137z" />
<glyph unicode="&#xcc;" horiz-adv-x="451" vert-adv-y="1433" d="M153 0v1544h143v-1544h-143zM168 1659l-194 272h153l164 -272h-123z" />
<glyph unicode="&#xcd;" horiz-adv-x="451" vert-adv-y="1433" d="M154 0v1544h143v-1544h-143zM162 1659l164 272h153l-194 -272h-123z" />
<glyph unicode="&#xce;" horiz-adv-x="451" vert-adv-y="1433" d="M154 0v1544h143v-1544h-143zM-90 1659l238 272h143l238 -272h-133l-176 180l-177 -180h-133z" />
<glyph unicode="&#xcf;" horiz-adv-x="451" vert-adv-y="1433" d="M154 0v1544h143v-1544h-143zM-6 1687v209h137v-209h-137zM326 1687v209h137v-209h-137z" />
<glyph unicode="&#xd0;" horiz-adv-x="1462" vert-adv-y="1433" d="M154 0v723h-154v123h154v698h464q746 0 746 -760q0 -394 -190 -589q-189 -195 -556 -195h-464zM297 129h332q304 0 452 187q129 162 129 462q0 637 -581 637h-332v-569h348v-123h-348v-594z" />
<glyph unicode="&#xd1;" horiz-adv-x="1473" vert-adv-y="1433" d="M154 0v1544h190l832 -1360v1360h143v-1544h-189l-833 1362v-1362h-143zM489 1702l-100 24q48 181 193 181q71 0 163 -47l68 -35q64 -33 109 -33q66 0 96 100l100 -24q-24 -87 -76 -137q-47 -46 -115 -46q-67 0 -167 50l-64 32q-66 33 -103 33q-67 0 -104 -98z" />
<glyph unicode="&#xd2;" horiz-adv-x="1608" vert-adv-y="1433" d="M803 1581q329 0 515 -211q191 -216 191 -598q0 -381 -191 -597q-187 -212 -510 -212q-298 0 -482 173q-228 216 -228 636q0 383 190 598q188 211 515 211zM803 1454q-260 0 -410 -200q-139 -184 -139 -482q0 -297 139 -483q150 -199 406 -199q239 0 386 164 q169 188 169 518q0 299 -140 482q-151 200 -411 200zM771 1659l-194 272h153l164 -272h-123z" />
<glyph unicode="&#xd3;" horiz-adv-x="1608" vert-adv-y="1433" d="M803 1581q329 0 515 -211q191 -216 191 -598q0 -381 -191 -597q-187 -212 -510 -212q-298 0 -482 173q-228 216 -228 636q0 383 190 598q188 211 515 211zM803 1454q-260 0 -410 -200q-139 -184 -139 -482q0 -297 139 -483q150 -199 406 -199q239 0 386 164 q169 188 169 518q0 299 -140 482q-151 200 -411 200zM731 1659l164 272h153l-194 -272h-123z" />
<glyph unicode="&#xd4;" horiz-adv-x="1608" vert-adv-y="1433" d="M803 1581q329 0 515 -211q191 -216 191 -598q0 -381 -191 -597q-187 -212 -510 -212q-298 0 -482 173q-228 216 -228 636q0 383 190 598q188 211 515 211zM803 1454q-260 0 -410 -200q-139 -184 -139 -482q0 -297 139 -483q150 -199 406 -199q239 0 386 164 q169 188 169 518q0 299 -140 482q-151 200 -411 200zM491 1659l238 272h143l238 -272h-133l-176 180l-177 -180h-133z" />
<glyph unicode="&#xd5;" horiz-adv-x="1608" vert-adv-y="1433" d="M803 1581q329 0 515 -211q191 -216 191 -598q0 -381 -191 -597q-187 -212 -510 -212q-298 0 -482 173q-228 216 -228 636q0 383 190 598q188 211 515 211zM803 1454q-260 0 -410 -200q-139 -184 -139 -482q0 -297 139 -483q150 -199 406 -199q239 0 386 164 q169 188 169 518q0 299 -140 482q-151 200 -411 200zM544 1702l-100 24q48 181 193 181q71 0 163 -47l68 -35q64 -33 109 -33q66 0 96 100l100 -24q-24 -87 -76 -137q-47 -46 -115 -46q-67 0 -167 50l-64 32q-66 33 -103 33q-67 0 -104 -98z" />
<glyph unicode="&#xd6;" horiz-adv-x="1608" vert-adv-y="1433" d="M803 1581q329 0 515 -211q191 -216 191 -598q0 -381 -191 -597q-187 -212 -510 -212q-298 0 -482 173q-228 216 -228 636q0 383 190 598q188 211 515 211zM803 1454q-260 0 -410 -200q-139 -184 -139 -482q0 -297 139 -483q150 -199 406 -199q239 0 386 164 q169 188 169 518q0 299 -140 482q-151 200 -411 200zM563 1688v209h137v-209h-137zM895 1688v209h137v-209h-137z" />
<glyph unicode="&#xd7;" horiz-adv-x="1194" vert-adv-y="1433" d="M248 264l-84 78l356 389l-356 389l84 78l350 -383l350 383l84 -78l-356 -389l356 -389l-84 -78l-350 383z" />
<glyph unicode="&#xd8;" horiz-adv-x="1608" vert-adv-y="1433" d="M293 -147l-103 67l138 215q-230 222 -230 636q0 383 190 599q187 211 515 211q212 0 381 -98l133 209l102 -68l-137 -217q227 -223 227 -634q0 -382 -191 -598q-187 -212 -515 -212q-214 0 -377 96zM1200 1282l-702 -1106q129 -92 304 -92q239 0 386 164q170 189 170 525 q0 315 -158 509zM408 262l702 1106q-136 92 -307 92q-264 0 -414 -199q-139 -185 -139 -489q0 -313 158 -510z" />
<glyph unicode="&#xd9;" horiz-adv-x="1440" vert-adv-y="1433" d="M143 1544h144v-952q0 -271 119 -393q105 -109 316 -109q209 0 314 109q117 122 117 393v952h143v-964q0 -617 -572 -617q-581 0 -581 617v964zM735 1659l-194 272h153l164 -272h-123z" />
<glyph unicode="&#xda;" horiz-adv-x="1440" vert-adv-y="1433" d="M143 1544h144v-952q0 -271 119 -393q105 -109 316 -109q209 0 314 109q117 122 117 393v952h143v-964q0 -617 -572 -617q-581 0 -581 617v964zM611 1659l164 272h153l-194 -272h-123z" />
<glyph unicode="&#xdb;" horiz-adv-x="1440" vert-adv-y="1433" d="M143 1544h144v-952q0 -271 119 -393q105 -109 316 -109q209 0 314 109q117 122 117 393v952h143v-964q0 -617 -572 -617q-581 0 -581 617v964zM409 1659l238 272h143l238 -272h-133l-176 180l-177 -180h-133z" />
<glyph unicode="&#xdc;" horiz-adv-x="1440" vert-adv-y="1433" d="M143 1544h144v-952q0 -271 119 -393q105 -109 316 -109q209 0 314 109q117 122 117 393v952h143v-964q0 -617 -572 -617q-581 0 -581 617v964zM483 1688v209h137v-209h-137zM815 1688v209h137v-209h-137z" />
<glyph unicode="&#xdd;" horiz-adv-x="1223" vert-adv-y="1433" d="M539 0v592l-539 952h158l458 -815l455 815h152l-541 -952v-592h-143zM539 1659l164 272h153l-194 -272h-123z" />
<glyph unicode="&#xde;" horiz-adv-x="1294" vert-adv-y="1433" d="M154 0v1544h143v-295h469q252 0 374 -152q93 -116 93 -307q0 -209 -136 -333q-136 -125 -372 -125h-428v-332h-143zM297 455h440q175 0 268 106q76 86 76 237q0 179 -117 264q-84 62 -221 62h-446v-669z" />
<glyph unicode="&#xdf;" horiz-adv-x="1159" vert-adv-y="1433" d="M457 -2l8 119q54 -17 132 -17q163 0 254 96q87 91 87 248q0 169 -91 251q-109 98 -362 98h-20v118h22q128 0 220 53q145 85 145 259q0 127 -93 188q-68 45 -192 45q-303 0 -303 -366v-1090h-131v1114q0 238 139 353q119 98 313 98q190 0 308 -104q96 -84 96 -234 q0 -261 -272 -365q187 -18 278 -131q82 -102 82 -294q0 -202 -130 -331q-124 -124 -317 -124q-95 0 -173 16z" />
<glyph unicode="&#xe0;" horiz-adv-x="1020" vert-adv-y="1433" d="M782 686v88q0 234 -262 234q-142 0 -215 -71q-50 -48 -82 -142l-117 30q89 293 422 293q203 0 301 -99q84 -85 84 -237v-598q0 -75 29 -184h-129q-1 2 -3 11q-1 3 -4 11q-15 39 -15 132q-91 -114 -184 -157q-71 -34 -205 -34q-140 0 -229 77q-99 86 -99 234 q0 177 115 269q84 68 247 92zM782 573l-350 -55q-223 -35 -223 -239q0 -104 63 -157q55 -46 152 -46q128 0 222 62q136 90 136 257v178zM541 1272l-194 272h153l164 -272h-123z" />
<glyph unicode="&#xe1;" horiz-adv-x="1020" vert-adv-y="1433" d="M782 686v88q0 234 -262 234q-142 0 -215 -71q-50 -48 -82 -142l-117 30q89 293 422 293q203 0 301 -99q84 -85 84 -237v-598q0 -75 29 -184h-129q-1 2 -3 11q-1 3 -4 11q-15 39 -15 132q-91 -114 -184 -157q-71 -34 -205 -34q-140 0 -229 77q-99 86 -99 234 q0 177 115 269q84 68 247 92zM782 573l-350 -55q-223 -35 -223 -239q0 -104 63 -157q55 -46 152 -46q128 0 222 62q136 90 136 257v178zM421 1272l164 272h153l-194 -272h-123z" />
<glyph unicode="&#xe2;" horiz-adv-x="1020" vert-adv-y="1433" d="M782 686v88q0 234 -262 234q-142 0 -215 -71q-50 -48 -82 -142l-117 30q89 293 422 293q203 0 301 -99q84 -85 84 -237v-598q0 -75 29 -184h-129q-1 2 -3 11q-1 3 -4 11q-15 39 -15 132q-91 -114 -184 -157q-71 -34 -205 -34q-140 0 -229 77q-99 86 -99 234 q0 177 115 269q84 68 247 92zM782 573l-350 -55q-223 -35 -223 -239q0 -104 63 -157q55 -46 152 -46q128 0 222 62q136 90 136 257v178zM223 1272l238 272h143l238 -272h-133l-176 180l-177 -180h-133z" />
<glyph unicode="&#xe3;" horiz-adv-x="1020" vert-adv-y="1433" d="M782 686v88q0 234 -262 234q-142 0 -215 -71q-50 -48 -82 -142l-117 30q89 293 422 293q203 0 301 -99q84 -85 84 -237v-598q0 -75 29 -184h-129q-1 2 -3 11q-1 3 -4 11q-15 39 -15 132q-91 -114 -184 -157q-71 -34 -205 -34q-140 0 -229 77q-99 86 -99 234 q0 177 115 269q84 68 247 92zM782 573l-350 -55q-223 -35 -223 -239q0 -104 63 -157q55 -46 152 -46q128 0 222 62q136 90 136 257v178zM256 1315l-100 24q47 181 194 181q71 0 162 -47l68 -35q64 -33 109 -33q65 0 96 100l100 -24q-23 -86 -76 -137q-48 -46 -115 -46 t-167 50l-64 32q-66 33 -104 33q-67 0 -103 -98z" />
<glyph unicode="&#xe4;" horiz-adv-x="1020" vert-adv-y="1433" d="M782 686v88q0 234 -262 234q-142 0 -215 -71q-50 -48 -82 -142l-117 30q89 293 422 293q203 0 301 -99q84 -85 84 -237v-598q0 -75 29 -184h-129q-1 2 -3 11q-1 3 -4 11q-15 39 -15 132q-91 -114 -184 -157q-71 -34 -205 -34q-140 0 -229 77q-99 86 -99 234 q0 177 115 269q84 68 247 92zM782 573l-350 -55q-223 -35 -223 -239q0 -104 63 -157q55 -46 152 -46q128 0 222 62q136 90 136 257v178zM293 1303v209h137v-209h-137zM625 1303v209h137v-209h-137z" />
<glyph unicode="&#xe5;" horiz-adv-x="1020" vert-adv-y="1433" d="M782 686v88q0 234 -262 234q-142 0 -215 -71q-50 -48 -82 -142l-117 30q89 293 422 293q203 0 301 -99q84 -85 84 -237v-598q0 -75 29 -184h-129q-1 2 -3 11q-1 3 -4 11q-15 39 -15 132q-91 -114 -184 -157q-71 -34 -205 -34q-140 0 -229 77q-99 86 -99 234 q0 177 115 269q84 68 247 92zM782 573l-350 -55q-223 -35 -223 -239q0 -104 63 -157q55 -46 152 -46q128 0 222 62q136 90 136 257v178zM532 1614q123 0 181 -75q40 -51 40 -134q0 -102 -68 -157q-57 -46 -154 -46q-103 0 -161 50q-65 54 -65 156q0 105 67 160q56 46 160 46 zM527 1536q-60 0 -101 -37q-35 -31 -35 -90q0 -65 45 -101q34 -28 93 -28q63 0 103 37q35 33 35 94q0 72 -57 104q-37 21 -83 21z" />
<glyph unicode="&#xe6;" horiz-adv-x="1804" vert-adv-y="1433" d="M784 686v70q0 252 -269 252q-137 0 -210 -71q-50 -48 -82 -142l-117 30q89 293 419 293q153 0 243 -57q78 -50 119 -150q120 207 380 207q227 0 353 -149q111 -132 111 -348v-21v-22v-14v-14q0 -18 -2 -32h-820q4 -181 72 -292q89 -148 272 -148q163 0 255 106 q42 48 77 150l123 -45q-108 -326 -454 -326q-297 0 -404 238q-77 -123 -183 -181q-103 -57 -251 -57q-147 0 -240 77q-102 85 -102 234q0 177 115 269q84 68 247 92zM784 573l-352 -55q-223 -35 -223 -237q0 -118 83 -171q55 -34 148 -34q136 0 233 74q111 85 111 245v178z M911 621h682q0 151 -63 250q-87 139 -267 139q-187 0 -284 -157q-59 -97 -68 -232z" />
<glyph unicode="&#xe7;" horiz-adv-x="1047" vert-adv-y="1433" d="M981 793l-131 -39q-31 120 -85 176q-73 76 -210 76q-168 0 -256 -137q-78 -120 -78 -328q0 -212 75 -327q88 -136 262 -136q172 0 250 124q37 57 58 148l127 -37q-103 -350 -431 -350q-214 0 -339 136q-141 153 -141 442q0 259 116 411q125 166 362 166q341 0 421 -325z M318 -393l194 272h123l-164 -272h-153z" />
<glyph unicode="&#xe8;" horiz-adv-x="1116" vert-adv-y="1433" d="M1040 518h-819q6 -183 72 -292q89 -148 272 -148q161 0 249 100q43 49 83 156l123 -45q-37 -114 -109 -190q-127 -136 -344 -136q-211 0 -339 134q-146 154 -146 440q0 254 124 411q133 170 371 170q230 0 355 -149q110 -133 110 -348v-21v-22v-14v-14q0 -18 -2 -32z M223 621h682q-1 154 -63 250q-89 139 -268 139q-187 0 -283 -157q-59 -97 -68 -232zM578 1272l-194 272h153l164 -272h-123z" />
<glyph unicode="&#xe9;" horiz-adv-x="1116" vert-adv-y="1433" d="M1040 518h-819q6 -183 72 -292q89 -148 272 -148q161 0 249 100q43 49 83 156l123 -45q-37 -114 -109 -190q-127 -136 -344 -136q-211 0 -339 134q-146 154 -146 440q0 254 124 411q133 170 371 170q230 0 355 -149q110 -133 110 -348v-21v-22v-14v-14q0 -18 -2 -32z M223 621h682q-1 154 -63 250q-89 139 -268 139q-187 0 -283 -157q-59 -97 -68 -232zM467 1272l164 272h153l-194 -272h-123z" />
<glyph unicode="&#xea;" horiz-adv-x="1116" vert-adv-y="1433" d="M1040 518h-819q6 -183 72 -292q89 -148 272 -148q161 0 249 100q43 49 83 156l123 -45q-37 -114 -109 -190q-127 -136 -344 -136q-211 0 -339 134q-146 154 -146 440q0 254 124 411q133 170 371 170q230 0 355 -149q110 -133 110 -348v-21v-22v-14v-14q0 -18 -2 -32z M223 621h682q-1 154 -63 250q-89 139 -268 139q-187 0 -283 -157q-59 -97 -68 -232zM273 1272l238 272h143l238 -272h-133l-176 180l-177 -180h-133z" />
<glyph unicode="&#xeb;" horiz-adv-x="1116" vert-adv-y="1433" d="M1040 518h-819q6 -183 72 -292q89 -148 272 -148q161 0 249 100q43 49 83 156l123 -45q-37 -114 -109 -190q-127 -136 -344 -136q-211 0 -339 134q-146 154 -146 440q0 254 124 411q133 170 371 170q230 0 355 -149q110 -133 110 -348v-21v-22v-14v-14q0 -18 -2 -32z M223 621h682q-1 154 -63 250q-89 139 -268 139q-187 0 -283 -157q-59 -97 -68 -232zM347 1303v209h137v-209h-137zM679 1303v209h137v-209h-137z" />
<glyph unicode="&#xec;" horiz-adv-x="418" vert-adv-y="1433" d="M143 0v1081h131v-1081h-131zM150 1272l-194 272h153l164 -272h-123z" />
<glyph unicode="&#xed;" horiz-adv-x="418" vert-adv-y="1433" d="M143 0v1081h131v-1081h-131zM144 1272l164 272h153l-194 -272h-123z" />
<glyph unicode="&#xee;" horiz-adv-x="418" vert-adv-y="1433" d="M143 0v1081h131v-1081h-131zM-101 1272l238 272h143l238 -272h-133l-176 180l-177 -180h-133z" />
<glyph unicode="&#xef;" horiz-adv-x="418" vert-adv-y="1433" d="M143 0v1081h131v-1081h-131zM-24 1303v209h137v-209h-137zM308 1303v209h137v-209h-137z" />
<glyph unicode="&#xf0;" horiz-adv-x="1141" vert-adv-y="1433" d="M854 903q-70 213 -217 373l-203 -152l-55 86l186 140q-91 85 -194 147l65 84q128 -71 230 -160l186 140l57 -84l-170 -125q132 -145 200 -280q120 -239 120 -513q0 -287 -121 -438q-126 -158 -369 -158q-215 0 -343 122q-144 137 -144 398q0 235 118 375q127 150 356 150 q121 0 216 -48q49 -24 82 -57zM564 895q-174 0 -264 -121q-79 -107 -79 -291t79 -288q91 -119 268 -119q162 0 253 100q97 107 97 311q0 184 -82 289q-92 119 -272 119z" />
<glyph unicode="&#xf1;" horiz-adv-x="1130" vert-adv-y="1433" d="M133 0v1081h131v-188q61 105 125 153q97 72 247 72q170 0 268 -102q93 -98 93 -264v-752h-131v717q0 284 -261 284q-165 0 -261 -151q-80 -128 -80 -309v-541h-131zM305 1315l-100 24q47 181 194 181q71 0 162 -47l68 -35q64 -33 109 -33q65 0 96 100l100 -24 q-23 -86 -76 -137q-48 -46 -115 -46t-167 50l-64 32q-66 33 -104 33q-67 0 -103 -98z" />
<glyph unicode="&#xf2;" horiz-adv-x="1139" vert-adv-y="1433" d="M569 1118q238 0 368 -164q120 -154 120 -413q0 -260 -120 -413q-130 -165 -364 -165q-219 0 -346 135q-145 154 -145 443q0 261 119 413q130 164 368 164zM570 1006q-196 0 -286 -161q-63 -113 -63 -308q0 -204 79 -325q91 -136 266 -136q170 0 264 125q88 116 88 344 q0 204 -81 324q-92 137 -267 137zM566 1272l-194 272h153l164 -272h-123z" />
<glyph unicode="&#xf3;" horiz-adv-x="1139" vert-adv-y="1433" d="M569 1118q238 0 368 -164q120 -154 120 -413q0 -260 -120 -413q-130 -165 -364 -165q-219 0 -346 135q-145 154 -145 443q0 261 119 413q130 164 368 164zM570 1006q-196 0 -286 -161q-63 -113 -63 -308q0 -204 79 -325q91 -136 266 -136q170 0 264 125q88 116 88 344 q0 204 -81 324q-92 137 -267 137zM466 1272l164 272h153l-194 -272h-123z" />
<glyph unicode="&#xf4;" horiz-adv-x="1139" vert-adv-y="1433" d="M569 1118q238 0 368 -164q120 -154 120 -413q0 -260 -120 -413q-130 -165 -364 -165q-219 0 -346 135q-145 154 -145 443q0 261 119 413q130 164 368 164zM570 1006q-196 0 -286 -161q-63 -113 -63 -308q0 -204 79 -325q91 -136 266 -136q170 0 264 125q88 116 88 344 q0 204 -81 324q-92 137 -267 137zM260 1272l238 272h143l238 -272h-133l-176 180l-177 -180h-133z" />
<glyph unicode="&#xf5;" horiz-adv-x="1139" vert-adv-y="1433" d="M569 1118q238 0 368 -164q120 -154 120 -413q0 -260 -120 -413q-130 -165 -364 -165q-219 0 -346 135q-145 154 -145 443q0 261 119 413q130 164 368 164zM570 1006q-196 0 -286 -161q-63 -113 -63 -308q0 -204 79 -325q91 -136 266 -136q170 0 264 125q88 116 88 344 q0 204 -81 324q-92 137 -267 137zM313 1315l-100 24q47 181 194 181q71 0 162 -47l68 -35q64 -33 109 -33q65 0 96 100l100 -24q-23 -86 -76 -137q-48 -46 -115 -46t-167 50l-64 32q-66 33 -104 33q-67 0 -103 -98z" />
<glyph unicode="&#xf6;" horiz-adv-x="1139" vert-adv-y="1433" d="M569 1118q238 0 368 -164q120 -154 120 -413q0 -260 -120 -413q-130 -165 -364 -165q-219 0 -346 135q-145 154 -145 443q0 261 119 413q130 164 368 164zM570 1006q-196 0 -286 -161q-63 -113 -63 -308q0 -204 79 -325q91 -136 266 -136q170 0 264 125q88 116 88 344 q0 204 -81 324q-92 137 -267 137zM346 1303v209h137v-209h-137zM678 1303v209h137v-209h-137z" />
<glyph unicode="&#xf7;" horiz-adv-x="1194" vert-adv-y="1433" d="M514 240v217h166v-217h-166zM51 674v114h1090v-114h-1090zM514 1006v217h166v-217h-166z" />
<glyph unicode="&#xf8;" horiz-adv-x="1139" vert-adv-y="1433" d="M205 -123l-86 53l106 168q-143 163 -143 441q0 262 119 415q130 164 368 164q154 0 267 -71l100 155l86 -53l-109 -168q144 -159 144 -440q0 -260 -120 -413q-130 -165 -367 -165q-151 0 -265 70zM844 872l-475 -741q80 -59 200 -59q171 0 265 123q90 118 90 351 q0 197 -80 326zM295 207l477 741q-88 62 -204 62q-181 0 -272 -136q-81 -120 -81 -333q0 -209 80 -334z" />
<glyph unicode="&#xf9;" horiz-adv-x="1130" vert-adv-y="1433" d="M133 1081h131v-716q0 -129 58 -202q67 -85 200 -85q167 0 263 153q81 128 81 308v542h131v-1081h-131v190q-60 -106 -126 -154q-98 -73 -250 -73q-130 0 -220 64q-137 97 -137 303v751zM565 1272l-194 272h153l164 -272h-123z" />
<glyph unicode="&#xfa;" horiz-adv-x="1130" vert-adv-y="1433" d="M133 1081h131v-716q0 -129 58 -202q67 -85 200 -85q167 0 263 153q81 128 81 308v542h131v-1081h-131v190q-60 -106 -126 -154q-98 -73 -250 -73q-130 0 -220 64q-137 97 -137 303v751zM466 1272l164 272h153l-194 -272h-123z" />
<glyph unicode="&#xfb;" horiz-adv-x="1130" vert-adv-y="1433" d="M133 1081h131v-716q0 -129 58 -202q67 -85 200 -85q167 0 263 153q81 128 81 308v542h131v-1081h-131v190q-60 -106 -126 -154q-98 -73 -250 -73q-130 0 -220 64q-137 97 -137 303v751zM255 1272l238 272h143l238 -272h-133l-176 180l-177 -180h-133z" />
<glyph unicode="&#xfc;" horiz-adv-x="1130" vert-adv-y="1433" d="M133 1081h131v-716q0 -129 58 -202q67 -85 200 -85q167 0 263 153q81 128 81 308v542h131v-1081h-131v190q-60 -106 -126 -154q-98 -73 -250 -73q-130 0 -220 64q-137 97 -137 303v751zM342 1303v209h137v-209h-137zM674 1303v209h137v-209h-137z" />
<glyph unicode="&#xfd;" horiz-adv-x="989" vert-adv-y="1433" d="M63 -399l25 110q68 -18 119 -18q77 0 121 43q32 32 59 100l66 170l-453 1075h141l377 -901l340 901h131l-489 -1296q-39 -102 -100 -154q-63 -55 -164 -55h-12q-80 0 -161 25zM416 1272l164 272h153l-194 -272h-123z" />
<glyph unicode="&#xfe;" horiz-adv-x="1159" vert-adv-y="1433" d="M133 -393v1937h131v-637q129 211 376 211q211 0 328 -158q109 -148 109 -403q0 -265 -112 -420q-124 -174 -355 -174q-219 0 -346 191v-547h-131zM609 1004q-176 0 -270 -149q-79 -127 -79 -325q0 -192 77 -312q90 -140 255 -140q147 0 234 90q112 116 112 370 q0 466 -329 466z" />
<glyph unicode="&#xff;" horiz-adv-x="989" vert-adv-y="1433" d="M63 -399l25 110q68 -18 119 -18q77 0 121 43q32 32 59 100l66 170l-453 1075h141l377 -901l340 901h131l-489 -1296q-39 -102 -100 -154q-63 -55 -164 -55h-12q-80 0 -161 25zM259 1303v209h137v-209h-137zM591 1303v209h137v-209h-137z" />
<glyph unicode="&#x100;" horiz-adv-x="1358" vert-adv-y="1433" d="M0 0l588 1544h184l586 -1544h-156l-153 412h-756l-156 -412h-137zM340 535h661l-327 878zM380 1729v112h603v-112h-603z" />
<glyph unicode="&#x101;" horiz-adv-x="1020" vert-adv-y="1433" d="M782 686v88q0 234 -262 234q-142 0 -215 -71q-50 -48 -82 -142l-117 30q89 293 422 293q203 0 301 -99q84 -85 84 -237v-598q0 -75 29 -184h-129q-1 2 -3 11q-1 3 -4 11q-15 39 -15 132q-91 -114 -184 -157q-71 -34 -205 -34q-140 0 -229 77q-99 86 -99 234 q0 177 115 269q84 68 247 92zM782 573l-350 -55q-223 -35 -223 -239q0 -104 63 -157q55 -46 152 -46q128 0 222 62q136 90 136 257v178zM250 1344v112h548v-112h-548z" />
<glyph unicode="&#x102;" horiz-adv-x="1358" vert-adv-y="1433" d="M0 0l588 1544h184l586 -1544h-156l-153 412h-756l-156 -412h-137zM340 535h661l-327 878zM368 1897h119q48 -108 197 -108q147 0 190 108h117q-51 -210 -311 -210q-262 0 -312 210z" />
<glyph unicode="&#x103;" horiz-adv-x="1020" vert-adv-y="1433" d="M782 686v88q0 234 -262 234q-142 0 -215 -71q-50 -48 -82 -142l-117 30q89 293 422 293q203 0 301 -99q84 -85 84 -237v-598q0 -75 29 -184h-129q-1 2 -3 11q-1 3 -4 11q-15 39 -15 132q-91 -114 -184 -157q-71 -34 -205 -34q-140 0 -229 77q-99 86 -99 234 q0 177 115 269q84 68 247 92zM782 573l-350 -55q-223 -35 -223 -239q0 -104 63 -157q55 -46 152 -46q128 0 222 62q136 90 136 257v178zM213 1513h119q19 -45 66 -75q51 -33 131 -33q149 0 190 108h117q-53 -210 -311 -210q-263 0 -312 210z" />
<glyph unicode="&#x104;" horiz-adv-x="1358" vert-adv-y="1433" d="M1310 0q-5 -4 -11 -9q-82 -65 -82 -146q0 -75 77 -75q42 0 103 38v-99q-58 -37 -125 -37q-96 0 -141 63q-25 35 -25 80q0 105 126 185h-30l-153 412h-756l-156 -412h-137l588 1544h184l586 -1544h-48zM340 535h661l-327 878z" />
<glyph unicode="&#x105;" horiz-adv-x="1020" vert-adv-y="1433" d="M916 0q-6 -4 -12 -9q-82 -65 -82 -146q0 -75 77 -75q43 0 103 38v-99q-58 -37 -124 -37q-96 0 -142 63q-25 35 -25 80q0 105 126 185h-24q-1 2 -3 11q-1 3 -4 11q-15 39 -15 132q-91 -114 -184 -157q-71 -34 -205 -34q-140 0 -229 77q-99 86 -99 234q0 177 115 269 q84 68 247 92l346 51v88q0 234 -262 234q-142 0 -215 -71q-50 -48 -82 -142l-117 30q89 293 422 293q203 0 301 -99q84 -85 84 -237v-598q0 -75 29 -184h-26zM782 573l-350 -55q-223 -35 -223 -239q0 -104 63 -157q55 -46 152 -46q128 0 222 62q136 90 136 257v178z" />
<glyph unicode="&#x106;" horiz-adv-x="1464" vert-adv-y="1433" d="M1368 1128l-143 -38q-42 153 -120 238q-117 128 -329 128q-266 0 -403 -211q-119 -182 -119 -491q0 -297 126 -473q138 -191 389 -191q246 0 375 171q76 101 103 261l148 -22q-113 -537 -631 -537q-270 0 -442 162q-224 211 -224 633q0 388 182 607q180 216 494 216 q257 0 411 -128q137 -115 183 -325zM666 1659l164 272h153l-194 -272h-123z" />
<glyph unicode="&#x107;" horiz-adv-x="1047" vert-adv-y="1433" d="M981 793l-131 -39q-31 120 -85 176q-73 76 -210 76q-168 0 -256 -137q-78 -120 -78 -328q0 -212 75 -327q88 -136 262 -136q172 0 250 124q37 57 58 148l127 -37q-103 -350 -431 -350q-214 0 -339 136q-141 153 -141 442q0 259 116 411q125 166 362 166q341 0 421 -325z M463 1272l164 272h153l-194 -272h-123z" />
<glyph unicode="&#x108;" horiz-adv-x="1464" vert-adv-y="1433" d="M1368 1128l-143 -38q-42 153 -120 238q-117 128 -329 128q-266 0 -403 -211q-119 -182 -119 -491q0 -297 126 -473q138 -191 389 -191q246 0 375 171q76 101 103 261l148 -22q-113 -537 -631 -537q-270 0 -442 162q-224 211 -224 633q0 388 182 607q180 216 494 216 q257 0 411 -128q137 -115 183 -325zM450 1669l238 272h143l238 -272h-133l-176 180l-177 -180h-133z" />
<glyph unicode="&#x109;" horiz-adv-x="1047" vert-adv-y="1433" d="M981 793l-131 -39q-31 120 -85 176q-73 76 -210 76q-168 0 -256 -137q-78 -120 -78 -328q0 -212 75 -327q88 -136 262 -136q172 0 250 124q37 57 58 148l127 -37q-103 -350 -431 -350q-214 0 -339 136q-141 153 -141 442q0 259 116 411q125 166 362 166q341 0 421 -325z M239 1272l238 272h143l238 -272h-133l-176 180l-177 -180h-133z" />
<glyph unicode="&#x10a;" horiz-adv-x="1464" vert-adv-y="1433" d="M1368 1128l-143 -38q-42 153 -120 238q-117 128 -329 128q-266 0 -403 -211q-119 -182 -119 -491q0 -297 126 -473q138 -191 389 -191q246 0 375 171q76 101 103 261l148 -22q-113 -537 -631 -537q-270 0 -442 162q-224 211 -224 633q0 388 182 607q180 216 494 216 q257 0 411 -128q137 -115 183 -325zM705 1685v215h137v-215h-137z" />
<glyph unicode="&#x10b;" horiz-adv-x="1047" vert-adv-y="1433" d="M981 793l-131 -39q-31 120 -85 176q-73 76 -210 76q-168 0 -256 -137q-78 -120 -78 -328q0 -212 75 -327q88 -136 262 -136q172 0 250 124q37 57 58 148l127 -37q-103 -350 -431 -350q-214 0 -339 136q-141 153 -141 442q0 259 116 411q125 166 362 166q341 0 421 -325z M484 1300v215h137v-215h-137z" />
<glyph unicode="&#x10c;" horiz-adv-x="1464" vert-adv-y="1433" d="M1368 1128l-143 -38q-42 153 -120 238q-117 128 -329 128q-266 0 -403 -211q-119 -182 -119 -491q0 -297 126 -473q138 -191 389 -191q246 0 375 171q76 101 103 261l148 -22q-113 -537 -631 -537q-270 0 -442 162q-224 211 -224 633q0 388 182 607q180 216 494 216 q257 0 411 -128q137 -115 183 -325zM690 1659l-238 272h133l177 -180l176 180h133l-238 -272h-143z" />
<glyph unicode="&#x10d;" horiz-adv-x="1047" vert-adv-y="1433" d="M981 793l-131 -39q-31 120 -85 176q-73 76 -210 76q-168 0 -256 -137q-78 -120 -78 -328q0 -212 75 -327q88 -136 262 -136q172 0 250 124q37 57 58 148l127 -37q-103 -350 -431 -350q-214 0 -339 136q-141 153 -141 442q0 259 116 411q125 166 362 166q341 0 421 -325z M482 1272l-238 272h133l177 -180l176 180h133l-238 -272h-143z" />
<glyph unicode="&#x10e;" horiz-adv-x="1462" vert-adv-y="1433" d="M154 0v1544h464q746 0 746 -760q0 -394 -190 -589q-189 -195 -556 -195h-464zM297 129h332q304 0 452 187q129 162 129 462q0 637 -581 637h-332v-1286zM602 1659l-238 272h133l177 -180l176 180h133l-238 -272h-143z" />
<glyph unicode="&#x10f;" horiz-adv-x="1254" vert-adv-y="1433" d="M895 926v618h131v-1544h-131v170q-129 -207 -375 -207q-191 0 -306 129q-132 147 -132 430q0 266 112 422q124 174 352 174q218 0 349 -192zM558 1004q-158 0 -245 -114q-92 -120 -92 -352q0 -460 326 -460q162 0 255 122q97 127 97 347q0 195 -78 315q-93 142 -263 142z M1135 1231v313h131l-31 -313h-100z" />
<glyph unicode="&#x110;" horiz-adv-x="1462" vert-adv-y="1433" d="M154 0v723h-154v123h154v698h464q746 0 746 -760q0 -394 -190 -589q-189 -195 -556 -195h-464zM297 129h332q304 0 452 187q129 162 129 462q0 637 -581 637h-332v-569h348v-123h-348v-594z" />
<glyph unicode="&#x111;" horiz-adv-x="1159" vert-adv-y="1433" d="M557 1258v112h338v174h131v-174h134v-112h-134v-1258h-131v170q-129 -207 -377 -207q-210 0 -327 157q-109 146 -109 402q0 266 112 422q124 174 352 174q218 0 349 -192v332h-338zM558 1004q-158 0 -245 -114q-92 -120 -92 -352q0 -460 326 -460q162 0 255 122 q97 127 97 347q0 195 -78 315q-93 142 -263 142z" />
<glyph unicode="&#x112;" horiz-adv-x="1305" vert-adv-y="1433" d="M154 0v1544h1036v-129h-893v-563h848v-129h-848v-594h926v-129h-1069zM373 1729v112h603v-112h-603z" />
<glyph unicode="&#x113;" horiz-adv-x="1116" vert-adv-y="1433" d="M1040 518h-819q6 -183 72 -292q89 -148 272 -148q161 0 249 100q43 49 83 156l123 -45q-37 -114 -109 -190q-127 -136 -344 -136q-211 0 -339 134q-146 154 -146 440q0 254 124 411q133 170 371 170q230 0 355 -149q110 -133 110 -348v-21v-22v-14v-14q0 -18 -2 -32z M223 621h682q-1 154 -63 250q-89 139 -268 139q-187 0 -283 -157q-59 -97 -68 -232zM304 1344v112h548v-112h-548z" />
<glyph unicode="&#x116;" horiz-adv-x="1305" vert-adv-y="1433" d="M154 0v1544h1036v-129h-893v-563h848v-129h-848v-594h926v-129h-1069zM619 1686v215h137v-215h-137z" />
<glyph unicode="&#x117;" horiz-adv-x="1116" vert-adv-y="1433" d="M1040 518h-819q6 -183 72 -292q89 -148 272 -148q161 0 249 100q43 49 83 156l123 -45q-37 -114 -109 -190q-127 -136 -344 -136q-211 0 -339 134q-146 154 -146 440q0 254 124 411q133 170 371 170q230 0 355 -149q110 -133 110 -348v-21v-22v-14v-14q0 -18 -2 -32z M223 621h682q-1 154 -63 250q-89 139 -268 139q-187 0 -283 -157q-59 -97 -68 -232zM513 1301v215h137v-215h-137z" />
<glyph unicode="&#x118;" horiz-adv-x="1305" vert-adv-y="1433" d="M1143 0q-5 -4 -11 -9q-82 -64 -82 -146q0 -75 77 -75q43 0 102 38v-99q-56 -37 -123 -37q-96 0 -142 63q-25 35 -25 80q0 106 126 185h-911v1544h1036v-129h-893v-563h848v-129h-848v-594h926v-129h-80z" />
<glyph unicode="&#x119;" horiz-adv-x="1116" vert-adv-y="1433" d="M669 -29q-60 -60 -60 -127q0 -75 77 -75q43 0 103 39v-99q-57 -38 -124 -38q-96 0 -142 63q-25 36 -25 80q0 78 77 149q-184 0 -304 95q-189 151 -189 479q0 254 124 411q133 170 371 170q230 0 355 -149q110 -133 110 -348v-21v-22v-14v-14q0 -18 -2 -32h-819 q6 -183 72 -292q89 -148 272 -148q162 0 249 100q44 49 83 156l123 -45q-87 -271 -351 -318zM223 621h682q-1 154 -63 250q-88 139 -268 139q-187 0 -283 -157q-59 -97 -68 -232z" />
<glyph unicode="&#x11a;" horiz-adv-x="1305" vert-adv-y="1433" d="M154 0v1544h1036v-129h-893v-563h848v-129h-848v-594h926v-129h-1069zM628 1659l-238 272h133l177 -180l176 180h133l-238 -272h-143z" />
<glyph unicode="&#x11b;" horiz-adv-x="1116" vert-adv-y="1433" d="M1040 518h-819q6 -183 72 -292q89 -148 272 -148q161 0 249 100q43 49 83 156l123 -45q-37 -114 -109 -190q-127 -136 -344 -136q-211 0 -339 134q-146 154 -146 440q0 254 124 411q133 170 371 170q230 0 355 -149q110 -133 110 -348v-21v-22v-14v-14q0 -18 -2 -32z M223 621h682q-1 154 -63 250q-89 139 -268 139q-187 0 -283 -157q-59 -97 -68 -232zM507 1272l-238 272h133l177 -180l176 180h133l-238 -272h-143z" />
<glyph unicode="&#x11e;" horiz-adv-x="1481" vert-adv-y="1433" d="M1362 1159l-143 -39q-53 170 -161 255q-104 81 -287 81q-261 0 -398 -211q-119 -182 -119 -492q0 -302 124 -474q135 -189 384 -189q194 0 322 94q139 103 139 273v170h-250v127h393v-754h-92l-41 164q-187 -201 -473 -201q-270 0 -441 162q-221 210 -221 632 q0 389 182 608q180 216 495 216q253 0 408 -125q129 -105 179 -297zM457 1897h119q48 -108 197 -108q147 0 190 108h117q-51 -210 -311 -210q-262 0 -312 210z" />
<glyph unicode="&#x11f;" horiz-adv-x="1159" vert-adv-y="1433" d="M119 -166l114 45q32 -90 94 -133q79 -55 234 -55q139 0 212 45q52 33 81 81q41 69 41 214v162q-130 -211 -379 -211q-210 0 -325 148q-109 140 -109 394q0 266 112 421q124 173 354 173q224 0 347 -190v153h131v-1034q0 -270 -129 -379q-108 -92 -335 -92 q-224 0 -343 103q-70 59 -100 155zM555 1004q-156 0 -242 -112q-92 -120 -92 -352q0 -444 327 -444q161 0 254 115q97 121 97 341q0 223 -102 346q-88 106 -242 106zM267 1513h119q19 -45 66 -75q51 -33 131 -33q149 0 190 108h117q-53 -210 -311 -210q-263 0 -312 210z" />
<glyph unicode="&#x120;" horiz-adv-x="1481" vert-adv-y="1433" d="M1362 1159l-143 -39q-53 170 -161 255q-104 81 -287 81q-261 0 -398 -211q-119 -182 -119 -492q0 -302 124 -474q135 -189 384 -189q194 0 322 94q139 103 139 273v170h-250v127h393v-754h-92l-41 164q-187 -201 -473 -201q-270 0 -441 162q-221 210 -221 632 q0 389 182 608q180 216 495 216q253 0 408 -125q129 -105 179 -297zM702 1685v215h137v-215h-137z" />
<glyph unicode="&#x121;" horiz-adv-x="1159" vert-adv-y="1433" d="M119 -166l114 45q32 -90 94 -133q79 -55 234 -55q139 0 212 45q52 33 81 81q41 69 41 214v162q-130 -211 -379 -211q-210 0 -325 148q-109 140 -109 394q0 266 112 421q124 173 354 173q224 0 347 -190v153h131v-1034q0 -270 -129 -379q-108 -92 -335 -92 q-224 0 -343 103q-70 59 -100 155zM555 1004q-156 0 -242 -112q-92 -120 -92 -352q0 -444 327 -444q161 0 254 115q97 121 97 341q0 223 -102 346q-88 106 -242 106zM509 1299v215h137v-215h-137z" />
<glyph unicode="&#x122;" horiz-adv-x="1481" vert-adv-y="1433" d="M1362 1159l-143 -39q-53 170 -161 255q-104 81 -287 81q-261 0 -398 -211q-119 -182 -119 -492q0 -302 124 -474q135 -189 384 -189q194 0 322 94q139 103 139 273v170h-250v127h393v-754h-92l-41 164q-187 -201 -473 -201q-270 0 -441 162q-221 210 -221 632 q0 389 182 608q180 216 495 216q253 0 408 -125q129 -105 179 -297zM550 -393l194 272h123l-164 -272h-153z" />
<glyph unicode="&#x123;" horiz-adv-x="1159" vert-adv-y="1433" d="M119 -166l114 45q32 -90 94 -133q79 -55 234 -55q139 0 212 45q52 33 81 81q41 69 41 214v162q-130 -211 -379 -211q-210 0 -325 148q-109 140 -109 394q0 266 112 421q124 173 354 173q224 0 347 -190v153h131v-1034q0 -270 -129 -379q-108 -92 -335 -92 q-224 0 -343 103q-70 59 -100 155zM555 1004q-156 0 -242 -112q-92 -120 -92 -352q0 -444 327 -444q161 0 254 115q97 121 97 341q0 223 -102 346q-88 106 -242 106zM445 1272l194 272h123l-164 -272h-153z" />
<glyph unicode="&#x126;" horiz-adv-x="1487" vert-adv-y="1433" d="M154 1254h-132v112h132v178h143v-178h893v178h143v-178h149v-112h-149v-1254h-143v756h-893v-756h-143v1254zM297 1254v-369h893v369h-893z" />
<glyph unicode="&#x127;" horiz-adv-x="1130" vert-adv-y="1433" d="M133 1308h-115v112h115v124h131v-124h313v-112h-313v-411q62 103 129 152q94 69 243 69q170 0 268 -102q93 -98 93 -264v-752h-131v717q0 284 -261 284q-165 0 -260 -151q-81 -128 -81 -309v-541h-131v1308z" />
<glyph unicode="&#x12a;" horiz-adv-x="451" vert-adv-y="1433" d="M154 0v1544h143v-1544h-143zM-74 1729v112h603v-112h-603z" />
<glyph unicode="&#x12b;" horiz-adv-x="418" vert-adv-y="1433" d="M143 0v1081h131v-1081h-131zM-66 1344v112h548v-112h-548z" />
<glyph unicode="&#x12e;" horiz-adv-x="451" vert-adv-y="1433" d="M280 0q-6 -5 -12 -9q-82 -63 -82 -147q0 -75 77 -75q43 0 103 39v-99q-57 -38 -121 -38q-75 0 -128 48q-42 37 -42 95q0 106 126 186h-47v1544h143v-1544h-17z" />
<glyph unicode="&#x12f;" horiz-adv-x="418" vert-adv-y="1433" d="M143 0v1081h131v-1081h-131zM143 1335v209h131v-209h-131zM179 0h79q-94 -74 -94 -155q0 -75 77 -75q43 0 103 38v-99q-58 -37 -124 -37q-96 0 -142 63q-25 35 -25 80q0 104 126 185z" />
<glyph unicode="&#x130;" horiz-adv-x="451" vert-adv-y="1433" d="M154 0v1544h143v-1544h-143zM157 1686v215h137v-215h-137z" />
<glyph unicode="&#x131;" horiz-adv-x="418" vert-adv-y="1433" d="M143 0v1081h131v-1081h-131z" />
<glyph unicode="&#x136;" horiz-adv-x="1360" vert-adv-y="1433" d="M154 0v1544h143v-770l795 770h174l-607 -598l701 -946h-184l-619 844l-260 -250v-594h-143zM478 -393l194 272h123l-164 -272h-153z" />
<glyph unicode="&#x137;" horiz-adv-x="1001" vert-adv-y="1433" d="M133 0v1544h131v-932l502 469h168l-404 -379l465 -702h-161l-400 612l-170 -161v-451h-131zM289 -393l194 272h123l-164 -272h-153z" />
<glyph unicode="&#x139;" horiz-adv-x="1190" vert-adv-y="1433" d="M154 0v1544h143v-1415h852v-129h-995zM164 1659l164 272h153l-194 -272h-123z" />
<glyph unicode="&#x13a;" horiz-adv-x="418" vert-adv-y="1433" d="M143 0v1544h131v-1544h-131zM145 1659l164 272h153l-194 -272h-123z" />
<glyph unicode="&#x13b;" horiz-adv-x="1190" vert-adv-y="1433" d="M154 0v1544h143v-1415h852v-129h-995zM429 -393l194 272h123l-164 -272h-153z" />
<glyph unicode="&#x13c;" horiz-adv-x="418" vert-adv-y="1433" d="M142 0v1544h131v-1544h-131zM-42 -393l194 272h123l-164 -272h-153z" />
<glyph unicode="&#x13d;" horiz-adv-x="1190" vert-adv-y="1433" d="M154 0v1544h143v-1415h852v-129h-995zM740 1231v313h131l-30 -313h-101z" />
<glyph unicode="&#x13e;" horiz-adv-x="521" vert-adv-y="1433" d="M143 0v1544h131v-1544h-131zM394 1231v313h131l-31 -313h-100z" />
<glyph unicode="&#x141;" horiz-adv-x="1190" vert-adv-y="1433" d="M154 0v614l-154 -112v151l154 113v778h143v-674l330 242v-151l-330 -242v-590h852v-129h-995z" />
<glyph unicode="&#x142;" horiz-adv-x="418" vert-adv-y="1433" d="M143 0v678l-143 -107v125l143 105v743h131v-645l144 105v-123l-144 -107v-774h-131z" />
<glyph unicode="&#x143;" horiz-adv-x="1473" vert-adv-y="1433" d="M154 0v1544h190l832 -1360v1360h143v-1544h-189l-833 1362v-1362h-143zM664 1659l164 272h153l-194 -272h-123z" />
<glyph unicode="&#x144;" horiz-adv-x="1130" vert-adv-y="1433" d="M133 0v1081h131v-188q61 105 125 153q97 72 247 72q170 0 268 -102q93 -98 93 -264v-752h-131v717q0 284 -261 284q-165 0 -261 -151q-80 -128 -80 -309v-541h-131zM482 1272l164 272h153l-194 -272h-123z" />
<glyph unicode="&#x145;" horiz-adv-x="1473" vert-adv-y="1433" d="M154 0v1544h190l832 -1360v1360h143v-1544h-189l-833 1362v-1362h-143zM534 -393l194 272h123l-164 -272h-153z" />
<glyph unicode="&#x146;" horiz-adv-x="1130" vert-adv-y="1433" d="M133 0v1081h131v-188q61 105 125 153q97 72 247 72q170 0 268 -102q93 -98 93 -264v-752h-131v717q0 284 -261 284q-165 0 -261 -151q-80 -128 -80 -309v-541h-131zM351 -393l194 272h123l-164 -272h-153z" />
<glyph unicode="&#x147;" horiz-adv-x="1473" vert-adv-y="1433" d="M154 0v1544h190l832 -1360v1360h143v-1544h-189l-833 1362v-1362h-143zM680 1659l-238 272h133l177 -180l176 180h133l-238 -272h-143z" />
<glyph unicode="&#x148;" horiz-adv-x="1130" vert-adv-y="1433" d="M133 0v1081h131v-188q61 105 125 153q97 72 247 72q170 0 268 -102q93 -98 93 -264v-752h-131v717q0 284 -261 284q-165 0 -261 -151q-80 -128 -80 -309v-541h-131zM493 1272l-238 272h133l177 -180l176 180h133l-238 -272h-143z" />
<glyph unicode="&#x14c;" horiz-adv-x="1608" vert-adv-y="1433" d="M803 1581q329 0 515 -211q191 -216 191 -598q0 -381 -191 -597q-187 -212 -510 -212q-298 0 -482 173q-228 216 -228 636q0 383 190 598q188 211 515 211zM803 1454q-260 0 -410 -200q-139 -184 -139 -482q0 -297 139 -483q150 -199 406 -199q239 0 386 164 q169 188 169 518q0 299 -140 482q-151 200 -411 200zM504 1729v112h603v-112h-603z" />
<glyph unicode="&#x14d;" horiz-adv-x="1139" vert-adv-y="1433" d="M569 1118q238 0 368 -164q120 -154 120 -413q0 -260 -120 -413q-130 -165 -364 -165q-219 0 -346 135q-145 154 -145 443q0 261 119 413q130 164 368 164zM570 1006q-196 0 -286 -161q-63 -113 -63 -308q0 -204 79 -325q91 -136 266 -136q170 0 264 125q88 116 88 344 q0 204 -81 324q-92 137 -267 137zM303 1344v112h548v-112h-548z" />
<glyph unicode="&#x150;" horiz-adv-x="1608" vert-adv-y="1433" d="M803 1581q329 0 515 -211q191 -216 191 -598q0 -381 -191 -597q-187 -212 -510 -212q-298 0 -482 173q-228 216 -228 636q0 383 190 598q188 211 515 211zM803 1454q-260 0 -410 -200q-139 -184 -139 -482q0 -297 139 -483q150 -199 406 -199q239 0 386 164 q169 188 169 518q0 299 -140 482q-151 200 -411 200zM627 1659l92 272h125l-114 -272h-103zM861 1659l92 272h125l-115 -272h-102z" />
<glyph unicode="&#x151;" horiz-adv-x="1139" vert-adv-y="1433" d="M569 1118q238 0 368 -164q120 -154 120 -413q0 -260 -120 -413q-130 -165 -364 -165q-219 0 -346 135q-145 154 -145 443q0 261 119 413q130 164 368 164zM570 1006q-196 0 -286 -161q-63 -113 -63 -308q0 -204 79 -325q91 -136 266 -136q170 0 264 125q88 116 88 344 q0 204 -81 324q-92 137 -267 137zM400 1272l92 272h125l-114 -272h-103zM634 1272l92 272h125l-115 -272h-102z" />
<glyph unicode="&#x152;" horiz-adv-x="2501" vert-adv-y="1433" d="M1350 1300v244h1036v-129h-897v-563h852v-129h-852v-594h930v-129h-1069v244q-82 -119 -181 -183q-152 -98 -366 -98q-293 0 -477 173q-228 216 -228 635q0 381 190 598q187 212 513 212q232 0 391 -112q86 -61 158 -169zM800 1454q-262 0 -410 -200q-136 -184 -136 -484 q0 -297 136 -481q148 -199 407 -199q251 0 400 186q153 190 153 499q0 290 -139 477q-151 202 -411 202z" />
<glyph unicode="&#x153;" horiz-adv-x="1942" vert-adv-y="1433" d="M983 856q52 107 125 168q114 94 295 94q255 0 376 -179q49 -72 72 -185q17 -82 17 -158v-21v-22v-14v-14q0 -20 -2 -31h-819q9 -173 72 -274q90 -144 266 -144q107 0 195 53q99 60 138 182l125 -45q-117 -303 -459 -303q-281 0 -403 260q-119 -260 -411 -260 q-216 0 -343 135q-145 154 -145 443q0 260 119 413q130 164 367 164q294 0 415 -262zM570 1006q-196 0 -286 -161q-63 -113 -63 -308q0 -204 79 -325q91 -136 266 -136q170 0 264 125q88 116 88 344q0 204 -81 324q-92 137 -267 137zM1049 596h682q-5 414 -336 414 q-185 0 -278 -155q-60 -102 -68 -259z" />
<glyph unicode="&#x154;" horiz-adv-x="1382" vert-adv-y="1433" d="M154 0v1544h626q242 0 367 -117q121 -113 121 -321q0 -159 -89 -281q-72 -100 -202 -147l336 -678h-168l-309 651q-16 -2 -27 -2h-15h-16h-481v-649h-143zM297 774h467q184 0 274 95q78 84 78 236q0 177 -117 256q-87 58 -235 58h-467v-645zM525 1659l164 272h153 l-194 -272h-123z" />
<glyph unicode="&#x155;" horiz-adv-x="651" vert-adv-y="1433" d="M133 0v1081h131v-190q55 106 126 158q61 45 155 45q57 0 106 -13l-14 -114q-35 12 -90 12q-130 0 -200 -94q-83 -111 -83 -330v-555h-131zM225 1272l164 272h153l-194 -272h-123z" />
<glyph unicode="&#x156;" horiz-adv-x="1382" vert-adv-y="1433" d="M154 0v1544h626q242 0 367 -117q121 -113 121 -321q0 -159 -89 -281q-72 -100 -202 -147l336 -678h-168l-309 651q-16 -2 -27 -2h-15h-16h-481v-649h-143zM297 774h467q184 0 274 95q78 84 78 236q0 177 -117 256q-87 58 -235 58h-467v-645zM451 -393l194 272h123 l-164 -272h-153z" />
<glyph unicode="&#x157;" horiz-adv-x="651" vert-adv-y="1433" d="M133 0v1081h131v-190q55 106 126 158q61 45 155 45q57 0 106 -13l-14 -114q-35 12 -90 12q-130 0 -200 -94q-83 -111 -83 -330v-555h-131zM-39 -393l194 272h123l-164 -272h-153z" />
<glyph unicode="&#x158;" horiz-adv-x="1382" vert-adv-y="1433" d="M154 0v1544h626q242 0 367 -117q121 -113 121 -321q0 -159 -89 -281q-72 -100 -202 -147l336 -678h-168l-309 651q-16 -2 -27 -2h-15h-16h-481v-649h-143zM297 774h467q184 0 274 95q78 84 78 236q0 177 -117 256q-87 58 -235 58h-467v-645zM585 1659l-238 272h133 l177 -180l176 180h133l-238 -272h-143z" />
<glyph unicode="&#x159;" horiz-adv-x="651" vert-adv-y="1433" d="M133 0v1081h131v-190q55 106 126 158q61 45 155 45q57 0 106 -13l-14 -114q-35 12 -90 12q-130 0 -200 -94q-83 -111 -83 -330v-555h-131zM284 1272l-238 272h133l177 -180l176 180h133l-238 -272h-143z" />
<glyph unicode="&#x15a;" horiz-adv-x="1339" vert-adv-y="1433" d="M61 410l142 34q43 -153 105 -222q115 -130 352 -130q427 0 427 296q0 130 -78 203q-72 68 -223 97l-262 51q-418 82 -418 420q0 188 131 300q142 122 404 122q269 0 412 -117q112 -92 164 -272l-134 -43q-50 142 -126 209q-109 98 -316 98q-194 0 -295 -81 q-92 -73 -92 -208q0 -119 73 -188q73 -68 226 -98l299 -58q203 -39 297 -145q96 -107 96 -280q0 -197 -134 -308q-151 -127 -445 -127q-278 0 -428 128q-121 103 -177 319zM561 1659l164 272h153l-194 -272h-123z" />
<glyph unicode="&#x15b;" horiz-adv-x="989" vert-adv-y="1433" d="M47 297l121 31q34 -119 82 -171q78 -83 237 -83q132 0 208 51q75 52 75 149q0 84 -48 131q-45 44 -142 64l-191 39q-301 62 -301 303q0 142 113 228q104 79 280 79q330 0 414 -293l-117 -32q-39 119 -119 172q-68 45 -188 45q-131 0 -198 -57q-56 -48 -56 -136 q0 -79 48 -124q49 -45 163 -68l207 -41q270 -54 270 -308q0 -153 -122 -238q-107 -75 -291 -75q-208 0 -321 103q-81 73 -124 231zM377 1272l164 272h153l-194 -272h-123z" />
<glyph unicode="&#x15e;" horiz-adv-x="1339" vert-adv-y="1433" d="M61 410l142 34q43 -153 105 -222q115 -130 352 -130q427 0 427 296q0 130 -78 203q-72 68 -223 97l-262 51q-418 82 -418 420q0 188 131 300q142 122 404 122q269 0 412 -117q112 -92 164 -272l-134 -43q-50 142 -126 209q-109 98 -316 98q-194 0 -295 -81 q-92 -73 -92 -208q0 -119 73 -188q73 -68 226 -98l299 -58q203 -39 297 -145q96 -107 96 -280q0 -197 -134 -308q-151 -127 -445 -127q-278 0 -428 128q-121 103 -177 319zM451 -393l194 272h123l-164 -272h-153z" />
<glyph unicode="&#x15f;" horiz-adv-x="989" vert-adv-y="1433" d="M47 297l121 31q34 -119 82 -171q78 -83 237 -83q132 0 208 51q75 52 75 149q0 84 -48 131q-45 44 -142 64l-191 39q-301 62 -301 303q0 142 113 228q104 79 280 79q330 0 414 -293l-117 -32q-39 119 -119 172q-68 45 -188 45q-131 0 -198 -57q-56 -48 -56 -136 q0 -79 48 -124q49 -45 163 -68l207 -41q270 -54 270 -308q0 -153 -122 -238q-107 -75 -291 -75q-208 0 -321 103q-81 73 -124 231zM290 -393l194 272h123l-164 -272h-153z" />
<glyph unicode="&#x160;" horiz-adv-x="1339" vert-adv-y="1433" d="M61 410l142 34q43 -153 105 -222q115 -130 352 -130q427 0 427 296q0 130 -78 203q-72 68 -223 97l-262 51q-418 82 -418 420q0 188 131 300q142 122 404 122q269 0 412 -117q112 -92 164 -272l-134 -43q-50 142 -126 209q-109 98 -316 98q-194 0 -295 -81 q-92 -73 -92 -208q0 -119 73 -188q73 -68 226 -98l299 -58q203 -39 297 -145q96 -107 96 -280q0 -197 -134 -308q-151 -127 -445 -127q-278 0 -428 128q-121 103 -177 319zM593 1659l-238 272h133l177 -180l176 180h133l-238 -272h-143z" />
<glyph unicode="&#x161;" horiz-adv-x="989" vert-adv-y="1433" d="M47 297l121 31q34 -119 82 -171q78 -83 237 -83q132 0 208 51q75 52 75 149q0 84 -48 131q-45 44 -142 64l-191 39q-301 62 -301 303q0 142 113 228q104 79 280 79q330 0 414 -293l-117 -32q-39 119 -119 172q-68 45 -188 45q-131 0 -198 -57q-56 -48 -56 -136 q0 -79 48 -124q49 -45 163 -68l207 -41q270 -54 270 -308q0 -153 -122 -238q-107 -75 -291 -75q-208 0 -321 103q-81 73 -124 231zM408 1272l-238 272h133l177 -180l176 180h133l-238 -272h-143z" />
<glyph unicode="&#x162;" horiz-adv-x="1368" vert-adv-y="1433" d="M612 0v1415h-561v129h1266v-129h-561v-1415h-144zM435 -393l194 272h123l-164 -272h-153z" />
<glyph unicode="&#x163;" horiz-adv-x="639" vert-adv-y="1433" d="M205 973h-148v108h148v308h131v-308h235v-108h-235v-721q0 -87 33 -122q28 -30 102 -30q59 0 111 9l10 -117q-109 -12 -168 -12q-97 0 -148 41q-71 57 -71 196v756zM85 -393l194 272h123l-164 -272h-153z" />
<glyph unicode="&#x164;" horiz-adv-x="1368" vert-adv-y="1433" d="M612 0v1415h-561v129h1266v-129h-561v-1415h-144zM614 1659l-238 272h133l177 -180l176 180h133l-238 -272h-143z" />
<glyph unicode="&#x165;" horiz-adv-x="639" vert-adv-y="1433" d="M205 973h-148v108h148v308h131v-308h235v-108h-235v-721q0 -87 33 -122q28 -30 102 -30q59 0 111 9l10 -117q-109 -12 -168 -12q-97 0 -148 41q-71 57 -71 196v756zM462 1231v313h131l-31 -313h-100z" />
<glyph unicode="&#x16a;" horiz-adv-x="1440" vert-adv-y="1433" d="M143 1544h144v-952q0 -271 119 -393q105 -109 316 -109q209 0 314 109q117 122 117 393v952h143v-964q0 -617 -572 -617q-581 0 -581 617v964zM421 1729v112h603v-112h-603z" />
<glyph unicode="&#x16b;" horiz-adv-x="1130" vert-adv-y="1433" d="M133 1081h131v-716q0 -129 58 -202q67 -85 200 -85q167 0 263 153q81 128 81 308v542h131v-1081h-131v190q-60 -106 -126 -154q-98 -73 -250 -73q-130 0 -220 64q-137 97 -137 303v751zM291 1344v112h548v-112h-548z" />
<glyph unicode="&#x16e;" horiz-adv-x="1440" vert-adv-y="1433" d="M143 1544h144v-952q0 -271 119 -393q105 -109 316 -109q209 0 314 109q117 122 117 393v952h143v-964q0 -617 -572 -617q-581 0 -581 617v964zM721 1934q129 0 190 -79q42 -54 42 -141q0 -108 -71 -165q-60 -49 -163 -49q-107 0 -169 52q-68 58 -68 165q0 110 70 168 q59 49 169 49zM716 1856q-81 0 -122 -53q-26 -34 -26 -87q0 -69 49 -108q37 -30 99 -30q69 0 113 40q38 36 38 101q0 64 -43 101q-42 36 -108 36z" />
<glyph unicode="&#x16f;" horiz-adv-x="1130" vert-adv-y="1433" d="M133 1081h131v-716q0 -129 58 -202q67 -85 200 -85q167 0 263 153q81 128 81 308v542h131v-1081h-131v190q-60 -106 -126 -154q-98 -73 -250 -73q-130 0 -220 64q-137 97 -137 303v751zM577 1614q123 0 181 -75q40 -51 40 -134q0 -102 -68 -157q-57 -46 -154 -46 q-103 0 -161 50q-65 54 -65 156q0 105 67 160q56 46 160 46zM572 1536q-60 0 -101 -37q-35 -31 -35 -90q0 -65 45 -101q34 -28 93 -28q63 0 103 37q35 33 35 94q0 72 -57 104q-37 21 -83 21z" />
<glyph unicode="&#x170;" horiz-adv-x="1440" vert-adv-y="1433" d="M143 1544h144v-952q0 -271 119 -393q105 -109 316 -109q209 0 314 109q117 122 117 393v952h143v-964q0 -617 -572 -617q-581 0 -581 617v964zM526 1659l92 272h125l-114 -272h-103zM760 1659l92 272h125l-115 -272h-102z" />
<glyph unicode="&#x171;" horiz-adv-x="1130" vert-adv-y="1433" d="M133 1081h131v-716q0 -129 58 -202q67 -85 200 -85q167 0 263 153q81 128 81 308v542h131v-1081h-131v190q-60 -106 -126 -154q-98 -73 -250 -73q-130 0 -220 64q-137 97 -137 303v751zM392 1272l92 272h125l-114 -272h-103zM626 1272l92 272h125l-115 -272h-102z" />
<glyph unicode="&#x172;" horiz-adv-x="1440" vert-adv-y="1433" d="M836 -30q-58 -59 -58 -126q0 -74 77 -74q43 0 103 38v-99q-58 -37 -124 -37q-96 0 -142 63q-25 35 -25 80q0 77 78 148h-23q-579 0 -579 617v964h144v-952q0 -271 119 -393q105 -109 317 -109q209 0 313 109q117 122 117 393v952h143v-964q0 -331 -164 -483 q-108 -101 -296 -127z" />
<glyph unicode="&#x173;" horiz-adv-x="1130" vert-adv-y="1433" d="M977 0q-6 -4 -12 -9q-82 -65 -82 -146q0 -75 77 -75q43 0 103 38v-99q-57 -37 -124 -37q-96 0 -142 63q-25 35 -25 80q0 105 126 185h-32v190q-60 -106 -126 -154q-98 -73 -250 -73q-130 0 -220 64q-137 97 -137 303v751h131v-716q0 -129 58 -202q67 -85 200 -85 q167 0 263 153q81 128 81 308v542h131v-1081h-20z" />
<glyph unicode="&#x178;" horiz-adv-x="1223" vert-adv-y="1433" d="M539 0v592l-539 952h158l458 -815l455 815h152l-541 -952v-592h-143zM388 1688v209h137v-209h-137zM720 1688v209h137v-209h-137z" />
<glyph unicode="&#x179;" horiz-adv-x="1253" vert-adv-y="1433" d="M76 0v131l932 1284h-902v129h1061v-131l-931 -1284h948v-129h-1108zM542 1659l164 272h153l-194 -272h-123z" />
<glyph unicode="&#x17a;" horiz-adv-x="922" vert-adv-y="1433" d="M61 0v106l631 867h-604v108h750v-106l-633 -866h655v-109h-799zM377 1272l164 272h153l-194 -272h-123z" />
<glyph unicode="&#x17b;" horiz-adv-x="1253" vert-adv-y="1433" d="M76 0v131l932 1284h-902v129h1061v-131l-931 -1284h948v-129h-1108zM572 1686v215h137v-215h-137z" />
<glyph unicode="&#x17c;" horiz-adv-x="922" vert-adv-y="1433" d="M61 0v106l631 867h-604v108h750v-106l-633 -866h655v-109h-799zM403 1299v215h137v-215h-137z" />
<glyph unicode="&#x17d;" horiz-adv-x="1253" vert-adv-y="1433" d="M76 0v131l932 1284h-902v129h1061v-131l-931 -1284h948v-129h-1108zM574 1659l-238 272h133l177 -180l176 180h133l-238 -272h-143z" />
<glyph unicode="&#x17e;" horiz-adv-x="922" vert-adv-y="1433" d="M61 0v106l631 867h-604v108h750v-106l-633 -866h655v-109h-799zM393 1272l-238 272h133l177 -180l176 180h133l-238 -272h-143z" />
<glyph unicode="&#x18f;" horiz-adv-x="1572" vert-adv-y="1433" d="M1333 841q-10 217 -112 377q-151 236 -436 236q-202 0 -333 -117q-70 -63 -161 -180l-118 95q100 138 198 209q166 120 413 120q328 0 515 -211q191 -216 191 -597q0 -382 -190 -597q-188 -213 -515 -213q-294 0 -477 173q-110 104 -169 263q-60 164 -60 349q0 30 3 92h3 l-1 1h1249zM1332 690h-1093l1 -10l-1 1q22 -215 110 -355q149 -236 434 -236q262 0 412 200q117 154 137 400z" />
<glyph unicode="&#x192;" horiz-adv-x="887" vert-adv-y="1433" d="M-150 -410l19 111q61 -10 101 -10q81 0 128 43q39 36 56 133l168 946h-134v109h154l66 366q30 164 123 229q70 48 190 48q58 0 123 -9l-19 -114q-54 6 -95 6q-85 0 -129 -46q-44 -45 -62 -142l-62 -338h223v-109h-241l-168 -958q-19 -107 -62 -169q-75 -110 -248 -110 q-61 0 -131 14z" />
<glyph unicode="&#x259;" horiz-adv-x="1139" vert-adv-y="1433" d="M86 603h830q-9 143 -64 242q-90 161 -282 161q-113 0 -187 -51q-42 -29 -100 -108l-105 78q74 90 123 121q113 72 268 72q238 0 368 -164q120 -154 120 -413q0 -260 -120 -413q-130 -165 -366 -165q-217 0 -344 135q-72 77 -109 191q-36 113 -36 235q0 26 4 79zM223 474 q12 -143 62 -237q89 -161 283 -161q195 0 286 162q49 86 61 236h-692z" />
<glyph unicode="&#x2c6;" horiz-adv-x="811" vert-adv-y="1433" d="M96 1272l238 272h143l238 -272h-133l-176 180l-177 -180h-133z" />
<glyph unicode="&#x2c7;" horiz-adv-x="811" vert-adv-y="1433" d="M334 1272l-238 272h133l177 -180l176 180h133l-238 -272h-143z" />
<glyph unicode="&#x2c9;" horiz-adv-x="811" vert-adv-y="1433" d="M131 1344v112h548v-112h-548z" />
<glyph unicode="&#x2d8;" horiz-adv-x="811" vert-adv-y="1433" d="M94 1513h119q19 -45 66 -75q51 -33 131 -33q149 0 190 108h117q-53 -210 -311 -210q-263 0 -312 210z" />
<glyph unicode="&#x2d9;" horiz-adv-x="811" vert-adv-y="1433" d="M336 1301v215h137v-215h-137z" />
<glyph unicode="&#x2da;" horiz-adv-x="811" vert-adv-y="1433" d="M409 1614q123 0 181 -75q40 -51 40 -134q0 -102 -68 -157q-57 -46 -154 -46q-103 0 -161 50q-65 54 -65 156q0 105 67 160q56 46 160 46zM404 1536q-60 0 -101 -37q-35 -31 -35 -90q0 -65 45 -101q34 -28 93 -28q63 0 103 37q35 33 35 94q0 72 -57 104q-37 21 -83 21z " />
<glyph unicode="&#x2db;" horiz-adv-x="1358" vert-adv-y="1433" d="M1232 0h79q-94 -74 -94 -155q0 -75 77 -75q43 0 103 38v-99q-58 -37 -124 -37q-96 0 -142 63q-25 35 -25 80q0 104 126 185z" />
<glyph unicode="&#x2dc;" horiz-adv-x="811" vert-adv-y="1433" d="M141 1315l-100 24q47 181 194 181q71 0 162 -47l68 -35q64 -33 109 -33q65 0 96 100l100 -24q-23 -86 -76 -137q-48 -46 -115 -46t-167 50l-64 32q-66 33 -104 33q-67 0 -103 -98z" />
<glyph unicode="&#x2dd;" horiz-adv-x="811" vert-adv-y="1433" d="M176 1272l92 272h125l-114 -272h-103zM410 1272l92 272h125l-115 -272h-102z" />
<glyph unicode="&#x60c;" horiz-adv-x="717" vert-adv-y="1433" d="M504 0q-37 -6 -66 -6q-206 0 -206 238q0 141 117 304q49 68 98 115l29 -29q-77 -86 -124.5 -175t-47.5 -146q0 -72 49 -98q26 -14 46 -16.5t113 -4.5z" />
<glyph unicode="&#x61b;" horiz-adv-x="717" vert-adv-y="1433" d="M388 242l147 -148l-147 -147l-148 147zM504 344q-37 -6 -66 -6q-206 0 -206 238q0 142 117 304q49 69 98 115l29 -29q-77 -86 -124.5 -174.5t-47.5 -146.5q0 -72 49 -98q26 -14 46 -16.5t113 -4.5z" />
<glyph unicode="&#x61f;" horiz-adv-x="1053" vert-adv-y="1433" d="M232 1317q-7 -30 -7 -58q0 -110 76.5 -185t286.5 -172q84 -39 121.5 -78t37.5 -88q0 -125 -105 -236.5t-250 -139.5l-5 23l70 134q121 17 214 114q-7 48 -49.5 78t-215.5 110q-263 121 -263 305q0 151 111 305q108 148 286 148q141 0 231 -84.5t90 -216.5q0 -44 -40 -94 l-33 -42l-24 -2q-7 107 -22 140q-29 66 -102.5 108.5t-158.5 42.5q-156 0 -249 -112zM520 246l150 -150l-150 -150l-151 150z" />
<glyph unicode="&#x621;" horiz-adv-x="614" vert-adv-y="1433" d="M663 459l-53 -109q-271 -84 -522 -238l-12 14l55 108l64 40q-138 63 -138 169q0 108 83 203q93 108 217 108q63 0 106 -27.5t43 -67.5q0 -42 -46 -115h-23q-34 84 -137 84q-89 0 -169 -71q-1 -138 242 -189q179 73 286 108z" />
<glyph unicode="&#x622;" horiz-adv-x="632" vert-adv-y="1433" d="M-23 1431l124 218q137 -61 257 -61q77 0 156 61l33 -25q-80 -99 -125 -129.5t-111 -30.5q-87 0 -210 42l-71 -105zM372 111l-52 -127h-31q6 73 6 165q0 246 -70 691q-27 171 -78 275l111 203h45q13 -100 33.5 -149t67.5 -93l-62 -109q35 -248 35 -691q0 -80 -5 -165z" />
<glyph unicode="&#x623;" horiz-adv-x="632" vert-adv-y="1433" d="M371 111l-52 -127h-31q6 71 6 162q0 249 -70 694q-27 172 -78 275l111 203h46q13 -102 33 -150t67 -92l-62 -109q35 -247 35 -689q0 -81 -5 -167zM444 1555l-39 -73q-210 -63 -366 -154l-12 15l38 85l32 19q-84 43 -84 106q0 78 65 140.5t146 62.5q46 0 77 -19.5 t31 -48.5q0 -27 -35 -77h-22q-17 54 -90 54q-61 0 -109 -41q5 -82 158 -110q100 38 203 70z" />
<glyph unicode="&#x624;" horiz-adv-x="1155" vert-adv-y="1433" d="M829 -37q-152 6 -275 40q-104 29 -148.5 72t-44.5 116q0 122 103 272q92 134 192 134q105 0 192 -140q83 -135 83 -311q0 -127 -50 -265t-133 -243q-194 -241 -482 -241q-238 0 -335 189q-30 58 -54 170l30 20q69 -90 124 -139q112 -101 278 -101q122 0 235.5 57 t191.5 157q80 103 93 213zM835 115v4l-1 1v3q-17 131 -91.5 228t-157.5 97q-54 0 -92 -39.5t-38 -95.5q0 -117 224 -173q69 -17 156 -25zM828 1028l-39 -72q-210 -63 -365 -154l-12 14l38 86l32 19q-84 43 -84 106q0 77 65 139.5t145 62.5q46 0 77 -19.5t31 -48.5 q0 -26 -34 -76h-22q-17 53 -90 53q-62 0 -109 -40q4 -82 157 -111q101 39 204 71z" />
<glyph unicode="&#x625;" horiz-adv-x="632" vert-adv-y="1433" d="M125 1354l111 202h46q13 -102 33 -150t68 -92l-63 -109q20 -146 38 -438.5t18 -482.5q0 -82 -4 -173l-52 -127h-31q5 72 5 165q0 288 -75 822q-23 166 -41 239.5t-53 143.5zM582 -360l-39 -73q-210 -63 -365 -154l-13 15l38 85l32 19q-84 43 -84 106q0 78 65 140.5 t146 62.5q46 0 77 -19.5t31 -48.5q0 -26 -34 -77h-23q-17 54 -89 54q-62 0 -110 -41q5 -82 158 -110q101 38 204 70z" />
<glyph unicode="&#x626;" horiz-adv-x="1757" vert-adv-y="1433" d="M1360 1028l-39 -72q-210 -63 -366 -154l-12 14l38 86l32 19q-84 42 -84 106q0 77 65 139.5t145 62.5q47 0 78 -19.5t31 -47.5q0 -26 -34 -77h-23q-17 53 -89 53q-62 0 -110 -40q5 -82 158 -111q101 39 204 71zM1514 403l-38 13q6 34 6 47q0 29 -47 29q-68 0 -163 -33.5 t-173 -84.5q-66 -43 -110 -98t-44 -94q0 -25 38 -41t134 -32q283 -47 357.5 -75.5t74.5 -87.5q0 -134 -115 -256q-127 -136 -351 -210q-190 -63 -402 -63q-228 0 -362 78q-81 47 -118 113q-56 100 -56 252q0 140 44.5 271.5t147.5 296.5q73 116 163 217l27 -20 q-150 -224 -213 -380.5t-63 -304.5q0 -213 165 -309q118 -68 324 -68q331 0 563 128q101 56 158 155q-21 29 -83.5 47t-273.5 54q-194 34 -214 46q-42 25 -42 79q0 80 50 177t132 177q101 99 235 157.5t259 58.5q72 0 94 -32z" />
<glyph unicode="&#x627;" horiz-adv-x="632" vert-adv-y="1433" d="M125 1354l111 202h46q13 -102 33 -150t68 -92l-63 -109q20 -146 38 -438.5t18 -482.5q0 -82 -4 -173l-52 -127h-31q5 72 5 165q0 288 -75 822q-23 166 -41 239.5t-53 143.5z" />
<glyph unicode="&#x628;" horiz-adv-x="1948" vert-adv-y="1433" d="M974 -196l135 -135l-135 -134l-135 134zM324 628l27 -12q-65 -127 -65 -246q0 -142 132 -204q133 -62 446 -62q358 0 599 46q129 25 190 70q-13 175 -165 373l62 157l44 18q160 -239 160 -440q0 -110 -71 -194t-190 -114q-107 -26 -300 -43.5t-384 -17.5q-340 0 -490 78 q-125 65 -125 224q0 170 130 367z" />
<glyph unicode="&#x629;" horiz-adv-x="1124" vert-adv-y="1433" d="M539 1096l121 120l128 -128l-128 -128l-121 120l-121 -120l-129 128l129 128zM402 657l-86 51l68 113l32 11q294 -174 409 -290.5t115 -240.5q0 -129 -97 -240q-46 -53 -105 -74t-161 -21q-180 0 -273 58q-120 74 -120 218q0 90 51 186.5t167 228.5zM457 626 q-159 -182 -159 -303q0 -116 104 -168q95 -47 231 -47q153 0 218 68q0 75 -25 128t-86 109q-133 122 -283 213z" />
<glyph unicode="&#x62a;" horiz-adv-x="1948" vert-adv-y="1433" d="M957 998l121 120l129 -128l-129 -129l-121 121l-121 -121l-129 129l129 128zM324 628l27 -12q-65 -127 -65 -246q0 -142 132 -204q133 -62 446 -62q358 0 599 46q129 25 190 70q-13 175 -165 373l62 157l44 18q160 -239 160 -440q0 -110 -71 -194t-190 -114 q-107 -26 -300 -43.5t-384 -17.5q-340 0 -490 78q-125 65 -125 224q0 170 130 367z" />
<glyph unicode="&#x62b;" horiz-adv-x="1948" vert-adv-y="1433" d="M957 940l-124 -124l-125 126l125 125l124 -123l124 123l126 -125l-126 -126zM957 1302l127 -126l-127 -127l-127 127zM324 628l27 -12q-65 -127 -65 -246q0 -142 132 -204q133 -62 446 -62q358 0 599 46q129 25 190 70q-13 175 -165 373l62 157l44 18q160 -239 160 -440 q0 -110 -71 -194t-190 -114q-107 -26 -300 -43.5t-384 -17.5q-340 0 -490 78q-125 65 -125 224q0 170 130 367z" />
<glyph unicode="&#x62c;" horiz-adv-x="1497" vert-adv-y="1433" d="M889 -83l135 -134l-135 -134l-135 134zM1361 529q-44 -113 -85 -172q-406 -13 -637 -130q-229 -115 -309 -300q-43 -100 -43 -205q0 -231 162 -374q162 -144 455 -144q294 0 588 163l14 -21q-88 -113 -169 -164q-198 -123 -486 -123q-243 0 -399 89q-258 147 -258 501 q0 332 251 546q90 76 196 123.5t320 107.5q-71 37 -159 85q-132 74 -170 89.5t-88 15.5q-149 0 -262 -154l-33 22q133 269 329 269q59 0 111.5 -20t167.5 -87q143 -84 202 -107t128 -23q76 0 174 13z" />
<glyph unicode="&#x62d;" horiz-adv-x="1497" vert-adv-y="1433" d="M1361 529q-44 -113 -85 -172q-406 -13 -637 -130q-229 -115 -309 -300q-43 -100 -43 -205q0 -231 162 -374q162 -144 455 -144q294 0 588 163l14 -21q-88 -113 -169 -164q-198 -123 -486 -123q-243 0 -399 89q-258 147 -258 501q0 332 251 546q90 76 196 123.5t320 107.5 q-71 37 -159 85q-132 74 -170 89.5t-88 15.5q-149 0 -262 -154l-33 22q133 269 329 269q59 0 111.5 -20t167.5 -87q143 -84 202 -107t128 -23q76 0 174 13z" />
<glyph unicode="&#x62e;" horiz-adv-x="1497" vert-adv-y="1433" d="M793 1222l134 -135l-134 -134l-135 134zM1361 529q-44 -113 -85 -172q-406 -13 -637 -130q-229 -115 -309 -300q-43 -100 -43 -205q0 -231 162 -374q162 -144 455 -144q294 0 588 163l14 -21q-88 -113 -169 -164q-198 -123 -486 -123q-243 0 -399 89q-258 147 -258 501 q0 332 251 546q90 76 196 123.5t320 107.5q-71 37 -159 85q-132 74 -170 89.5t-88 15.5q-149 0 -262 -154l-33 22q133 269 329 269q59 0 111.5 -20t167.5 -87q143 -84 202 -107t128 -23q76 0 174 13z" />
<glyph unicode="&#x62f;" horiz-adv-x="1238" vert-adv-y="1433" d="M973 159q-3 256 -193 590l73 157l44 18q84 -173 130.5 -349t46.5 -317q0 -148 -111 -234q-98 -77 -482 -77q-291 0 -291 168q0 100 78 243l25 -8q-15 -57 -15 -101q0 -90 46 -124t168 -34q338 0 481 68z" />
<glyph unicode="&#x630;" horiz-adv-x="1238" vert-adv-y="1433" d="M707 1343l135 -134l-135 -134l-135 134zM973 159q-3 256 -193 590l73 157l44 18q84 -173 130.5 -349t46.5 -317q0 -148 -111 -234q-98 -77 -482 -77q-291 0 -291 168q0 100 78 243l25 -8q-15 -57 -15 -101q0 -90 46 -124t168 -34q338 0 481 68z" />
<glyph unicode="&#x631;" horiz-adv-x="1116" vert-adv-y="1433" d="M693 712l44 18q65 -98 116 -215q91 -209 91 -307q0 -119 -75.5 -269t-194.5 -269q-109 -108 -211 -155t-228 -47q-157 0 -249.5 83t-137.5 265l34 20q86 -118 180 -170.5t220 -52.5q182 0 361 155q188 163 188 323q0 91 -55 218.5t-145 245.5z" />
<glyph unicode="&#x632;" horiz-adv-x="1116" vert-adv-y="1433" d="M474 1118l127 -127l-127 -126l-127 126zM693 712l44 18q65 -98 116 -215q91 -209 91 -307q0 -119 -75.5 -269t-194.5 -269q-109 -108 -211 -155t-228 -47q-157 0 -249.5 83t-137.5 265l34 20q86 -118 180 -170.5t220 -52.5q182 0 361 155q188 163 188 323q0 91 -55 218.5 t-145 245.5z" />
<glyph unicode="&#x633;" horiz-adv-x="2571" vert-adv-y="1433" d="M1714 58q-85 -58 -278 -58h-28q-2 -94 -44.5 -190.5t-114.5 -167.5q-99 -99 -277 -159t-371 -60q-119 0 -225 35.5t-162 95.5q-88 92 -88 257q0 303 285 599l22 -15q-194 -262 -194 -492q0 -162 93 -240q52 -43 142 -69t187 -26q192 0 365 62t266 165q6 32 6 56 q0 291 -168 591l59 155l46 20q124 -240 159 -474h36q222 0 316 44q11 43 11 81q0 90 -49 188l65 129l48 10q35 -96 35 -168q0 -118 -48 -235q122 -55 283 -55q120 0 188 21q-7 172 -132 437l67 160l49 9q68 -191 91 -287t23 -192q0 -95 -50 -182q-33 -57 -74 -79 q-60 -32 -170 -32q-229 0 -369 66z" />
<glyph unicode="&#x634;" horiz-adv-x="2571" vert-adv-y="1433" d="M1778 952l-124 -123l-125 125l125 126l124 -124l124 124l126 -126l-126 -125zM1778 1314l128 -126l-128 -126l-127 126zM1714 58q-85 -58 -278 -58h-28q-2 -94 -44.5 -190.5t-114.5 -167.5q-99 -99 -277 -159t-371 -60q-119 0 -225 35.5t-162 95.5q-88 92 -88 257 q0 303 285 599l22 -15q-194 -262 -194 -492q0 -162 93 -240q52 -43 142 -69t187 -26q192 0 365 62t266 165q6 32 6 56q0 291 -168 591l59 155l46 20q124 -240 159 -474h36q222 0 316 44q11 43 11 81q0 90 -49 188l65 129l48 10q35 -96 35 -168q0 -118 -48 -235 q122 -55 283 -55q120 0 188 21q-7 172 -132 437l67 160l49 9q68 -191 91 -287t23 -192q0 -95 -50 -182q-33 -57 -74 -79q-60 -32 -170 -32q-229 0 -369 66z" />
<glyph unicode="&#x635;" horiz-adv-x="3036" vert-adv-y="1433" d="M1408 0q0 -109 -57.5 -221.5t-150.5 -184.5q-102 -81 -251.5 -126t-311.5 -45q-511 0 -511 389q0 302 285 598l22 -15q-194 -262 -194 -494q0 -185 115 -264q100 -69 306 -69q192 0 365.5 62t266.5 165q6 33 6 54q0 279 -168 559l59 157l46 19q71 -129 103.5 -220 t55.5 -221h226l402 298q135 99 216.5 138t155.5 39q157 0 314 -120q155 -119 155 -260q0 -67 -32.5 -128t-83.5 -89q-69 -38 -224 -38q-76 0 -230 4q-112 3 -510 9l-193 4h-182zM1729 139q295 -11 620 -11h211q153 0 209 26q-15 79 -108 165q-165 151 -352 151 q-77 0 -165.5 -48t-323.5 -217l-70 -51z" />
<glyph unicode="&#x636;" horiz-adv-x="3036" vert-adv-y="1433" d="M2187 1125l134 -134l-134 -134l-135 134zM1408 0q0 -109 -57.5 -221.5t-150.5 -184.5q-102 -81 -251.5 -126t-311.5 -45q-511 0 -511 389q0 302 285 598l22 -15q-194 -262 -194 -494q0 -185 115 -264q100 -69 306 -69q192 0 365.5 62t266.5 165q6 33 6 54q0 279 -168 559 l59 157l46 19q71 -129 103.5 -220t55.5 -221h226l402 298q135 99 216.5 138t155.5 39q157 0 314 -120q155 -119 155 -260q0 -67 -32.5 -128t-83.5 -89q-69 -38 -224 -38q-76 0 -230 4q-112 3 -510 9l-193 4h-182zM1729 139q295 -11 620 -11h211q153 0 209 26 q-15 79 -108 165q-165 151 -352 151q-77 0 -165.5 -48t-323.5 -217l-70 -51z" />
<glyph unicode="&#x637;" horiz-adv-x="1817" vert-adv-y="1433" d="M590 291q301 221 396 274t190 53q153 0 307 -116q161 -121 161 -266q0 -110 -81 -194q-36 -38 -98 -50t-215 -12q-535 0 -860 17q-85 5 -129.5 19.5t-97.5 54.5q-43 33 -89 82l26 31q82 -41 215 -41h85l86 66q23 250 23 412q0 495 -109 738l113 196h40 q10 -99 31.5 -151.5t69.5 -95.5l-64 -111q27 -199 27 -446q0 -244 -27 -460zM509 139q295 -11 620 -11h205q161 0 215 26q-14 78 -106 163q-76 70 -170 111.5t-178 41.5q-87 0 -184 -55t-402 -276z" />
<glyph unicode="&#x638;" horiz-adv-x="1817" vert-adv-y="1433" d="M1133 1125l135 -134l-135 -134l-134 134zM590 291q301 221 396 274t190 53q153 0 307 -116q161 -121 161 -266q0 -110 -81 -194q-36 -38 -98 -50t-215 -12q-535 0 -860 17q-85 5 -129.5 19.5t-97.5 54.5q-43 33 -89 82l26 31q82 -41 215 -41h85l86 66q23 250 23 412 q0 495 -109 738l113 196h40q10 -99 31.5 -151.5t69.5 -95.5l-64 -111q27 -199 27 -446q0 -244 -27 -460zM509 139q295 -11 620 -11h205q161 0 215 26q-14 78 -106 163q-76 70 -170 111.5t-178 41.5q-87 0 -184 -55t-402 -276z" />
<glyph unicode="&#x639;" horiz-adv-x="1306" vert-adv-y="1433" d="M1099 461q-55 -19 -309 -126q-346 -147 -472 -357q-89 -150 -89 -307q0 -230 168 -353q157 -114 423 -114q175 0 349.5 52t315.5 146l14 -21q-80 -113 -193 -185q-223 -141 -536 -141q-297 0 -456 117q-177 130 -177 395q0 402 342 700q-108 46 -173.5 123t-65.5 158 q0 144 112 290q130 168 306 168q108 0 183.5 -51.5t75.5 -124.5q0 -38 -17 -105l-27 -1q-37 55 -116 91.5t-159 36.5q-89 0 -155 -37q-111 -64 -111 -169q0 -83 86 -157.5t218 -105.5q118 63 186 93t294 117l34 13l8 -22z" />
<glyph unicode="&#x63a;" horiz-adv-x="1306" vert-adv-y="1433" d="M604 1447l134 -135l-134 -134l-135 134zM1099 461q-55 -19 -309 -126q-346 -147 -472 -357q-89 -150 -89 -307q0 -230 168 -353q157 -114 423 -114q175 0 349.5 52t315.5 146l14 -21q-80 -113 -193 -185q-223 -141 -536 -141q-297 0 -456 117q-177 130 -177 395 q0 402 342 700q-108 46 -173.5 123t-65.5 158q0 144 112 290q130 168 306 168q108 0 183.5 -51.5t75.5 -124.5q0 -38 -17 -105l-27 -1q-37 55 -116 91.5t-159 36.5q-89 0 -155 -37q-111 -64 -111 -169q0 -83 86 -157.5t218 -105.5q118 63 186 93t294 117l34 13l8 -22z" />
<glyph unicode="&#x640;" horiz-adv-x="786" vert-adv-y="1433" d="M831 143l-37 -143h-839l37 143h839z" />
<glyph unicode="&#x641;" horiz-adv-x="2309" vert-adv-y="1433" d="M1682 1337l135 -134l-135 -135l-134 135zM343 654l24 -12q-81 -140 -81 -272q0 -167 200 -226q126 -38 462 -38q233 0 529.5 14.5t394.5 30.5q136 23 156 119q-150 1 -261 33q-213 60 -213 215q0 130 96.5 266t188.5 136q112 0 196.5 -141.5t84.5 -328.5 q0 -339 -215 -427q-147 -61 -914 -61q-275 0 -410 12.5t-219 45.5q-168 66 -168 244q0 180 149 390zM2026 429q-1 2 -1 4q0 3 -2 8q-25 142 -97 235.5t-156 93.5q-54 0 -89.5 -33t-35.5 -83q0 -195 381 -225z" />
<glyph unicode="&#x642;" horiz-adv-x="1620" vert-adv-y="1433" d="M1334 2q-100 -11 -169 -11q-358 0 -358 181q0 112 86 259q95 163 195 163q144 0 242 -204q44 -93 72 -219t28 -235q0 -239 -249 -423q-248 -184 -591 -184q-239 0 -354 108q-114 107 -114 338q0 290 140 540l29 -14q-82 -227 -82 -405q0 -422 438 -422q201 0 388.5 78 t302.5 210l9 15q2 23 2 44q0 84 -15 181zM1293 140l-4 11q-26 77 -58 135q-41 74 -98.5 117.5t-113.5 43.5q-54 0 -88 -41.5t-34 -106.5q0 -160 336 -160zM1039 993l121 121l127 -127l-127 -127l-121 121l-121 -121l-126 127l126 127z" />
<glyph unicode="&#x643;" horiz-adv-x="1953" vert-adv-y="1433" d="M1623 162q-2 176 -67 710q-26 209 -47 304t-61 180l115 199h40q11 -96 33 -148t68 -93l-62 -108q15 -103 28 -283q20 -278 30 -390q13 -147 13 -198q0 -111 -47 -195t-130 -122q-50 -21 -237 -37.5t-390 -16.5q-402 0 -556 60q-96 38 -138.5 96t-42.5 152q0 173 152 433 l27 -15q-91 -192 -91 -304q0 -154 155 -215.5t543 -61.5q449 0 665 53zM735 402l-4 23l57 116q233 36 309 123q-35 -3 -64 -3q-83 0 -114 13.5t-31 49.5q0 69 70.5 190t136.5 164l7 -21l-94 -195q-47 -16 -47 -39q0 -30 112 -30q18 0 28 1q34 2 44 2q26 0 26 -24 q0 -54 -49 -143t-101 -130q-75 -59 -286 -97z" />
<glyph unicode="&#x644;" horiz-adv-x="1644" vert-adv-y="1433" d="M353 504l19 -16q-103 -190 -103 -382q0 -214 141 -323q114 -88 329 -88q323 0 581 284q-4 321 -51 718q-38 316 -63.5 444.5t-67.5 213.5l117 200h40q12 -98 33 -148.5t68 -92.5l-63 -109q29 -268 51.5 -611.5t22.5 -522.5q0 -169 -162 -314q-111 -99 -259.5 -153 t-308.5 -54q-241 0 -371 111.5t-130 317.5q0 297 177 525z" />
<glyph unicode="&#x645;" horiz-adv-x="1105" vert-adv-y="1433" d="M333 -818l-59 -123h-23q-10 119 -123 625q-30 137 -30 193q0 50 23.5 112.5t56.5 101.5q61 72 203 72q12 0 32 -1l345 -9q-109 167 -160.5 221.5t-100.5 54.5q-97 0 -217 -207l-40 17q73 163 153 252t154 89q130 0 310 -299q56 -91 81.5 -114.5t83.5 -35.5l-39 -131 q-524 16 -695 16q-61 0 -82.5 -12t-21.5 -46q0 -35 35 -177q15 -59 44 -205q18 -91 41 -204q26 -124 29 -190z" />
<glyph unicode="&#x646;" horiz-adv-x="1603" vert-adv-y="1433" d="M821 1124l134 -134l-134 -134l-135 134zM1191 591l44 17q170 -328 170 -600q0 -197 -136 -347q-96 -107 -276 -172.5t-377 -65.5q-240 0 -373 105q-117 93 -117 287q0 299 285 596l22 -15q-194 -263 -194 -496q0 -332 422 -332q192 0 365 62t264 163q7 38 7 60 q0 285 -167 583z" />
<glyph unicode="&#x647;" horiz-adv-x="1124" vert-adv-y="1433" d="M402 657l-86 51l68 113l32 11q294 -174 409 -290.5t115 -240.5q0 -129 -97 -240q-46 -53 -105 -74t-161 -21q-180 0 -273 58q-120 74 -120 218q0 90 51 186.5t167 228.5zM457 626q-159 -182 -159 -303q0 -116 104 -168q95 -47 231 -47q153 0 218 68q0 75 -25 128t-86 109 q-133 122 -283 213z" />
<glyph unicode="&#x648;" horiz-adv-x="1155" vert-adv-y="1433" d="M829 -37q-152 6 -275 40q-104 29 -148.5 72t-44.5 116q0 122 103 272q92 134 192 134q105 0 192 -140q83 -135 83 -311q0 -127 -50 -265t-133 -243q-194 -241 -482 -241q-238 0 -335 189q-30 58 -54 170l30 20q69 -90 124 -139q112 -101 278 -101q122 0 235.5 57 t191.5 157q80 103 93 213zM835 115v4l-1 1v3q-17 131 -91.5 228t-157.5 97q-54 0 -92 -39.5t-38 -95.5q0 -117 224 -173q69 -17 156 -25z" />
<glyph unicode="&#x649;" horiz-adv-x="1757" vert-adv-y="1433" d="M1514 403l-38 13q6 34 6 47q0 29 -47 29q-68 0 -163 -33.5t-173 -84.5q-66 -43 -110 -98t-44 -94q0 -25 38 -41t134 -32q283 -47 357.5 -75.5t74.5 -87.5q0 -134 -115 -256q-127 -136 -351 -210q-190 -63 -402 -63q-228 0 -362 78q-81 47 -118 113q-56 100 -56 252 q0 140 44.5 271.5t147.5 296.5q73 116 163 217l27 -20q-150 -224 -213 -380.5t-63 -304.5q0 -213 165 -309q118 -68 324 -68q331 0 563 128q101 56 158 155q-21 29 -83.5 47t-273.5 54q-194 34 -214 46q-42 25 -42 79q0 80 50 177t132 177q101 99 235 157.5t259 58.5 q72 0 94 -32z" />
<glyph unicode="&#x64a;" horiz-adv-x="1757" vert-adv-y="1433" d="M725 -791l121 121l129 -128l-129 -129l-121 121l-121 -121l-128 129l128 128zM1514 403l-38 13q6 34 6 47q0 29 -47 29q-68 0 -163 -33.5t-173 -84.5q-66 -43 -110 -98t-44 -94q0 -25 38 -41t134 -32q283 -47 357.5 -75.5t74.5 -87.5q0 -134 -115 -256 q-127 -136 -351 -210q-190 -63 -402 -63q-228 0 -362 78q-81 47 -118 113q-56 100 -56 252q0 140 44.5 271.5t147.5 296.5q73 116 163 217l27 -20q-150 -224 -213 -380.5t-63 -304.5q0 -213 165 -309q118 -68 324 -68q331 0 563 128q101 56 158 155q-21 29 -83.5 47 t-273.5 54q-194 34 -214 46q-42 25 -42 79q0 80 50 177t132 177q101 99 235 157.5t259 58.5q72 0 94 -32z" />
<glyph unicode="&#x64b;" horiz-adv-x="0" vert-adv-y="1433" d="M645 1236l-51 -122l-352 -208l-9 20l51 122l352 208zM674 1472l-51 -122l-352 -208l-9 20l51 122l352 208z" />
<glyph unicode="&#x64c;" horiz-adv-x="0" vert-adv-y="1433" d="M607 1251l49 -17l-40 -80l-41 14q-47 -83 -100.5 -117.5t-174.5 -61.5l-37 18q5 44 5 72q0 151 -68 151q-27 0 -66 -16l-10 92q56 22 87 22q51 0 80.5 -53.5t29.5 -145.5q0 -15 -1 -33q74 11 111 27.5t90 63.5q-83 24 -118 54.5t-35 77.5q0 86 54 167t112 81 q43 0 68.5 -47t25.5 -125q0 -62 -21 -144zM554 1272v2v1q1 1 1 2v6l1 5q2 11 2 28q0 137 -57 137q-26 0 -45.5 -26t-19.5 -61q0 -25 16 -39.5t76 -42.5q25 -11 26 -12z" />
<glyph unicode="&#x64d;" horiz-adv-x="0" vert-adv-y="1433" d="M645 -396l-51 -122l-352 -208l-9 20l51 121l352 209zM674 -160l-51 -122l-352 -209l-9 20l51 122l352 209z" />
<glyph unicode="&#x64e;" horiz-adv-x="0" vert-adv-y="1433" d="M641 1393l-51 -122l-352 -208l-9 20l51 121l352 209z" />
<glyph unicode="&#x64f;" horiz-adv-x="0" vert-adv-y="1433" d="M653 1281l54 -15l-36 -83l-53 14q-38 -70 -99.5 -115.5t-179.5 -89.5l-5 19l45 107q127 50 189 93q-86 27 -119.5 58t-33.5 82q0 90 52.5 165.5t115.5 75.5q42 0 67 -48t25 -128q0 -61 -22 -135zM603 1297v2t1 5q1 9 1 26q0 82 -15 119.5t-49 37.5q-28 0 -48.5 -25.5 t-20.5 -60.5q0 -57 131 -104z" />
<glyph unicode="&#x650;" horiz-adv-x="0" vert-adv-y="1433" d="M653 -169l-51 -122l-352 -208l-9 20l51 122l352 208z" />
<glyph unicode="&#x651;" horiz-adv-x="0" vert-adv-y="1433" d="M687 1365q3 -40 19 -103q15 -56 15 -98q0 -62 -34 -98t-94 -36q-72 0 -101 71q-24 -74 -92 -74q-78 0 -112.5 79t-33.5 255l42 3q12 -128 33.5 -174t68.5 -46q65 0 65 68q0 41 -18 149l44 3q20 -83 28 -128q8 -50 23.5 -68.5t49.5 -18.5q68 0 68 57q0 18 -8 69 q-7 41 -9 92z" />
<glyph unicode="&#x652;" horiz-adv-x="0" vert-adv-y="1433" d="M468 1438q58 0 118.5 -56.5t60.5 -109.5q0 -78 -59 -168q-58 -87 -168 -87q-69 0 -112 35.5t-43 92.5q0 69 68 182q37 61 67 86t68 25zM340 1279q3 -155 125 -155q58 0 107 41q-8 64 -56.5 113.5t-103.5 49.5q-44 0 -72 -49z" />
<glyph unicode="&#x653;" horiz-adv-x="0" vert-adv-y="1433" d="M183 1097l125 218q138 -60 257 -60q74 0 155 60l33 -25q-81 -99 -125.5 -129t-112.5 -30q-84 0 -208 41l-71 -105z" />
<glyph unicode="&#x654;" horiz-adv-x="0" vert-adv-y="1433" d="M723 1209l-39 -73q-210 -63 -366 -153l-12 14l38 85l32 19q-84 43 -84 107q0 77 65 139.5t146 62.5q46 0 77 -19.5t31 -48.5q0 -27 -35 -77h-22q-17 54 -89 54q-62 0 -110 -41q5 -81 158 -110q100 38 203 70z" />
<glyph unicode="&#x655;" horiz-adv-x="0" vert-adv-y="1433" d="M616 -360l-39 -73q-210 -63 -366 -154l-12 15l38 85l32 19q-84 43 -84 106q0 78 65 140.5t146 62.5q46 0 77 -19.5t31 -48.5q0 -27 -35 -77h-22q-17 54 -90 54q-61 0 -109 -41q5 -82 158 -110q100 38 203 70z" />
<glyph unicode="&#x660;" horiz-adv-x="1143" vert-adv-y="1433" d="M521 974l242 -152q-64 -83 -134 -245l-247 148q46 133 139 249z" />
<glyph unicode="&#x661;" horiz-adv-x="1143" vert-adv-y="1433" d="M791 91l-60 -116l-24 -3q1 18 1 36q0 269 -120.5 577.5t-379.5 701.5l70 130l37 12q165 -275 242 -432.5t140 -349.5q95 -288 94 -556z" />
<glyph unicode="&#x662;" horiz-adv-x="1143" vert-adv-y="1433" d="M195 1429q43 -75 64 -113q73 -129 113 -169q76 -74 231 -74q185 0 279 76.5t151 273.5l53 -12q-43 -202 -105 -298q-66 -102 -161.5 -147.5t-240.5 -45.5q-57 0 -112 10q205 -444 204 -839l-60 -116l-24 -3q1 18 1 36q0 269 -120.5 577.5t-379.5 701.5l70 130z" />
<glyph unicode="&#x663;" horiz-adv-x="1143" vert-adv-y="1433" d="M657 1105q-52 -94 -102.5 -128t-139.5 -34q-25 0 -43 8q226 -485 218 -860l-60 -116l-24 -3q15 542 -499 1298l70 130l37 13q68 -110 105 -174q49 -84 91.5 -113.5t115.5 -29.5q93 0 144 29.5t87 103.5q33 67 59 182l51 -9q-14 -82 -42 -157q93 -98 165 -98 q66 0 111 71.5t72 220.5l54 -13q-3 -14 -15 -78q-32 -173 -99.5 -263.5t-164.5 -90.5q-59 0 -95 21t-96 90z" />
<glyph unicode="&#x664;" horiz-adv-x="1143" vert-adv-y="1433" d="M1039 250l17 -12q-64 -112 -133 -169q-116 -95 -337 -95q-150 0 -230 55t-80 159q0 88 59 178.5t219 247.5q37 37 63 65q-24 11 -102 44q-136 58 -186 100t-50 99q0 136 176 276.5t449 222.5l9 -21l-62 -135q-185 -48 -330.5 -126.5t-145.5 -129.5q0 -37 49 -70.5 t191 -93.5q79 -33 94.5 -44.5t15.5 -36.5q0 -41 -33 -86.5t-126 -133.5q-197 -186 -197 -284q0 -67 75 -107.5t198 -40.5q121 0 208 30.5t189 107.5z" />
<glyph unicode="&#x665;" horiz-adv-x="1143" vert-adv-y="1433" d="M618 1217q100 0 206 -120q127 -144 127 -339q0 -109 -42 -211t-115 -173q-107 -104 -301 -104q-136 0 -219.5 81t-83.5 213q0 116 43 241.5t117 227.5q135 184 268 184zM304 863q-29 -95 -29 -182q0 -123 76 -188q87 -74 211 -74q194 0 299 122q7 43 7 86q0 166 -89 292 q-49 68 -109 108t-114 40q-59 0 -126.5 -54.5t-125.5 -149.5z" />
<glyph unicode="&#x666;" horiz-adv-x="1143" vert-adv-y="1433" d="M1064 117l-59 -116l-43 -9q-179 222 -257 544q-48 197 -84 634q-207 -46 -308 -46q-144 0 -218.5 41t-108.5 141l59 117l22 8q38 -98 87 -126q76 -43 214 -43q125 0 351 53l17 -12q33 -503 89 -706q75 -269 239 -480z" />
<glyph unicode="&#x667;" horiz-adv-x="1143" vert-adv-y="1433" d="M600 -9h-57l-10 47q-93 437 -204 745q-112 309 -248 521l59 119l43 6q122 -183 200.5 -399t180.5 -652l7 -31l10 38q166 694 379 1044l42 -6l60 -119q-173 -282 -303 -681q-47 -146 -61.5 -203.5t-97.5 -428.5z" />
<glyph unicode="&#x668;" horiz-adv-x="1143" vert-adv-y="1433" d="M543 1433h57q9 -40 46 -199q73 -323 193 -623t252 -494l-59 -118l-43 -7q-130 182 -215 399t-195 652l-8 31l-12 -46q-178 -686 -406 -1036l-43 7l-59 118q198 305 339 736q61 184 120 442q23 98 33 138z" />
<glyph unicode="&#x669;" horiz-adv-x="1143" vert-adv-y="1433" d="M1048 117l-59 -120l-47 -3q-232 302 -329 901q-69 -133 -133 -188.5t-148 -55.5q-218 0 -218 252q0 178 124 362q115 169 265 169q84 0 124.5 -51.5t58.5 -183.5q124 -815 362 -1082zM604 943q-1 4 -1 6v7q-1 1 -1 7q-6 58 -22.5 144t-26.5 111q-32 77 -101 77 q-89 0 -159 -87q-81 -99 -81 -225q0 -92 47 -143t131 -51q74 0 131 56q27 26 68 80q1 1 15 18z" />
<glyph unicode="&#x66a;" horiz-adv-x="1616" vert-adv-y="1433" d="M308 1194l217 -137q-72 -108 -119 -216l-220 132q46 122 122 221zM412 -41l669 1480h127l-669 -1480h-127zM1213 515l216 -137q-72 -108 -119 -216l-220 132q46 122 123 221z" />
<glyph unicode="&#x66b;" horiz-adv-x="574" vert-adv-y="1433" d="M177 182q39 6 68 6q98 0 151.5 -62t53.5 -176q0 -142 -117 -303q-50 -69 -98 -116l-29 29q77 85 124.5 174.5t47.5 147.5q0 71 -49 97q-26 14 -46 17t-114 4z" />
<glyph unicode="&#x66c;" horiz-adv-x="574" vert-adv-y="1433" d="M145 1550q37 5 66 5q207 0 207 -238q0 -141 -117 -303q-49 -68 -98 -115l-29 29q77 85 124.5 174t47.5 147q0 71 -49 98q-26 14 -46 16.5t-114 4.5z" />
<glyph unicode="&#x66d;" horiz-adv-x="1204" vert-adv-y="1433" d="M658 810l10 -380h-131l10 380l-328 -197l-59 102l326 187l-326 185l59 103l328 -197l-10 379h131l-10 -379l327 197l60 -103l-326 -185l326 -187l-60 -102z" />
<glyph unicode="&#x670;" horiz-adv-x="0" vert-adv-y="1433" d="M502 1552l35 2l3 -35l10 -130l13 -180l10 -130l2 -24l-81 -9l-6 27q-46 200 -84 342z" />
<glyph unicode="&#x671;" vert-adv-y="1433" d="M513 1374l134 -134l-134 -134l-135 134z" />
<glyph unicode="&#x672;" vert-adv-y="1433" d="M513 1374l134 -134l-134 -134l-135 134z" />
<glyph unicode="&#x673;" vert-adv-y="1433" d="M513 1374l134 -134l-134 -134l-135 134z" />
<glyph unicode="&#x674;" horiz-adv-x="0" vert-adv-y="1433" d="M596 1555l-39 -73q-210 -63 -366 -154l-12 15l38 85l32 19q-84 43 -84 106q0 78 65 140.5t146 62.5q46 0 77 -19.5t31 -48.5q0 -27 -35 -77h-22q-17 54 -89 54q-62 0 -110 -41q5 -82 158 -110q100 38 203 70z" />
<glyph unicode="&#x675;" vert-adv-y="1433" d="M513 1374l134 -134l-134 -134l-135 134z" />
<glyph unicode="&#x676;" vert-adv-y="1433" d="M513 1374l134 -134l-134 -134l-135 134z" />
<glyph unicode="&#x677;" vert-adv-y="1433" d="M513 1374l134 -134l-134 -134l-135 134z" />
<glyph unicode="&#x678;" vert-adv-y="1433" d="M513 1374l134 -134l-134 -134l-135 134z" />
<glyph unicode="&#x679;" vert-adv-y="1433" d="M513 1374l134 -134l-134 -134l-135 134z" />
<glyph unicode="&#x67a;" vert-adv-y="1433" d="M513 1374l134 -134l-134 -134l-135 134z" />
<glyph unicode="&#x67b;" vert-adv-y="1433" d="M513 1374l134 -134l-134 -134l-135 134z" />
<glyph unicode="&#x67c;" vert-adv-y="1433" d="M513 1374l134 -134l-134 -134l-135 134z" />
<glyph unicode="&#x67d;" vert-adv-y="1433" d="M513 1374l134 -134l-134 -134l-135 134z" />
<glyph unicode="&#x67e;" horiz-adv-x="1948" vert-adv-y="1433" d="M974 -265l124 123l126 -126l-126 -125l-124 123l-123 -123l-126 125l126 126zM974 -628l-127 127l127 126l128 -126zM324 628l27 -12q-65 -127 -65 -246q0 -142 132 -204q133 -62 446 -62q358 0 599 46q129 25 190 70q-13 175 -165 373l62 157l44 18q160 -239 160 -440 q0 -110 -71 -194t-190 -114q-107 -26 -300 -43.5t-384 -17.5q-340 0 -490 78q-125 65 -125 224q0 170 130 367z" />
<glyph unicode="&#x67f;" vert-adv-y="1433" d="M513 1374l134 -134l-134 -134l-135 134z" />
<glyph unicode="&#x680;" vert-adv-y="1433" d="M513 1374l134 -134l-134 -134l-135 134z" />
<glyph unicode="&#x681;" vert-adv-y="1433" d="M513 1374l134 -134l-134 -134l-135 134z" />
<glyph unicode="&#x682;" vert-adv-y="1433" d="M513 1374l134 -134l-134 -134l-135 134z" />
<glyph unicode="&#x683;" vert-adv-y="1433" d="M513 1374l134 -134l-134 -134l-135 134z" />
<glyph unicode="&#x684;" vert-adv-y="1433" d="M513 1374l134 -134l-134 -134l-135 134z" />
<glyph unicode="&#x685;" vert-adv-y="1433" d="M513 1374l134 -134l-134 -134l-135 134z" />
<glyph unicode="&#x686;" vert-adv-y="1433" d="M513 1374l134 -134l-134 -134l-135 134z" />
<glyph unicode="&#x687;" vert-adv-y="1433" d="M513 1374l134 -134l-134 -134l-135 134z" />
<glyph unicode="&#x688;" vert-adv-y="1433" d="M513 1374l134 -134l-134 -134l-135 134z" />
<glyph unicode="&#x689;" vert-adv-y="1433" d="M513 1374l134 -134l-134 -134l-135 134z" />
<glyph unicode="&#x68a;" vert-adv-y="1433" d="M513 1374l134 -134l-134 -134l-135 134z" />
<glyph unicode="&#x68b;" vert-adv-y="1433" d="M513 1374l134 -134l-134 -134l-135 134z" />
<glyph unicode="&#x68c;" vert-adv-y="1433" d="M513 1374l134 -134l-134 -134l-135 134z" />
<glyph unicode="&#x68d;" vert-adv-y="1433" d="M513 1374l134 -134l-134 -134l-135 134z" />
<glyph unicode="&#x68e;" vert-adv-y="1433" d="M513 1374l134 -134l-134 -134l-135 134z" />
<glyph unicode="&#x68f;" vert-adv-y="1433" d="M513 1374l134 -134l-134 -134l-135 134z" />
<glyph unicode="&#x690;" vert-adv-y="1433" d="M513 1374l134 -134l-134 -134l-135 134z" />
<glyph unicode="&#x691;" vert-adv-y="1433" d="M513 1374l134 -134l-134 -134l-135 134z" />
<glyph unicode="&#x692;" vert-adv-y="1433" d="M513 1374l134 -134l-134 -134l-135 134z" />
<glyph unicode="&#x693;" vert-adv-y="1433" d="M513 1374l134 -134l-134 -134l-135 134z" />
<glyph unicode="&#x694;" vert-adv-y="1433" d="M513 1374l134 -134l-134 -134l-135 134z" />
<glyph unicode="&#x695;" vert-adv-y="1433" d="M513 1374l134 -134l-134 -134l-135 134z" />
<glyph unicode="&#x696;" vert-adv-y="1433" d="M513 1374l134 -134l-134 -134l-135 134z" />
<glyph unicode="&#x697;" vert-adv-y="1433" d="M513 1374l134 -134l-134 -134l-135 134z" />
<glyph unicode="&#x698;" vert-adv-y="1433" d="M513 1374l134 -134l-134 -134l-135 134z" />
<glyph unicode="&#x699;" vert-adv-y="1433" d="M513 1374l134 -134l-134 -134l-135 134z" />
<glyph unicode="&#x69a;" vert-adv-y="1433" d="M513 1374l134 -134l-134 -134l-135 134z" />
<glyph unicode="&#x69b;" vert-adv-y="1433" d="M513 1374l134 -134l-134 -134l-135 134z" />
<glyph unicode="&#x69c;" vert-adv-y="1433" d="M513 1374l134 -134l-134 -134l-135 134z" />
<glyph unicode="&#x69d;" vert-adv-y="1433" d="M513 1374l134 -134l-134 -134l-135 134z" />
<glyph unicode="&#x69e;" vert-adv-y="1433" d="M513 1374l134 -134l-134 -134l-135 134z" />
<glyph unicode="&#x69f;" vert-adv-y="1433" d="M513 1374l134 -134l-134 -134l-135 134z" />
<glyph unicode="&#x6a0;" vert-adv-y="1433" d="M513 1374l134 -134l-134 -134l-135 134z" />
<glyph unicode="&#x6a1;" vert-adv-y="1433" d="M513 1374l134 -134l-134 -134l-135 134z" />
<glyph unicode="&#x6a2;" vert-adv-y="1433" d="M513 1374l134 -134l-134 -134l-135 134z" />
<glyph unicode="&#x6a3;" vert-adv-y="1433" d="M513 1374l134 -134l-134 -134l-135 134z" />
<glyph unicode="&#x6a4;" horiz-adv-x="2309" vert-adv-y="1433" d="M1737 1178l-124 -123l-126 125l126 126l124 -124l123 124l126 -126l-126 -125zM1737 1540l127 -126l-127 -126l-128 126zM343 654l24 -12q-81 -140 -81 -272q0 -167 200 -226q126 -38 462 -38q233 0 529.5 14.5t394.5 30.5q136 23 156 119q-150 1 -261 33 q-213 60 -213 215q0 130 96.5 266t188.5 136q112 0 196.5 -141.5t84.5 -328.5q0 -339 -215 -427q-147 -61 -914 -61q-275 0 -410 12.5t-219 45.5q-168 66 -168 244q0 180 149 390zM2026 429q-1 2 -1 4q0 3 -2 8q-25 142 -97 235.5t-156 93.5q-54 0 -89.5 -33t-35.5 -83 q0 -195 381 -225z" />
<glyph unicode="&#x6a5;" vert-adv-y="1433" d="M513 1374l134 -134l-134 -134l-135 134z" />
<glyph unicode="&#x6a6;" vert-adv-y="1433" d="M513 1374l134 -134l-134 -134l-135 134z" />
<glyph unicode="&#x6a7;" vert-adv-y="1433" d="M513 1374l134 -134l-134 -134l-135 134z" />
<glyph unicode="&#x6a8;" vert-adv-y="1433" d="M513 1374l134 -134l-134 -134l-135 134z" />
<glyph unicode="&#x6a9;" vert-adv-y="1433" d="M513 1374l134 -134l-134 -134l-135 134z" />
<glyph unicode="&#x6aa;" vert-adv-y="1433" d="M513 1374l134 -134l-134 -134l-135 134z" />
<glyph unicode="&#x6ab;" vert-adv-y="1433" d="M513 1374l134 -134l-134 -134l-135 134z" />
<glyph unicode="&#x6ac;" vert-adv-y="1433" d="M513 1374l134 -134l-134 -134l-135 134z" />
<glyph unicode="&#x6ad;" vert-adv-y="1433" d="M513 1374l134 -134l-134 -134l-135 134z" />
<glyph unicode="&#x6ae;" vert-adv-y="1433" d="M513 1374l134 -134l-134 -134l-135 134z" />
<glyph unicode="&#x6af;" vert-adv-y="1433" d="M513 1374l134 -134l-134 -134l-135 134z" />
</font>
</defs>
</svg>
